<svg width="56" height="52" viewBox="0 0 56 52" fill="none" xmlns="http://www.w3.org/2000/svg">
<path d="M27.9991 11.5058C25.0554 15.0661 23.5203 19.4946 23.6436 24.1687L23.6735 25.301L21.5008 24.796L19.915 23.1487C19.9734 20.4596 20.5012 17.8313 21.4886 15.3204C23.3766 10.519 26.1236 8.00336 27.9991 6.14355L28.7445 9.13338L27.9991 11.5058Z" fill="white"/>
<path d="M22.4764 13.1426C22.1296 13.8124 21.7977 14.535 21.4891 15.3197C20.6307 17.5026 20.1201 19.7743 19.9629 22.0976C21.6007 22.4228 22.8787 22.9009 23.6422 23.2333C23.7089 20.0577 24.5449 17.0167 26.0704 14.3102C24.718 13.5842 23.4303 13.2725 22.4764 13.1426Z" fill="white"/>
<path d="M13.7888 35.9129C18.4656 36.6699 23.1342 35.6872 27.0254 33.3223L27.9992 32.7305L28.7446 35.1542L27.9992 37.0338C24.593 38.8859 20.7799 39.8599 16.9019 39.8601C13.4869 39.8603 11.2335 39.1609 9.10547 38.5955L11.3053 36.5963L13.7888 35.9129Z" fill="white"/>
<path d="M17.7832 36.144C18.6805 37.3943 19.1457 38.7045 19.3867 39.7269C22.3979 39.4017 25.3239 38.4891 27.9988 37.0347L28.0474 36.9121C27.7649 35.4289 27.2088 34.2631 26.743 33.4902C24.0334 35.0758 20.9628 35.9995 17.7832 36.144Z" fill="white"/>
<path d="M42.21 35.9117C40.5721 31.6027 37.4724 28.0701 33.329 25.8401L32.3252 25.2997L34.1504 23.5153L36.0836 23.1475C38.4033 24.5421 40.4353 26.3097 42.1344 28.4136C45.383 32.4355 46.2056 36.0491 46.8933 38.5943L44.6434 38.0448L42.21 35.9117Z" fill="white"/>
<path d="M34.502 26.5258C37.1555 28.1952 39.3162 30.4333 40.8571 33.0787C42.1167 32.2356 42.9982 31.2539 43.5885 30.4237C43.1659 29.7682 42.686 29.098 42.135 28.4158C40.6468 26.5732 38.9034 24.9885 36.935 23.6865C36.0565 24.9492 35.1637 25.8998 34.502 26.5258Z" fill="white"/>
<path d="M17.7765 52C14.2661 52 10.7557 49.8534 8.19984 47.426C-6.00789 33.3369 -1.01 9.48702 17.4636 2.05817C35.819 -5.32286 56 8.0505 56 27.7919C56 41.7954 45.6452 52 38.2233 52C32.2426 52 28.7199 45.905 30.0266 39.7558C32.3578 28.7857 39.1146 28.9522 42.5941 19.4888C35.6547 18.0983 31.8624 20.1199 27.9995 22.4675C24.1416 20.123 20.3704 18.093 13.4045 19.4888C16.8801 28.9417 23.6442 28.8012 25.9721 39.7558C27.2808 45.9153 23.7486 51.9997 17.7765 52ZM10.807 44.7844C19.2778 52.4683 23.4762 45.9354 22.325 40.518C20.1526 30.2947 12.8621 31.1976 9.21775 18.664L8.69161 16.8543C14.0577 15.4284 20.1682 13.7954 27.9995 18.157C31.4464 16.2373 34.7592 15.3377 38.3422 15.3377C41.9303 15.3377 44.8608 16.2042 47.307 16.8543L46.7809 18.664C43.137 31.1957 35.8465 30.2925 33.6737 40.518C32.525 45.9235 36.6999 52.4874 45.1916 44.7844C54.6279 35.397 54.6181 20.1473 45.1633 10.7711C35.677 1.36392 20.3223 1.36319 10.8352 10.7711C1.38039 20.1473 1.37061 35.3971 10.807 44.7844Z" fill="white"/>
<path d="M33.4894 42.0878C33.5028 41.5629 33.5638 41.0349 33.6737 40.5176C34.3622 37.2774 35.5647 35.1549 37.002 33.368C35.4075 33.0875 34.0902 32.6432 33.1593 32.2617C31.8509 34.1207 30.7345 36.424 30.0266 39.7554C29.9488 40.1213 29.8887 40.4869 29.8447 40.851C31.2302 41.6242 32.5496 41.9515 33.4894 42.0878Z" fill="white"/>
<path d="M12.4336 25.8321C14.4542 28.8852 16.7279 30.6835 18.6428 32.9413C19.5912 31.7588 20.5381 30.8738 21.254 30.2812C19.2766 28.0562 17.0888 26.2553 15.2677 23.332C13.9671 24.1174 13.0454 25.0564 12.4336 25.8321Z" fill="white"/>
<path d="M38.3296 19.0338C38.1918 17.63 37.7853 16.3131 37.4194 15.3584C34.309 15.4959 31.3799 16.336 28.3584 17.9611C29.0636 19.5032 29.2903 20.7831 29.3421 21.6711C31.9017 20.2031 34.5922 19.0311 38.3296 19.0338Z" fill="white"/>
<path d="M9.10547 38.5943C9.73763 36.2549 10.5459 32.522 13.8643 28.4136C15.5635 26.3097 17.5955 24.542 19.9152 23.1475L23.6736 25.2997L22.6698 25.8401C18.5265 28.0701 15.4267 31.6027 13.7888 35.9118L9.10547 38.5943Z" fill="white"/>
<path d="M46.8928 38.5955L45.0928 39.0738C39.2517 40.626 33.1688 39.8449 27.999 37.0338V32.7305L28.9728 33.3223C32.8623 35.6861 37.5297 36.6702 42.2095 35.9129L46.8928 38.5955Z" fill="white"/>
<path d="M32.3246 25.301L32.3545 24.1687C32.4779 19.4945 30.9427 15.0659 27.999 11.5058V6.14355L29.3168 7.45031C33.6973 11.7943 35.9595 17.4569 36.083 23.1487L32.3246 25.301Z" fill="white"/>
</svg>
