<svg width="60" height="56" viewBox="0 0 60 56" fill="none" xmlns="http://www.w3.org/2000/svg">
<path d="M29.9994 12.3907C26.8455 16.2248 25.2006 20.994 25.3328 26.0276L25.3648 27.247L23.037 26.7032L21.3379 24.9292C21.4004 22.0332 21.966 19.2027 23.0238 16.4987C25.0467 11.328 27.99 8.6188 29.9994 6.61593L30.7981 9.83574L29.9994 12.3907Z" fill="#22631B"/>
<path d="M24.0817 14.1541C23.7101 14.8755 23.3545 15.6537 23.0239 16.4987C22.1042 18.8495 21.5571 21.296 21.3887 23.798C23.1435 24.1483 24.5127 24.6631 25.3308 25.021C25.4023 21.6012 26.2979 18.3262 27.9324 15.4116C26.4834 14.6298 25.1038 14.294 24.0817 14.1541Z" fill="#22631B"/>
<path d="M14.7737 38.6754C19.7845 39.4905 24.7866 38.4323 28.9558 35.8855L29.9991 35.2481L30.7978 37.8582L29.9991 39.8825C26.3497 41.8771 22.2642 42.926 18.1092 42.9262C14.4503 42.9264 12.0359 42.1732 9.75586 41.5643L12.1128 39.4113L14.7737 38.6754Z" fill="#22631B"/>
<path d="M19.0537 38.9233C20.0151 40.2698 20.5135 41.6808 20.7718 42.7819C23.998 42.4317 27.133 41.4489 29.999 39.8826L30.051 39.7506C29.7483 38.1532 29.1525 36.8978 28.6535 36.0655C25.7503 37.7729 22.4604 38.7677 19.0537 38.9233Z" fill="#22631B"/>
<path d="M45.2247 38.6753C43.4698 34.0349 40.1487 30.2305 35.7093 27.829L34.6338 27.247L36.5893 25.3254L38.6607 24.9292C41.1461 26.4311 43.3232 28.3347 45.1437 30.6004C48.6243 34.9317 49.5056 38.8233 50.2425 41.5643L47.8319 40.9726L45.2247 38.6753Z" fill="#22631B"/>
<path d="M36.9658 28.5651C39.809 30.3629 42.1239 32.7733 43.7749 35.6221C45.1244 34.7142 46.0689 33.6569 46.7014 32.7629C46.2486 32.057 45.7345 31.3352 45.1441 30.6005C43.5496 28.6163 41.6817 26.9096 39.5727 25.5075C38.6314 26.8673 37.6748 27.891 36.9658 28.5651Z" fill="#22631B"/>
<path d="M19.0463 56C15.2851 56 11.5239 53.6883 8.78554 51.0742C-6.43702 35.9013 -1.08214 10.2168 18.711 2.21649C38.3775 -5.73231 60 8.66977 60 29.9297C60 45.0104 48.9056 56 40.9535 56C34.5457 56 30.7714 49.4361 32.1714 42.8139C34.6691 31 41.9085 31.1793 45.6366 20.988C38.2015 19.4905 34.1382 21.6676 29.9994 24.1958C25.866 21.6709 21.8255 19.4848 14.3619 20.988C18.0859 31.168 25.3331 31.0167 27.8273 42.8139C29.2295 49.4472 25.4449 55.9996 19.0463 56ZM11.5789 48.2294C20.6548 56.5043 25.153 49.4688 23.9196 43.6347C21.592 32.6251 13.7808 33.5974 9.87616 20.0997L9.31244 18.1508C15.0619 16.6152 21.6088 14.8566 29.9994 19.5537C33.6926 17.4863 37.242 16.5176 41.0809 16.5176C44.9254 16.5176 48.0652 17.4507 50.6861 18.1508L50.1224 20.0997C46.2183 33.5954 38.4069 32.6227 36.0789 43.6347C34.8482 49.456 39.3214 56.5249 48.4195 48.2294C58.5299 38.1199 58.5194 21.6971 48.3892 11.5997C38.2253 1.46883 21.7739 1.46805 11.6091 11.5997C1.47899 21.6971 1.46851 38.1199 11.5789 48.2294Z" fill="#22631B"/>
<path d="M35.8816 45.3257C35.8959 44.7604 35.9613 44.1919 36.079 43.6348C36.8167 40.1454 38.1051 37.8595 39.645 35.9352C37.9367 35.6331 36.5253 35.1547 35.5279 34.7438C34.126 36.7458 32.9299 39.2263 32.1714 42.814C32.0881 43.208 32.0237 43.6018 31.9766 43.9939C33.461 44.8265 34.8746 45.179 35.8816 45.3257Z" fill="#22631B"/>
<path d="M13.3223 27.8193C15.4872 31.1072 17.9233 33.0439 19.975 35.4754C20.9912 34.2019 22.0056 33.2489 22.7727 32.6107C20.654 30.2145 18.3099 28.2751 16.3588 25.127C14.9653 25.9728 13.9777 26.9839 13.3223 27.8193Z" fill="#22631B"/>
<path d="M41.0662 20.4979C40.9186 18.9862 40.483 17.568 40.091 16.5399C36.7584 16.6879 33.6202 17.5927 30.3828 19.3428C31.1383 21.0035 31.3812 22.3819 31.4368 23.3382C34.1792 21.7572 37.0619 20.495 41.0662 20.4979Z" fill="#22631B"/>
<path d="M9.75586 41.5643C10.4332 39.0449 11.2992 35.0249 14.8546 30.6004C16.6752 28.3347 18.8523 26.431 21.3377 24.9292L25.3646 27.247L24.2891 27.829C19.8498 30.2306 16.5286 34.0349 14.7737 38.6755L9.75586 41.5643Z" fill="#22631B"/>
<path d="M50.2424 41.5643L48.3138 42.0794C42.0555 43.751 35.5381 42.9098 29.999 39.8825V35.2481L31.0424 35.8855C35.2097 38.4311 40.2105 39.4909 45.2245 38.6753L50.2424 41.5643Z" fill="#22631B"/>
<path d="M34.6336 27.247L34.6656 26.0276C34.7978 20.9938 33.1529 16.2246 29.999 12.3907V6.61593L31.4109 8.0232C36.1043 12.7013 38.5281 18.7995 38.6604 24.9291L34.6336 27.247Z" fill="#22631B"/>
</svg>
