<svg width="149" height="40" viewBox="0 0 149 40" fill="none" xmlns="http://www.w3.org/2000/svg">
<path d="M34.5077 0.00268276V0.00387409C34.4631 0.00283111 34.4187 0.0011906 34.3741 0.000445612C34.3291 0.000892606 34.2843 0.00238411 34.2397 0.00387409C31.6129 0.0461895 29.3464 1.56776 28.2363 3.77501H28.2329L17.5801 25.1024H17.5783C16.4663 27.3797 14.1301 28.9487 11.4272 28.9487C11.3854 28.9487 11.3443 28.9463 11.3028 28.9455V28.9487H0.389798L12.9637 3.77501H12.9661C14.092 1.53662 16.4063 0 19.0808 0H14.8493H12.0174H7.23916V0.00551103C7.16698 0.00327606 7.09508 0 7.02245 0C3.64577 0 0.930549 2.44878 0.389648 5.66848V35.0005C0.389648 37.7616 2.62574 40 5.38397 40H36.1132C38.8714 40 41.1075 37.7616 41.1075 35.0005V28.9487H29.5671C27.148 28.772 25.0816 27.3341 24.0114 25.2912L23.2934 23.8537L32.0308 6.3421C31.8122 7.01214 31.6925 7.72689 31.6925 8.46994C31.6925 9.44692 31.8693 10.3427 32.2295 11.1744L41.1073 28.9485V6.31155C40.8452 2.81666 38.0532 0.059302 34.5077 0.00268276ZM11.4501 38.4893V38.4799C11.4506 38.4827 11.451 38.486 11.4515 38.4893H11.4501Z" fill="black"/>
<path d="M53.0645 13.5713H56.4145L61.7533 26.2144H58.0269L57.1132 23.9727H52.2761L51.3803 26.2144H47.7256L53.0645 13.5713ZM56.11 21.2648L54.7126 17.696L53.2974 21.2648H56.11Z" fill="black"/>
<path d="M62.9717 13.6611H69.4034C70.9799 13.6611 72.0908 14.0557 72.8252 14.791C73.3268 15.2931 73.6313 15.9566 73.6313 16.8174V16.8533C73.6313 18.3058 72.8073 19.1668 71.6965 19.6509C73.2195 20.153 74.1868 21.0139 74.1868 22.7175V22.7534C74.1868 24.9054 72.431 26.2145 69.4393 26.2145H62.9717V13.6611ZM68.5434 18.6646C69.6005 18.6646 70.1915 18.306 70.1915 17.5707V17.5348C70.1915 16.8533 69.6542 16.4587 68.615 16.4587H66.3577V18.6646H68.5434ZM69.045 23.4171C70.1021 23.4171 70.711 23.0046 70.711 22.2693V22.2334C70.711 21.5519 70.1737 21.1036 69.0091 21.1036H66.3576V23.4169L69.045 23.4171Z" fill="black"/>
<path d="M74.8311 24.3495L76.7659 22.0361C78.0022 23.0225 79.3815 23.5425 80.8326 23.5425C81.7642 23.5425 82.2658 23.2196 82.2658 22.6817V22.6458C82.2658 22.1258 81.8538 21.8389 80.1519 21.4443C77.4824 20.8346 75.4224 20.0813 75.4224 17.4988V17.4629C75.4224 15.1316 77.2675 13.4458 80.2773 13.4458C82.4092 13.4458 84.0753 14.0197 85.4368 15.1135L83.6991 17.5705C82.5525 16.7634 81.2985 16.3331 80.1877 16.3331C79.3457 16.3331 78.9335 16.6917 78.9335 17.1402V17.1761C78.9335 17.7501 79.3635 18.0011 81.1014 18.3955C83.9857 19.0232 85.7772 19.9558 85.7772 22.3051V22.341C85.7772 24.9055 83.7528 26.4298 80.7071 26.4298C78.4858 26.4298 76.3719 25.7304 74.8311 24.3495Z" fill="black"/>
<path d="M90.1665 16.7098H86.4043V13.6611H97.404V16.7098H93.642V26.2147H90.1663L90.1665 16.7098Z" fill="black"/>
<path d="M98.9268 13.6611H104.857C106.774 13.6611 108.099 14.1633 108.941 15.0242C109.676 15.7416 110.052 16.7099 110.052 17.9474V17.9831C110.052 19.9021 109.031 21.1754 107.472 21.8389L110.464 26.2147H106.451L103.925 22.4127H102.402V26.2147H98.9268V13.6611ZM104.695 19.6868C105.878 19.6868 106.559 19.1128 106.559 18.1983V18.1625C106.559 17.1761 105.842 16.674 104.678 16.674H102.402V19.6869H104.695V19.6868Z" fill="black"/>
<path d="M115.911 13.5713H119.261L124.6 26.2144H120.873L119.96 23.9727H115.123L114.227 26.2144H110.572L115.911 13.5713ZM118.956 21.2648L117.559 17.696L116.144 21.2648H118.956Z" fill="black"/>
<path d="M124.581 19.9737V19.9378C124.581 16.2793 127.394 13.4099 131.192 13.4099C133.754 13.4099 135.402 14.486 136.513 16.0283L133.897 18.0548C133.18 17.1581 132.356 16.5843 131.156 16.5843C129.4 16.5843 128.164 18.0728 128.164 19.9021V19.938C128.164 21.821 129.4 23.2915 131.156 23.2915C132.464 23.2915 133.234 22.6818 133.987 21.7672L136.602 23.6322C135.42 25.2642 133.825 26.4657 131.048 26.4657C127.465 26.4657 124.581 23.7218 124.581 19.9737Z" fill="black"/>
<path d="M141.152 16.7098H137.39V13.6611H148.389V16.7098H144.627V26.2147H141.152V16.7098Z" fill="black"/>
</svg>
