<svg width="160" height="40" viewBox="0 0 160 40" fill="none" xmlns="http://www.w3.org/2000/svg">
<path fill-rule="evenodd" clip-rule="evenodd" d="M-0.000976562 20C11.0866 20 17.4428 12.7124 17.4428 0C17.4428 12.7124 23.799 20 34.8866 20C23.799 20 17.4428 27.2876 17.4428 40C17.4428 27.2876 11.0866 20 -0.000976562 20Z" fill="black"/>
<path d="M41.7773 29.009L47.8668 9.91809H51.2921L57.3816 29.009H54.1466L52.8145 24.5908H46.3207L44.9648 29.009H41.7773ZM47.1532 21.8635H51.9819L49.5557 13.9272L47.1532 21.8635Z" fill="black"/>
<path d="M63.4885 29.3363C62.2833 29.3363 61.2208 29.0363 60.3011 28.4363C59.3813 27.8363 58.6518 26.9999 58.1127 25.9272C57.5893 24.8545 57.3277 23.6272 57.3277 22.2454C57.3277 20.8635 57.5893 19.6363 58.1127 18.5635C58.6518 17.4908 59.3813 16.6545 60.3011 16.0545C61.2208 15.4545 62.2833 15.1545 63.4885 15.1545C64.995 15.1545 66.2637 15.609 67.2944 16.5181C68.3252 17.409 68.9833 18.6454 69.2687 20.2272H66.0575C65.8989 19.5726 65.5818 19.0635 65.106 18.6999C64.6461 18.3181 64.099 18.1272 63.4647 18.1272C62.6243 18.1272 61.9106 18.4908 61.3239 19.2181C60.7372 19.9454 60.4438 20.9545 60.4438 22.2454C60.4438 23.5363 60.7372 24.5454 61.3239 25.2726C61.9106 25.9999 62.6243 26.3635 63.4647 26.3635C64.099 26.3635 64.6461 26.1817 65.106 25.8181C65.5818 25.4545 65.8989 24.9363 66.0575 24.2635H69.2687C68.9833 25.7908 68.3252 27.0181 67.2944 27.9454C66.2637 28.8726 64.995 29.3363 63.4885 29.3363Z" fill="black"/>
<path d="M70.7818 29.009V15.4817H73.4697L73.7314 17.309C74.112 16.6545 74.6115 16.1363 75.23 15.7545C75.8643 15.3545 76.5938 15.1545 77.4184 15.1545C79.242 15.1545 80.5345 15.9635 81.2956 17.5817C81.7238 16.8363 82.2947 16.2454 83.0083 15.809C83.7378 15.3726 84.5307 15.1545 85.387 15.1545C86.9252 15.1545 88.1066 15.6817 88.9313 16.7363C89.7559 17.7908 90.1682 19.3363 90.1682 21.3726V29.009H87.1235V21.6999C87.1235 20.5363 86.9252 19.6454 86.5288 19.0272C86.1482 18.409 85.5535 18.0999 84.7448 18.0999C83.9201 18.0999 83.2541 18.4454 82.7467 19.1363C82.2551 19.8272 82.0093 20.7908 82.0093 22.0272V29.009H78.9645V21.6999C78.9645 20.5363 78.7663 19.6454 78.3699 19.0272C77.9734 18.409 77.3629 18.0999 76.5383 18.0999C75.7295 18.0999 75.0714 18.4454 74.5639 19.1363C74.0723 19.8272 73.8265 20.7908 73.8265 22.0272V29.009H70.7818Z" fill="black"/>
<path d="M97.6022 29.3363C96.4128 29.3363 95.3583 29.0454 94.4385 28.4635C93.5187 27.8817 92.7972 27.0635 92.2739 26.009C91.7506 24.9545 91.4889 23.7363 91.4889 22.3545C91.4889 20.9545 91.7426 19.709 92.2501 18.6181C92.7734 17.5272 93.487 16.6817 94.3909 16.0817C95.3107 15.4635 96.389 15.1545 97.6259 15.1545C98.7836 15.1545 99.8064 15.4454 100.694 16.0272C101.583 16.609 102.272 17.409 102.764 18.4272C103.271 19.4272 103.525 20.5454 103.525 21.7817C103.525 21.9817 103.517 22.1908 103.501 22.409C103.501 22.6272 103.493 22.8545 103.478 23.0908H94.5098C94.5733 24.1454 94.8904 24.9726 95.4613 25.5726C96.0481 26.1726 96.7538 26.4726 97.5784 26.4726C98.1968 26.4726 98.7122 26.3181 99.1245 26.009C99.5527 25.6817 99.8698 25.2635 100.076 24.7545H103.168C102.946 25.609 102.574 26.3908 102.05 27.0999C101.543 27.7908 100.909 28.3363 100.147 28.7363C99.402 29.1363 98.5536 29.3363 97.6022 29.3363ZM97.6259 17.9908C96.8806 17.9908 96.2225 18.2363 95.6516 18.7272C95.0807 19.1999 94.716 19.9272 94.5574 20.909H100.433C100.385 20.0181 100.1 19.309 99.5765 18.7817C99.0532 18.2545 98.403 17.9908 97.6259 17.9908Z" fill="black"/>
<path d="M116.987 29.3363C115.306 29.3363 113.863 28.9272 112.658 28.109C111.453 27.2726 110.525 26.1181 109.875 24.6454C109.225 23.1545 108.899 21.4363 108.899 19.4908C108.899 17.5454 109.225 15.8272 109.875 14.3363C110.525 12.8454 111.453 11.6817 112.658 10.8454C113.863 10.009 115.306 9.59082 116.987 9.59082C118.985 9.59082 120.619 10.1635 121.887 11.309C123.172 12.4363 123.972 14.0272 124.29 16.0817H120.936C120.73 15.0454 120.285 14.2363 119.604 13.6545C118.938 13.0545 118.05 12.7545 116.939 12.7545C115.401 12.7545 114.196 13.3545 113.324 14.5545C112.452 15.7545 112.016 17.3999 112.016 19.4908C112.016 21.5817 112.452 23.2272 113.324 24.4272C114.196 25.609 115.401 26.1999 116.939 26.1999C118.05 26.1999 118.938 25.9272 119.604 25.3817C120.285 24.8181 120.73 24.0454 120.936 23.0635H124.29C123.972 25.0272 123.172 26.5635 121.887 27.6726C120.619 28.7817 118.985 29.3363 116.987 29.3363Z" fill="black"/>
<path d="M131.385 29.3363C130.244 29.3363 129.213 29.0363 128.293 28.4363C127.389 27.8363 126.668 27.009 126.128 25.9545C125.605 24.8817 125.344 23.6454 125.344 22.2454C125.344 20.8454 125.613 19.6181 126.152 18.5635C126.691 17.4908 127.413 16.6545 128.317 16.0545C129.237 15.4545 130.267 15.1545 131.409 15.1545C132.535 15.1545 133.55 15.4545 134.454 16.0545C135.374 16.6545 136.095 17.4908 136.619 18.5635C137.158 19.6181 137.427 20.8454 137.427 22.2454C137.427 23.6454 137.158 24.8817 136.619 25.9545C136.095 27.009 135.374 27.8363 134.454 28.4363C133.534 29.0363 132.511 29.3363 131.385 29.3363ZM131.385 26.309C132.178 26.309 132.868 25.9726 133.455 25.2999C134.042 24.609 134.335 23.5908 134.335 22.2454C134.335 20.8999 134.042 19.8908 133.455 19.2181C132.868 18.5272 132.186 18.1817 131.409 18.1817C130.6 18.1817 129.903 18.5272 129.316 19.2181C128.745 19.8908 128.46 20.8999 128.46 22.2454C128.46 23.5908 128.745 24.609 129.316 25.2999C129.903 25.9726 130.592 26.309 131.385 26.309Z" fill="black"/>
<path d="M138.96 29.009V15.4817H141.672L141.957 18.0181C142.386 17.1454 142.964 16.4545 143.694 15.9454C144.439 15.4181 145.311 15.1545 146.31 15.1545V18.8363H145.454C144.788 18.8363 144.193 18.9545 143.67 19.1908C143.147 19.4272 142.734 19.8363 142.433 20.4181C142.148 20.9999 142.005 21.809 142.005 22.8454V29.009H138.96Z" fill="black"/>
<path d="M147.202 35.009V15.4817H149.914L150.247 17.4181C150.627 16.8181 151.127 16.2908 151.745 15.8363C152.38 15.3817 153.196 15.1545 154.195 15.1545C155.305 15.1545 156.297 15.4635 157.169 16.0817C158.041 16.6999 158.731 17.5454 159.238 18.6181C159.746 19.6908 159.999 20.909 159.999 22.2726C159.999 23.6363 159.746 24.8545 159.238 25.9272C158.731 26.9817 158.041 27.8181 157.169 28.4363C156.297 29.0363 155.305 29.3363 154.195 29.3363C153.307 29.3363 152.53 29.1454 151.864 28.7635C151.198 28.3817 150.659 27.8454 150.247 27.1545V35.009H147.202ZM153.553 26.2817C154.52 26.2817 155.321 25.909 155.956 25.1635C156.59 24.4181 156.907 23.4545 156.907 22.2726C156.907 21.0908 156.59 20.1181 155.956 19.3545C155.321 18.5908 154.52 18.209 153.553 18.209C152.57 18.209 151.761 18.5908 151.127 19.3545C150.508 20.0999 150.199 21.0635 150.199 22.2454C150.199 23.4272 150.508 24.3999 151.127 25.1635C151.761 25.909 152.57 26.2817 153.553 26.2817Z" fill="black"/>
</svg>
