<svg width="165" height="40" viewBox="0 0 165 40" fill="none" xmlns="http://www.w3.org/2000/svg">
<path d="M113.788 24.8593V10.8721C113.788 9.96354 113.049 9.22705 112.137 9.22705C111.225 9.22705 110.486 9.96354 110.486 10.8721V24.8593C110.486 25.7678 111.225 26.5043 112.137 26.5043C113.049 26.5043 113.788 25.7678 113.788 24.8593Z" fill="black"/>
<path d="M58.1356 26.4484C61.8366 25.8426 62.157 23.5428 67.8418 11.4032C68.1689 10.7047 67.9405 9.87181 67.3018 9.43694C66.4961 8.88832 65.3889 9.19135 64.9775 10.0731L59.5791 21.6419C59.5791 21.6419 58.46 23.8065 56.7106 23.3267C55.1737 22.9052 54.6624 21.5478 54.5609 21.2243C54.5433 21.1681 54.5227 21.1143 54.4988 21.0606L49.5827 10.0162C49.1919 9.13813 48.1098 8.8104 47.2947 9.32319L47.2514 9.35043C46.5805 9.77249 46.3278 10.6248 46.6607 11.3424L52.3737 23.6553C52.4052 23.7232 52.4408 23.7876 52.4815 23.8504C52.8533 24.4237 54.7341 27.0052 58.1356 26.4484L58.1356 26.4484Z" fill="black"/>
<path d="M46.8103 26.1941L46.8532 26.167C47.5169 25.7472 47.7655 24.9021 47.4339 24.1918L41.7449 12.0045C41.7135 11.9373 41.678 11.8736 41.6376 11.8114C41.2678 11.2442 39.3984 8.69049 36.0292 9.25001C32.3635 9.85875 32.0512 12.1383 26.4463 24.1799C26.1238 24.8727 26.352 25.6975 26.9859 26.1269C27.7855 26.6687 28.8819 26.3659 29.2875 25.4914L34.6101 14.016C34.6101 14.016 35.7139 11.8687 37.4485 12.3401C38.9723 12.7542 39.4821 14.0981 39.5834 14.4183C39.6009 14.4739 39.6214 14.5272 39.6452 14.5804L44.5418 25.5126C44.931 26.3817 46.004 26.704 46.8104 26.194L46.8103 26.1941Z" fill="black"/>
<path d="M39.5952 22.0774C40.2024 20.6167 39.5062 18.942 38.0402 18.3369C36.5741 17.7318 34.8933 18.4255 34.2861 19.8863C33.6788 21.3471 34.375 23.0218 35.8411 23.6268C37.3071 24.2319 38.9879 23.5382 39.5952 22.0774Z" fill="black"/>
<path d="M87.0622 26.2561L87.1051 26.229C87.7689 25.8092 88.0173 24.9641 87.6858 24.2538L81.9968 12.0665C81.9654 11.9993 81.93 11.9356 81.8895 11.8734C81.5197 11.3062 79.6503 8.7525 76.2812 9.31203C72.6154 9.92076 72.3032 12.2003 66.6982 24.2419C66.3757 24.9347 66.604 25.7595 67.2378 26.1889C68.0374 26.7307 69.1338 26.4279 69.5395 25.5534L74.8621 14.078C74.8621 14.078 75.9659 11.9307 77.7004 12.4021C79.2243 12.8162 79.7339 14.1601 79.8352 14.4803C79.8528 14.5359 79.8733 14.5892 79.8971 14.6424L84.7935 25.5746C85.1829 26.4437 86.2557 26.766 87.0622 26.2561Z" fill="black"/>
<path d="M77.6511 23.8706C79.2175 23.6173 80.2812 22.1468 80.0271 20.5861C79.7729 19.0253 78.2971 17.9654 76.7307 18.2187C75.1643 18.4719 74.1006 19.9425 74.3548 21.5032C74.6089 23.0639 76.0848 24.1238 77.6511 23.8706Z" fill="black"/>
<path d="M128.448 23.6265C129.914 23.0214 130.611 21.3467 130.003 19.8859C129.396 18.4252 127.715 17.7315 126.249 18.3365C124.783 18.9416 124.087 20.6163 124.694 22.0771C125.302 23.5379 126.982 24.2316 128.448 23.6265Z" fill="black"/>
<path d="M143.025 26.5046C143.944 26.5046 144.689 25.7625 144.689 24.8471V14.8548L153.964 26.5293V26.5046H154.367C155.286 26.5046 156.031 25.7625 156.031 24.8471V10.8602C156.031 9.94476 155.286 9.20264 154.367 9.20264C153.449 9.20264 152.704 9.94476 152.704 10.8602V19.9392L144.558 9.84607C144.242 9.45484 143.765 9.22727 143.261 9.22727H143.025C142.106 9.22727 141.361 9.9694 141.361 10.8848V24.847C141.361 25.7624 142.106 26.5046 143.025 26.5046H143.025L143.025 26.5046Z" fill="black"/>
<path d="M137.219 26.1941L137.261 26.167C137.925 25.7472 138.174 24.9021 137.842 24.1918L132.153 12.0045C132.122 11.9373 132.086 11.8736 132.046 11.8114C131.676 11.2442 129.807 8.69049 126.437 9.25001C122.772 9.85875 122.459 12.1383 116.854 24.1799C116.532 24.8727 116.76 25.6975 117.394 26.1269C118.194 26.6687 119.29 26.3659 119.696 25.4914L125.018 14.016C125.018 14.016 126.122 11.8687 127.857 12.3401C129.381 12.7542 129.89 14.0981 129.991 14.4183C130.009 14.4739 130.03 14.5272 130.053 14.5804L134.95 25.5126C135.339 26.3817 136.412 26.704 137.218 26.194L137.219 26.1941Z" fill="black"/>
<path d="M99.3466 17.8043H92.4875C91.6401 17.8043 90.9531 18.4888 90.9531 19.3332V24.9882C90.9531 25.8326 91.6401 26.517 92.4875 26.517H92.7458C93.5933 26.517 94.2802 25.8326 94.2802 24.9882V20.7414H97.3298C97.3666 20.7916 97.4058 20.8406 97.4495 20.8872L102.301 26.0533C102.888 26.6782 103.872 26.7105 104.499 26.1255C105.124 25.5415 105.157 24.5629 104.572 23.9382L101.248 20.389C101.275 20.3849 101.303 20.3825 101.33 20.3769C104.61 19.685 105.698 17.3133 105.698 14.966C105.698 11.9795 103.505 9.26453 99.3466 9.23982C97.0611 9.23982 94.7757 9.22334 92.4904 9.21729C91.6418 9.21504 90.9531 9.90134 90.9531 10.7468C90.9531 11.5922 91.6401 12.2757 92.4875 12.2757H99.3466C101.439 12.2757 102.371 13.6578 102.371 15.0401C102.371 16.4223 101.464 17.8044 99.3466 17.8044V17.8043Z" fill="black"/>
<path d="M17.5577 26.5043C21.2125 26.5043 24.1616 25.2702 24.1616 21.4198C23.9409 18.3904 21.3386 17.5695 21.3386 17.5695C21.3386 17.5695 23.018 16.9442 23.5015 15.2201C23.502 15.2185 23.5025 15.2169 23.503 15.2153C23.5162 15.1675 23.528 15.1183 23.5394 15.0687C23.5508 15.0184 23.5611 14.9678 23.5703 14.9169C23.5783 14.8734 23.5856 14.8295 23.592 14.7847C23.6179 14.604 23.6323 14.4213 23.6323 14.2375C23.6323 10.7573 21.036 9.22705 17.5578 9.22705H10.6757C9.85485 9.22705 9.18945 9.89005 9.18945 10.708C9.18945 11.5259 9.85485 12.1889 10.6757 12.1889H17.5578C19.675 12.1889 20.3303 13.5217 20.3303 14.3115C20.3303 15.2987 19.6498 16.1627 17.5578 16.1627H10.6757C9.85485 16.1627 9.18945 16.8257 9.18945 17.6436V25.0235C9.18945 25.8413 9.85485 26.5044 10.6757 26.5044H17.5578L17.5577 26.5043ZM12.4662 21.9875V19.0257H17.5577C18.9188 19.0257 20.8596 19.8402 20.8596 21.3951C20.8596 23.0242 18.9188 23.4685 17.5577 23.4685H12.4662V21.9875Z" fill="black"/>
<path d="M16.6208 33.9769C15.9119 33.8984 15.3042 33.7648 15.3042 33.2855C15.3042 32.877 15.7008 32.5549 16.5279 32.5549C17.0089 32.5549 17.4425 32.7228 17.7147 32.9394C17.8697 33.0627 18.0867 33.0922 18.268 33.0053L18.2883 32.9956C18.6012 32.8458 18.6645 32.4511 18.4077 32.2274C17.9069 31.791 17.1908 31.6514 16.4942 31.6514C15.4055 31.6593 14.2071 32.1228 14.2071 33.2541C14.2071 34.4875 15.3211 34.7861 16.528 34.9197C17.3128 34.9982 17.8952 35.2103 17.8952 35.7288C17.8952 36.326 17.2369 36.5537 16.5364 36.5537C15.9651 36.5537 15.4153 36.3844 15.0829 36.0099C14.9281 35.8355 14.6658 35.7821 14.45 35.8862L14.4073 35.9068C14.1291 36.041 14.0446 36.3746 14.229 36.6104C14.7277 37.2484 15.53 37.4808 16.5195 37.4808C17.8361 37.4808 19.0008 36.9544 19.0008 35.7288C19.0008 34.4168 17.853 34.1183 16.6208 33.9769Z" fill="black"/>
<path d="M28.0854 35.0767H31.3515C31.6381 35.0767 31.8705 34.8604 31.8705 34.5935C31.8705 34.3267 31.6381 34.1104 31.3515 34.1104H28.0854C27.7988 34.1104 27.5664 34.3267 27.5664 34.5935C27.5664 34.8604 27.7988 35.0767 28.0854 35.0767Z" fill="black"/>
<path d="M31.4697 36.3179H28.0854C27.7988 36.3179 27.5664 36.5342 27.5664 36.801V36.856C27.5664 37.1229 27.7988 37.3392 28.0854 37.3392H31.4697C31.7563 37.3392 31.9887 37.1229 31.9887 36.856V36.801C31.9887 36.5342 31.7563 36.3179 31.4697 36.3179Z" fill="black"/>
<path d="M31.4697 31.8398H28.0854C27.7988 31.8398 27.5664 32.0562 27.5664 32.323V32.3622C27.5664 32.629 27.7988 32.8454 28.0854 32.8454H31.4697C31.7563 32.8454 31.9887 32.629 31.9887 32.3622V32.323C31.9887 32.0562 31.7563 31.8398 31.4697 31.8398Z" fill="black"/>
<path d="M34.6177 35.0767H37.8838C38.1704 35.0767 38.4028 34.8604 38.4028 34.5935C38.4028 34.3267 38.1704 34.1104 37.8838 34.1104H34.6177C34.331 34.1104 34.0986 34.3267 34.0986 34.5935C34.0986 34.8604 34.3311 35.0767 34.6177 35.0767Z" fill="black"/>
<path d="M38.0019 36.3179H34.6177C34.331 36.3179 34.0986 36.5342 34.0986 36.801V36.856C34.0986 37.1229 34.3311 37.3392 34.6177 37.3392H38.0019C38.2886 37.3392 38.5209 37.1229 38.5209 36.856V36.801C38.5209 36.5342 38.2885 36.3179 38.0019 36.3179Z" fill="black"/>
<path d="M38.0019 31.8398H34.6177C34.331 31.8398 34.0986 32.0562 34.0986 32.323V32.3622C34.0986 32.629 34.3311 32.8454 34.6177 32.8454H38.0019C38.2886 32.8454 38.5209 32.629 38.5209 32.3622V32.323C38.5209 32.0562 38.2885 31.8398 38.0019 31.8398Z" fill="black"/>
<path d="M25.1361 31.8398H21.2876C21.008 31.8398 20.7812 32.0509 20.7812 32.3112C20.7812 32.5715 21.0079 32.7825 21.2876 32.7825H22.6549V36.8678C22.6549 37.1281 22.8816 37.3391 23.1612 37.3391H23.2625C23.5422 37.3391 23.7689 37.1281 23.7689 36.8678V32.7825H25.1361C25.4157 32.7825 25.6425 32.5715 25.6425 32.3112C25.6425 32.0509 25.4158 31.8398 25.1361 31.8398Z" fill="black"/>
<path d="M44.284 36.3807H41.7606V32.319C41.7606 32.0544 41.5301 31.8398 41.2458 31.8398H41.1613C40.877 31.8398 40.6465 32.0544 40.6465 32.319V36.86C40.6465 37.1246 40.877 37.3392 41.1613 37.3392H44.284C44.5683 37.3392 44.7988 37.1246 44.7988 36.86C44.7988 36.5953 44.5683 36.3807 44.284 36.3807Z" fill="black"/>
<path d="M42.776 29.1318H16.1549C12.9361 29.1318 10.3174 31.5696 10.3174 34.566C10.3174 37.5623 12.9361 39.9999 16.1549 39.9999H42.776C45.9947 39.9999 48.6134 37.5622 48.6134 34.566C48.6134 31.5697 45.9947 29.1318 42.776 29.1318ZM42.776 39.1285H16.1549C13.4522 39.1285 11.2534 37.0817 11.2534 34.5659C11.2534 32.0501 13.4522 30.0031 16.1549 30.0031H42.776C45.4787 30.0031 47.6775 32.05 47.6775 34.5659C47.6775 37.0818 45.4787 39.1285 42.776 39.1285Z" fill="black"/>
<path d="M163.998 0H1.22249C0.884455 0 0.610352 0.273045 0.610352 0.609932V35.0136C0.610352 35.3505 0.884384 35.6236 1.22249 35.6236H5.54784C5.88587 35.6236 6.15997 35.3505 6.15997 35.0136C6.15997 34.6768 5.88595 34.4037 5.54784 34.4037H1.83455V1.21979H163.386V34.4037H53.228C52.8899 34.4037 52.6158 34.6768 52.6158 35.0136C52.6158 35.3505 52.8899 35.6236 53.228 35.6236H163.998C164.336 35.6236 164.61 35.3505 164.61 35.0136V0.609932C164.61 0.273116 164.336 0 163.998 0Z" fill="black"/>
</svg>
