<svg width="65" height="64" viewBox="0 0 65 64" fill="none" xmlns="http://www.w3.org/2000/svg">
<circle cx="32.667" cy="32" r="32" fill="url(#paint0_linear_579_3174)"/>
<path d="M33 37.421C32.57 37.373 32.1661 37.1871 31.8461 36.8901C31.6534 36.72 31.4301 36.5898 31.1886 36.5068C30.9251 36.4874 30.6603 36.5208 30.4093 36.6051C30.0116 36.7531 29.578 36.7674 29.1718 36.6459C28.7964 36.4345 28.4961 36.1073 28.314 35.7111C28.198 35.475 28.038 35.2644 27.843 35.091C27.6095 34.9714 27.3552 34.8997 27.0947 34.8799C26.669 34.8609 26.2605 34.7034 25.9289 34.4302C25.6615 34.0916 25.5072 33.6745 25.4886 33.2399C25.4693 32.9739 25.3992 32.7143 25.2821 32.4758C25.1121 32.2767 24.9057 32.1133 24.6745 31.9949C24.2864 31.809 23.966 31.5023 23.7591 31.119C23.6401 30.7043 23.6541 30.2616 23.7991 29.8555C23.8819 29.5993 23.9147 29.329 23.8955 29.0599C23.8141 28.8133 23.6866 28.5853 23.52 28.3884C23.2291 28.0618 23.047 27.6495 23 27.2106C23.047 26.7716 23.229 26.3591 23.52 26.0324C23.6866 25.8356 23.8142 25.6076 23.8955 25.3611C23.9146 25.092 23.8819 24.8217 23.7991 24.5655C23.6541 24.1594 23.6401 23.7165 23.7591 23.3017C23.966 22.9184 24.2865 22.6118 24.6745 22.4258C24.9058 22.3075 25.1122 22.1442 25.2821 21.9452C25.3993 21.7066 25.4696 21.4468 25.4888 21.1806C25.5074 20.7461 25.6617 20.3289 25.9291 19.9903C26.2607 19.7172 26.6692 19.5597 27.0949 19.5408C27.3555 19.521 27.6097 19.4493 27.8433 19.3297C28.0383 19.1563 28.1983 18.9457 28.3143 18.7097C28.4964 18.3134 28.7967 17.9861 29.1721 17.7748C29.5782 17.6531 30.0119 17.6674 30.4095 17.8158C30.6604 17.9001 30.9251 17.9335 31.1886 17.9141C31.4301 17.8311 31.6534 17.701 31.8462 17.5309C32.1661 17.2338 32.5701 17.0479 33 17C33.4298 17.048 33.8338 17.2339 34.1537 17.531C34.3464 17.701 34.5697 17.8312 34.8111 17.9142C35.0747 17.9341 35.3396 17.9007 35.5905 17.8159C35.9883 17.668 36.4219 17.6537 36.8282 17.7751C37.2036 17.9865 37.5039 18.3137 37.686 18.7099C37.802 18.946 37.962 19.1567 38.157 19.3302C38.3905 19.4498 38.6447 19.5214 38.9052 19.5411C39.3309 19.5601 39.7395 19.7176 40.0712 19.9908C40.3386 20.3294 40.4929 20.7465 40.5115 21.1811C40.5308 21.4472 40.601 21.7067 40.718 21.9452C40.888 22.1443 41.0944 22.3077 41.3257 22.4261C41.7136 22.612 42.034 22.9186 42.2409 23.3018C42.3599 23.7166 42.3459 24.1594 42.2009 24.5655C42.1181 24.8217 42.0854 25.092 42.1045 25.3611C42.1859 25.6076 42.3134 25.8355 42.48 26.0323C42.771 26.359 42.953 26.7715 43 27.2104C42.953 27.6493 42.7709 28.0617 42.48 28.3883C42.3134 28.5852 42.1859 28.8132 42.1045 29.0598C42.0854 29.3289 42.1181 29.5992 42.2009 29.8554C42.3459 30.2616 42.3598 30.7045 42.2408 31.1193C42.0338 31.5026 41.7134 31.8092 41.3254 31.9951C41.0941 32.1135 40.8877 32.2768 40.7178 32.476C40.6006 32.7146 40.5303 32.9743 40.5111 33.2405C40.4925 33.6751 40.3382 34.0922 40.0708 34.4308C39.7391 34.704 39.3305 34.8616 38.9047 34.8805C38.6442 34.9002 38.39 34.9719 38.1564 35.0914C37.9615 35.2649 37.8016 35.4755 37.6857 35.7115C37.5035 36.1078 37.2032 36.435 36.8277 36.6463C36.4216 36.7677 35.9881 36.7532 35.5905 36.6051C35.3397 36.5205 35.0749 36.4871 34.8114 36.5068C34.5699 36.5898 34.3466 36.72 34.1539 36.8901C33.8339 37.1872 33.4299 37.3731 33 37.421ZM31.0452 35.8486C31.1345 35.8482 31.2237 35.8567 31.3114 35.874C31.6455 35.9703 31.9552 36.1393 32.2192 36.3695C32.4368 36.5773 32.7074 36.7182 33 36.7759C33.2925 36.7181 33.5631 36.5772 33.7807 36.3694C34.0447 36.1392 34.3544 35.9702 34.6885 35.8739C35.0421 35.8308 35.4007 35.8664 35.7396 35.9782C36.0097 36.0816 36.3026 36.1064 36.5857 36.05C36.8303 35.8834 37.0243 35.6501 37.1456 35.3766C37.3047 35.0574 37.5296 34.777 37.8049 34.5548C38.1131 34.3781 38.4551 34.2716 38.8074 34.2426C39.0987 34.2322 39.3815 34.1393 39.6241 33.9743C39.7856 33.7266 39.8766 33.438 39.8868 33.1407C39.9151 32.7809 40.0195 32.4317 40.1927 32.1171C40.4102 31.8359 40.6848 31.6061 40.9976 31.4435C41.2653 31.3196 41.4938 31.1217 41.6571 30.8721C41.7122 30.5828 41.6879 30.2836 41.5867 30.0076C41.4775 29.6616 41.4426 29.2956 41.4846 28.9346C41.5789 28.5933 41.7446 28.2769 41.9701 28.0072C42.1736 27.7852 42.3116 27.509 42.3681 27.2104C42.3116 26.9118 42.1736 26.6355 41.9701 26.4134C41.7446 26.1438 41.5789 25.8275 41.4846 25.4863C41.4426 25.1253 41.4774 24.7592 41.5867 24.4132C41.6879 24.1373 41.7122 23.8381 41.6571 23.5489C41.4939 23.2993 41.2655 23.1014 40.9978 22.9775C40.685 22.815 40.4104 22.5852 40.1928 22.304C40.0198 21.9894 39.9155 21.6403 39.8871 21.2806C39.8769 20.9833 39.786 20.6947 39.6245 20.4471C39.3819 20.282 39.0991 20.1891 38.8078 20.1787C38.4555 20.1498 38.1135 20.0433 37.8054 19.8665C37.5301 19.6443 37.3051 19.3639 37.1459 19.0446C37.0245 18.7712 36.8306 18.5379 36.5861 18.3711C36.3028 18.3149 36.0099 18.3397 35.7396 18.4428C35.4007 18.5546 35.0421 18.5902 34.6885 18.5471C34.3543 18.4508 34.0446 18.2818 33.7805 18.0516C33.563 17.8438 33.2924 17.7029 33 17.6452C32.7075 17.7029 32.4369 17.8438 32.2194 18.0516C31.9553 18.2818 31.6455 18.4509 31.3113 18.5471C30.9577 18.5901 30.5992 18.5545 30.2603 18.4429C29.9902 18.3396 29.6973 18.3147 29.4142 18.371C29.1697 18.5376 28.9757 18.7709 28.8544 19.0443C28.6952 19.3636 28.4702 19.644 28.1949 19.8661C27.8867 20.0429 27.5447 20.1494 27.1924 20.1784C26.9011 20.1888 26.6184 20.2817 26.3759 20.4466C26.2143 20.6942 26.1233 20.9828 26.1132 21.2802C26.0848 21.64 25.9805 21.9892 25.8073 22.3038C25.5897 22.5851 25.3151 22.8148 25.0023 22.9774C24.7346 23.1013 24.5061 23.2993 24.3428 23.5489C24.2877 23.8381 24.312 24.1374 24.4132 24.4134C24.5225 24.7594 24.5573 25.1254 24.5153 25.4865C24.421 25.8278 24.2554 26.1441 24.0298 26.4137C23.8263 26.6358 23.6883 26.9121 23.6318 27.2107C23.6883 27.5093 23.8263 27.7855 24.0298 28.0075C24.2553 28.2772 24.421 28.5936 24.5153 28.9349C24.5573 29.2959 24.5225 29.6619 24.4132 30.0079C24.312 30.2838 24.2877 30.5829 24.3428 30.872C24.506 31.1216 24.7344 31.3196 25.0022 31.4434C25.3149 31.606 25.5895 31.8358 25.8071 32.117C25.9801 32.4316 26.0844 32.7808 26.1128 33.1405C26.123 33.4378 26.2139 33.7264 26.3755 33.9741C26.618 34.1391 26.9007 34.2321 27.192 34.2425C27.5444 34.2713 27.8865 34.3779 28.1947 34.5548C28.47 34.7769 28.6949 35.0572 28.8542 35.3764C28.9755 35.6499 29.1694 35.8832 29.414 36.0499C29.6972 36.106 29.9901 36.0812 30.2604 35.9782C30.5161 35.9036 30.7795 35.8601 31.0452 35.8486Z" fill="black" stroke="black" stroke-width="0.5"/>
<path d="M32.9994 34.1711C31.6512 34.1711 30.3332 33.7629 29.2122 32.9981C28.0912 32.2333 27.2175 31.1463 26.7015 29.8744C26.1856 28.6026 26.0506 27.2031 26.3136 25.853C26.5766 24.5028 27.2258 23.2626 28.1791 22.2892C29.1325 21.3157 30.3471 20.6528 31.6694 20.3842C32.9917 20.1157 34.3623 20.2535 35.6079 20.7803C36.8535 21.3071 37.9181 22.1992 38.6672 23.3438C39.4162 24.4884 39.816 25.8341 39.816 27.2107C39.814 29.056 39.0952 30.8252 37.8173 32.1301C36.5394 33.435 34.8067 34.169 32.9994 34.1711ZM32.9994 20.8957C31.7761 20.8956 30.5803 21.266 29.5632 21.9599C28.5461 22.6538 27.7534 23.6401 27.2853 24.7941C26.8172 25.948 26.6947 27.2178 26.9333 28.4428C27.172 29.6678 27.761 30.7931 28.626 31.6763C29.491 32.5594 30.593 33.1609 31.7928 33.4046C32.9925 33.6482 34.2361 33.5232 35.3662 33.0452C36.4964 32.5672 37.4623 31.7577 38.1419 30.7192C38.8215 29.6807 39.1842 28.4597 39.1842 27.2107C39.1823 25.5364 38.5301 23.9312 37.3707 22.7473C36.2112 21.5634 34.6391 20.8976 32.9994 20.8957Z" fill="black" stroke="black" stroke-width="0.5"/>
<path d="M35.0036 30.4299C34.9524 30.4299 34.902 30.4172 34.8566 30.3929L33.0416 29.4184L31.2264 30.3929C31.1742 30.421 31.1154 30.4335 31.0566 30.4292C30.9978 30.4248 30.9413 30.4038 30.8936 30.3684C30.8459 30.333 30.8089 30.2847 30.7867 30.229C30.7644 30.1732 30.758 30.1122 30.7679 30.0529L31.1147 27.989L29.6461 26.5273C29.6039 26.4853 29.5741 26.432 29.56 26.3736C29.5459 26.3152 29.548 26.2538 29.5663 26.1966C29.5845 26.1394 29.6181 26.0885 29.6631 26.0497C29.7082 26.0109 29.763 25.9858 29.8214 25.9771L31.8507 25.6761L32.7582 23.7985C32.7873 23.7481 32.8287 23.7065 32.8784 23.6775C32.9281 23.6485 32.9844 23.6333 33.0416 23.6333C33.0988 23.6333 33.155 23.6485 33.2047 23.6775C33.2544 23.7065 33.2958 23.7481 33.3249 23.7985L34.2325 25.6761L36.2618 25.9771C36.3201 25.9857 36.375 26.0109 36.4201 26.0497C36.4652 26.0885 36.4988 26.1394 36.517 26.1967C36.5353 26.2539 36.5374 26.3153 36.5233 26.3737C36.5092 26.4322 36.4793 26.4855 36.437 26.5275L34.9685 27.989L35.3151 30.0529C35.3228 30.0992 35.3206 30.1466 35.3085 30.192C35.2965 30.2373 35.2748 30.2794 35.2452 30.3153C35.2155 30.3512 35.1785 30.3801 35.1368 30.3999C35.0951 30.4197 35.0496 30.4299 35.0036 30.4299ZM30.5456 26.5216L31.6747 27.6455C31.7113 27.682 31.7387 27.7271 31.7545 27.7768C31.7703 27.8265 31.7741 27.8794 31.7655 27.9309L31.499 29.5176L32.8946 28.7684C32.9399 28.744 32.9903 28.7313 33.0416 28.7313C33.0928 28.7313 33.1433 28.744 33.1886 28.7684L34.584 29.5176L34.3173 27.9309C34.3088 27.8793 34.3126 27.8264 34.3284 27.7767C34.3443 27.7269 34.3717 27.6819 34.4083 27.6453L35.5375 26.5216L33.9773 26.2903C33.9266 26.2828 33.8784 26.2628 33.837 26.232C33.7955 26.2012 33.762 26.1606 33.7393 26.1137L33.0416 24.6701L32.3438 26.1137C32.3212 26.1606 32.2876 26.2012 32.2462 26.232C32.2047 26.2628 32.1565 26.2827 32.1058 26.2903L30.5456 26.5216Z" fill="black" stroke="black" stroke-width="0.5"/>
<path d="M35.379 47.0001C35.3077 47.0001 35.2385 46.9755 35.1827 46.9303C35.1268 46.8851 35.0876 46.8219 35.0714 46.751L32.8684 37.1499C32.8585 37.1085 32.8567 37.0655 32.8632 37.0234C32.8696 36.9812 32.8842 36.9409 32.906 36.9045C32.9279 36.8682 32.9565 36.8366 32.9904 36.8117C33.0242 36.7867 33.0626 36.7689 33.1033 36.7592C33.1439 36.7494 33.186 36.748 33.2272 36.755C33.2684 36.762 33.3078 36.7773 33.3432 36.8C33.3785 36.8226 33.4092 36.8522 33.4333 36.887C33.4574 36.9218 33.4745 36.9612 33.4836 37.0028L35.5373 45.9531L37.4464 43.4879C37.4891 43.4327 37.5483 43.3933 37.615 43.3756C37.6818 43.358 37.7523 43.3631 37.8159 43.3903L40.6413 44.5938L37.9485 34.7795C37.9275 34.6976 37.9388 34.6106 37.98 34.5371C38.0213 34.4637 38.0891 34.4098 38.169 34.3869C38.2488 34.3641 38.3342 34.3743 38.4068 34.4152C38.4794 34.4561 38.5333 34.5245 38.5569 34.6056L41.4255 45.061C41.4415 45.1193 41.4411 45.1811 41.4243 45.2392C41.4075 45.2973 41.3751 45.3494 41.3306 45.3895C41.2862 45.4297 41.2316 45.4562 41.173 45.4662C41.1145 45.4761 41.0544 45.469 40.9996 45.4456L37.7935 44.0798L35.6267 46.8775C35.5972 46.9157 35.5596 46.9466 35.5167 46.9678C35.4737 46.9891 35.4267 47.0001 35.379 47.0001Z" fill="black" stroke="black" stroke-width="0.5"/>
<path d="M31.8875 44.0624C31.84 44.0623 31.7932 44.0514 31.7505 44.0304C31.7078 44.0094 31.6702 43.9789 31.6407 43.9411L29.4553 41.1464L26.1602 42.644C26.1056 42.6687 26.0453 42.6772 25.9863 42.6685C25.9272 42.6597 25.8717 42.634 25.8264 42.5944C25.781 42.5547 25.7476 42.5028 25.7299 42.4446C25.7123 42.3863 25.7112 42.3242 25.7267 42.2653L27.7139 34.739C27.7239 34.6973 27.7421 34.6581 27.7672 34.6236C27.7923 34.5892 27.8239 34.5602 27.8601 34.5384C27.8964 34.5166 27.9365 34.5023 27.9782 34.4966C28.0199 34.4908 28.0622 34.4936 28.1029 34.5048C28.1435 34.516 28.1815 34.5353 28.2147 34.5617C28.2479 34.5881 28.2756 34.6209 28.2961 34.6584C28.3167 34.6959 28.3298 34.7371 28.3345 34.7798C28.3393 34.8225 28.3356 34.8657 28.3238 34.9069L26.5095 41.7791L29.4213 40.4555C29.4852 40.4264 29.5567 40.4198 29.6246 40.4367C29.6926 40.4537 29.7531 40.4932 29.7966 40.5491L31.7094 42.9952L32.8664 37.0139C32.8832 36.9305 32.9316 36.8573 33.001 36.8102C33.0704 36.7631 33.1553 36.746 33.2371 36.7625C33.3189 36.779 33.3909 36.8278 33.4376 36.8983C33.4843 36.9688 33.5017 37.0553 33.4862 37.139L32.1975 43.8023C32.1859 43.8626 32.1576 43.9183 32.1159 43.9628C32.0743 44.0072 32.0211 44.0386 31.9626 44.0532C31.938 44.0593 31.9128 44.0624 31.8875 44.0624Z" fill="black" stroke="black" stroke-width="0.5"/>
<defs>
<linearGradient id="paint0_linear_579_3174" x1="32.667" y1="0" x2="32.667" y2="64" gradientUnits="userSpaceOnUse">
<stop stop-color="#F8C70C"/>
<stop offset="1" stop-color="#F8C70C"/>
</linearGradient>
</defs>
</svg>
