<svg width="64" height="64" viewBox="0 0 64 64" fill="none" xmlns="http://www.w3.org/2000/svg">
<circle cx="32" cy="32" r="32" fill="url(#paint0_linear_579_3191)"/>
<path d="M40.4619 16.9004C40.7711 16.9004 41.0205 17.1556 41.0205 17.4658V39.5078C41.983 40.289 42.5996 41.4914 42.5996 42.8389C42.5996 45.1892 40.7246 47.0996 38.4072 47.0996C36.7874 47.0996 35.3834 46.1632 34.6846 44.7959H21.958C21.6488 44.7959 21.4004 44.5407 21.4004 44.2305V22.29C21.4004 22.1427 21.4564 21.9985 21.5625 21.8906L26.3076 17.0664L26.3086 17.0654C26.4159 16.9583 26.5579 16.9004 26.7031 16.9004H40.4619ZM38.4072 39.71C36.7117 39.7102 35.3332 41.1099 35.333 42.8379C35.333 44.5661 36.7116 45.9676 38.4072 45.9678C40.1046 45.9678 41.4844 44.5662 41.4844 42.8379C41.4842 41.1098 40.1045 39.71 38.4072 39.71ZM39.5117 41.4385C39.7315 41.2174 40.083 41.2173 40.3027 41.4385V41.4395C40.5188 41.6591 40.519 42.0175 40.3037 42.2383H40.3027L38.334 44.2393L38.333 44.2383C38.1161 44.4602 37.7616 44.4605 37.5449 44.2383L36.5137 43.1924C36.2962 42.9713 36.2962 42.6136 36.5137 42.3926C36.7318 42.1709 37.0877 42.1702 37.3047 42.3926L37.9385 43.0371L39.5107 41.4395L39.5117 41.4385ZM27.2617 22.29C27.2617 22.6014 27.0142 22.8574 26.7031 22.8574H22.5156V43.665H34.2949C34.2442 43.3977 34.2168 43.1213 34.2168 42.8389C34.2168 40.4885 36.0924 38.5771 38.4082 38.5771C38.936 38.5772 39.4385 38.6772 39.9043 38.8584V18.0312H27.2617V22.29ZM37.3203 36.1504C37.6313 36.1504 37.8789 36.4068 37.8789 36.7168C37.8787 37.0267 37.6311 37.2822 37.3203 37.2822H25.0811C24.7722 37.282 24.5236 37.0267 24.5234 36.7168C24.5234 36.4067 24.7721 36.1507 25.0811 36.1504H37.3203ZM37.3203 33.7227C37.6311 33.7227 37.8787 33.9783 37.8789 34.2881C37.8789 34.5995 37.6315 34.8555 37.3203 34.8555H25.0811C24.7719 34.8552 24.5234 34.5995 24.5234 34.2881C24.5237 33.9782 24.7723 33.7229 25.0811 33.7227H37.3203ZM37.3203 31.2959C37.631 31.2959 37.8788 31.5496 37.8789 31.8613C37.8789 32.1714 37.6312 32.4268 37.3203 32.4268H25.0811C24.7721 32.4265 24.5234 32.1714 24.5234 31.8613C24.5236 31.5495 24.7724 31.2962 25.0811 31.2959H37.3203ZM32.6777 27.2461C32.9868 27.2461 33.2352 27.5014 33.2354 27.8115C33.2354 28.1231 32.9871 28.3789 32.6777 28.3789H25.0811C24.7719 28.3786 24.5234 28.123 24.5234 27.8115C24.5235 27.5015 24.7722 27.2464 25.0811 27.2461H32.6777ZM30.3984 24.8193C30.709 24.8193 30.9568 25.0731 30.957 25.3848C30.957 25.6948 30.7094 25.9512 30.3984 25.9512H25.0811C24.7721 25.9509 24.5234 25.6948 24.5234 25.3848C24.5236 25.073 24.7725 24.8196 25.0811 24.8193H30.3984ZM23.3037 21.7246H26.1455V18.834L23.3037 21.7246Z" fill="black" stroke="black" stroke-width="0.2"/>
<defs>
<linearGradient id="paint0_linear_579_3191" x1="32" y1="0" x2="32" y2="64" gradientUnits="userSpaceOnUse">
<stop stop-color="#F8C70C"/>
<stop offset="1" stop-color="#F8C70C"/>
</linearGradient>
</defs>
</svg>
