<svg width="163" height="40" viewBox="0 0 163 40" fill="none" xmlns="http://www.w3.org/2000/svg">
<path d="M4.43123 11.6581L27.3779 17.5995C28.3457 17.8501 29.3268 17.2417 29.5292 16.2657L31.9822 4.41824C32.1492 3.61287 31.7291 2.80026 30.973 2.47139C26.6078 0.57091 12.1469 -4.36131 3.39897 9.03351C2.75048 10.0257 3.28155 11.3607 4.43123 11.6581Z" fill="black"/>
<path d="M22.1582 37.7584L15.4164 15.2514C15.1304 14.2962 14.1002 13.7751 13.1576 14.1082L1.66416 18.1704C0.909379 18.4371 0.43123 19.18 0.508075 19.9743C0.942248 24.4691 3.63695 38.5932 20.3503 39.9938C21.5717 40.0959 22.5092 38.9293 22.1582 37.7584Z" fill="black"/>
<path d="M36.0823 9.97339L19.451 26.6169C18.7453 27.3232 18.7769 28.474 19.5206 29.1407L28.587 37.2685C29.1821 37.802 30.0654 37.8662 30.7292 37.4204C34.4856 34.8953 45.6555 25.7962 38.9162 10.4903C38.4231 9.3718 36.9472 9.1076 36.0823 9.97339Z" fill="black"/>
<path d="M53.8353 25.3092C53.4562 25.3092 53.2666 25.1049 53.2666 24.6965V15.2005C53.2666 14.7921 53.4562 14.5879 53.8353 14.5879H57.3394C58.9275 14.5879 60.1416 15.0473 60.9818 15.9663C61.8322 16.8853 62.2574 18.2127 62.2574 19.9485C62.2574 21.6741 61.8322 23.0015 60.9818 23.9307C60.1416 24.8497 58.9275 25.3092 57.3394 25.3092H53.8353ZM55.6488 23.3027H57.3394C58.1591 23.3027 58.7789 23.022 59.199 22.4604C59.6191 21.8886 59.8291 21.0513 59.8291 19.9485C59.8291 18.8457 59.6191 18.0136 59.199 17.452C58.7789 16.8802 58.1591 16.5943 57.3394 16.5943H55.6488V23.3027Z" fill="black"/>
<path d="M64.5215 25.3092C64.1424 25.3092 63.9528 25.1049 63.9528 24.6965V15.2005C63.9528 14.7921 64.1424 14.5879 64.5215 14.5879H70.0082C70.3156 14.5879 70.4693 14.8431 70.4693 15.3537V15.8285C70.4693 16.339 70.3156 16.5943 70.0082 16.5943H66.335V18.8151H69.6086C69.9057 18.8151 70.0543 19.0704 70.0543 19.5809V20.0557C70.0543 20.5663 69.9057 20.8215 69.6086 20.8215H66.335V23.3027H70.0236C70.3309 23.3027 70.4846 23.558 70.4846 24.0686V24.5434C70.4846 25.0539 70.3309 25.3092 70.0236 25.3092H64.5215Z" fill="black"/>
<path d="M75.2628 25.4317C74.7505 25.4317 74.2894 25.3909 73.8796 25.3092C73.48 25.2377 73.1368 25.1407 72.8499 25.0182C72.563 24.8956 72.3273 24.7782 72.1429 24.6659C71.9995 24.574 71.8816 24.4872 71.7894 24.4055C71.6972 24.3136 71.6511 24.2064 71.6511 24.0839C71.6511 23.9613 71.6665 23.8235 71.6972 23.6703C71.7382 23.507 71.7894 23.3487 71.8509 23.1955C71.9226 23.0424 71.9944 22.9147 72.0661 22.8126C72.148 22.7105 72.23 22.6595 72.312 22.6595C72.4042 22.6595 72.5835 22.7258 72.8499 22.8586C73.1265 22.9811 73.4493 23.1087 73.8181 23.2415C74.1972 23.364 74.5917 23.4253 75.0015 23.4253C75.2987 23.4253 75.5395 23.3895 75.7239 23.3181C75.9186 23.2466 76.062 23.1343 76.1542 22.9811C76.2567 22.8279 76.3079 22.6339 76.3079 22.3991C76.3079 22.154 76.2362 21.9498 76.0927 21.7865C75.9595 21.6231 75.7802 21.4801 75.5548 21.3576C75.3294 21.2249 75.0733 21.1074 74.7864 21.0053C74.5097 20.893 74.228 20.7705 73.9411 20.6377C73.6747 20.5152 73.4185 20.3723 73.1726 20.2089C72.9267 20.0455 72.7013 19.8464 72.4964 19.6116C72.3017 19.3767 72.148 19.0908 72.0353 18.7539C71.9226 18.4169 71.8663 18.0187 71.8663 17.5592C71.8663 17.0078 71.9687 16.5381 72.1737 16.1501C72.3888 15.7519 72.6706 15.4302 73.0189 15.1852C73.3673 14.9401 73.7567 14.7614 74.187 14.6491C74.6173 14.5266 75.0579 14.4653 75.5087 14.4653C75.8366 14.4653 76.1542 14.4909 76.4616 14.5419C76.7792 14.593 77.0661 14.6644 77.3223 14.7563C77.5784 14.838 77.7833 14.935 77.937 15.0473C78.0497 15.1188 78.1419 15.1954 78.2137 15.2771C78.2854 15.3588 78.3212 15.4405 78.3212 15.5221C78.3212 15.6243 78.3007 15.757 78.2598 15.9204C78.229 16.0735 78.1829 16.2267 78.1214 16.3799C78.0702 16.533 78.0036 16.6606 77.9216 16.7628C77.8397 16.8649 77.7526 16.9159 77.6604 16.9159C77.5374 16.9159 77.3735 16.8802 77.1686 16.8087C76.9739 16.727 76.7382 16.6504 76.4616 16.579C76.1952 16.4973 75.8929 16.4564 75.5548 16.4564C75.2679 16.4564 75.0272 16.4922 74.8325 16.5636C74.6378 16.6351 74.4892 16.7423 74.3868 16.8853C74.2946 17.018 74.2485 17.1916 74.2485 17.406C74.2485 17.6613 74.3253 17.8757 74.479 18.0493C74.6327 18.2127 74.8376 18.3556 75.0938 18.4782C75.3601 18.5905 75.6419 18.713 75.939 18.8457C76.2567 18.9785 76.5794 19.1265 76.9073 19.2899C77.2352 19.4533 77.5374 19.6575 77.8141 19.9026C78.0907 20.1374 78.311 20.4386 78.4749 20.8062C78.6491 21.1636 78.7362 21.6129 78.7362 22.154C78.7362 22.7565 78.6337 23.267 78.4288 23.6857C78.2341 24.1043 77.9677 24.4412 77.6296 24.6965C77.2915 24.9518 76.9175 25.1407 76.5077 25.2632C76.0979 25.3755 75.6829 25.4317 75.2628 25.4317Z" fill="black"/>
<path d="M80.9493 25.3398C80.6317 25.3398 80.396 25.299 80.2424 25.2173C80.0989 25.1254 80.0272 24.9977 80.0272 24.8344V15.0627C80.0272 14.8993 80.0989 14.7768 80.2424 14.6951C80.396 14.6032 80.6317 14.5572 80.9493 14.5572H81.4872C81.8151 14.5572 82.0508 14.6032 82.1942 14.6951C82.3377 14.7768 82.4094 14.8993 82.4094 15.0627V24.8344C82.4094 24.9977 82.3377 25.1254 82.1942 25.2173C82.0508 25.299 81.8151 25.3398 81.4872 25.3398H80.9493Z" fill="black"/>
<path d="M89.1287 25.4317C87.4074 25.4317 86.1318 24.9875 85.3019 24.0992C84.4822 23.2006 84.0723 21.8069 84.0723 19.9179C84.0723 18.0902 84.5027 16.727 85.3633 15.8285C86.224 14.9197 87.5047 14.4653 89.2056 14.4653C89.4515 14.4653 89.7025 14.4806 89.9587 14.5113C90.225 14.5317 90.4863 14.5674 90.7425 14.6185C90.9986 14.6695 91.2343 14.7308 91.4494 14.8023C91.6749 14.8738 91.8644 14.9554 92.0181 15.0473C92.141 15.1188 92.2384 15.1954 92.3101 15.2771C92.3818 15.3588 92.4177 15.4456 92.4177 15.5375C92.4177 15.6396 92.3869 15.7723 92.3255 15.9357C92.2742 16.0888 92.2025 16.242 92.1103 16.3952C92.0283 16.5483 91.9361 16.676 91.8337 16.7781C91.7312 16.8802 91.6339 16.9312 91.5417 16.9312C91.4187 16.9312 91.2855 16.9108 91.1421 16.87C90.9986 16.8189 90.8347 16.7679 90.6503 16.7168C90.4658 16.6555 90.2507 16.6045 90.0048 16.5636C89.7691 16.5126 89.4873 16.4871 89.1595 16.4871C88.2578 16.4871 87.5867 16.773 87.1461 17.3448C86.7158 17.9166 86.5006 18.7794 86.5006 19.9332C86.5006 20.8011 86.598 21.4903 86.7926 22.0009C86.9873 22.5114 87.2793 22.879 87.6687 23.1036C88.058 23.3181 88.5447 23.4253 89.1287 23.4253C89.4054 23.4253 89.6769 23.4049 89.9433 23.364C90.2097 23.3232 90.4556 23.267 90.681 23.1955C90.9167 23.1241 91.1011 23.0475 91.2343 22.9658L90.4812 24.0992V21.0053H88.8982C88.5908 21.0053 88.4371 20.7501 88.4371 20.2395V19.7954C88.4371 19.2848 88.5908 19.0295 88.8982 19.0295H92.1872C92.5663 19.0295 92.7558 19.2338 92.7558 19.6422V24.2064C92.7558 24.3391 92.7148 24.4617 92.6329 24.574C92.5611 24.6761 92.4433 24.768 92.2794 24.8497C92.0744 24.962 91.7978 25.0641 91.4494 25.156C91.1011 25.2377 90.722 25.3041 90.3121 25.3551C89.9125 25.4062 89.5181 25.4317 89.1287 25.4317Z" fill="black"/>
<path d="M95.6279 25.3398C95.3102 25.3398 95.0746 25.299 94.9209 25.2173C94.7775 25.1254 94.7057 24.9977 94.7057 24.8344V15.0627C94.7057 14.8993 94.7775 14.7768 94.9209 14.6951C95.0746 14.6032 95.3102 14.5572 95.6279 14.5572H96.1504C96.3348 14.5572 96.4885 14.5725 96.6115 14.6032C96.7447 14.6236 96.8625 14.6695 96.965 14.741C97.0777 14.8125 97.1853 14.9248 97.2877 15.078L100.93 20.362C101.043 20.5152 101.15 20.6888 101.253 20.8828C101.355 21.0768 101.453 21.2555 101.545 21.4189L101.606 21.4035C101.596 21.23 101.581 21.0462 101.56 20.8522C101.55 20.648 101.545 20.4335 101.545 20.2089V15.0627C101.545 14.8993 101.617 14.7768 101.76 14.6951C101.914 14.6032 102.149 14.5572 102.467 14.5572H102.836C103.164 14.5572 103.399 14.6032 103.543 14.6951C103.686 14.7768 103.758 14.8993 103.758 15.0627V24.8344C103.758 24.9977 103.686 25.1254 103.543 25.2173C103.399 25.299 103.164 25.3398 102.836 25.3398H102.313C102.16 25.3398 102.021 25.3296 101.898 25.3092C101.775 25.2887 101.663 25.253 101.56 25.202C101.468 25.1407 101.381 25.0488 101.299 24.9263L97.5336 19.4584C97.4312 19.3052 97.3236 19.1317 97.2109 18.9376C97.1084 18.7436 97.0111 18.565 96.9189 18.4016L96.8574 18.4169C96.8779 18.5905 96.8933 18.7794 96.9035 18.9836C96.9137 19.1776 96.9189 19.3869 96.9189 19.6116V24.8344C96.9189 24.9977 96.8471 25.1254 96.7037 25.2173C96.5603 25.299 96.3246 25.3398 95.9967 25.3398H95.6279Z" fill="black"/>
<path d="M110.378 25.4317C108.8 25.4317 107.581 24.962 106.72 24.0226C105.87 23.073 105.445 21.715 105.445 19.9485C105.445 18.1821 105.87 16.8291 106.72 15.8897C107.581 14.9401 108.8 14.4653 110.378 14.4653C111.966 14.4653 113.18 14.9401 114.021 15.8897C114.871 16.8291 115.296 18.1821 115.296 19.9485C115.296 21.715 114.871 23.073 114.021 24.0226C113.18 24.962 111.966 25.4317 110.378 25.4317ZM110.378 23.4253C111.198 23.4253 111.818 23.1343 112.238 22.5523C112.658 21.96 112.868 21.0921 112.868 19.9485C112.868 18.7947 112.658 17.9268 112.238 17.3448C111.818 16.7628 111.198 16.4717 110.378 16.4717C109.559 16.4717 108.934 16.7628 108.503 17.3448C108.083 17.9268 107.873 18.7947 107.873 19.9485C107.873 21.0921 108.083 21.96 108.503 22.5523C108.934 23.1343 109.559 23.4253 110.378 23.4253Z" fill="black"/>
<path d="M121.743 25.4317C120.021 25.4317 118.746 24.9875 117.916 24.0992C117.096 23.2006 116.686 21.8069 116.686 19.9179C116.686 18.0902 117.117 16.727 117.977 15.8285C118.838 14.9197 120.119 14.4653 121.82 14.4653C122.147 14.4653 122.486 14.4909 122.834 14.5419C123.193 14.5828 123.531 14.6491 123.848 14.741C124.166 14.8227 124.427 14.9248 124.632 15.0473C124.755 15.1188 124.852 15.1954 124.924 15.2771C124.996 15.3588 125.032 15.4456 125.032 15.5375C125.032 15.6396 125.006 15.7723 124.955 15.9357C124.914 16.0888 124.857 16.242 124.786 16.3952C124.714 16.5483 124.632 16.676 124.54 16.7781C124.448 16.8802 124.355 16.9312 124.263 16.9312C124.14 16.9312 123.966 16.8955 123.741 16.824C123.515 16.7423 123.239 16.6658 122.911 16.5943C122.593 16.5228 122.214 16.4871 121.773 16.4871C121.169 16.4871 120.667 16.6147 120.267 16.87C119.878 17.1252 119.586 17.5081 119.391 18.0187C119.207 18.5292 119.115 19.1674 119.115 19.9332C119.115 20.699 119.212 21.3423 119.407 21.863C119.601 22.3736 119.893 22.7616 120.283 23.0271C120.672 23.2925 121.159 23.4253 121.743 23.4253C122.112 23.4253 122.445 23.3946 122.742 23.3334C123.039 23.2721 123.3 23.2006 123.526 23.119C123.751 23.0373 123.94 22.9658 124.094 22.9045C124.248 22.8433 124.361 22.8126 124.432 22.8126C124.555 22.8126 124.663 22.8688 124.755 22.9811C124.847 23.0934 124.924 23.2262 124.986 23.3793C125.047 23.5325 125.093 23.6857 125.124 23.8388C125.155 23.9818 125.17 24.0839 125.17 24.1451C125.17 24.3187 125.129 24.4464 125.047 24.528C124.965 24.6097 124.806 24.7169 124.571 24.8497C124.325 24.9824 124.033 25.0947 123.695 25.1866C123.367 25.2683 123.029 25.3296 122.68 25.3704C122.342 25.4113 122.03 25.4317 121.743 25.4317Z" fill="black"/>
<path d="M127.431 25.3398C127.114 25.3398 126.878 25.299 126.724 25.2173C126.581 25.1254 126.509 24.9977 126.509 24.8344V15.2005C126.509 14.7921 126.699 14.5879 127.078 14.5879H130.121C131.473 14.5879 132.457 14.8533 133.072 15.3843C133.697 15.9153 134.009 16.6658 134.009 17.6358C134.009 18.0748 133.943 18.4628 133.81 18.7998C133.687 19.1368 133.497 19.4227 133.241 19.6575C132.995 19.8924 132.682 20.0761 132.303 20.2089V20.2702C132.478 20.3314 132.652 20.4642 132.826 20.6684C133.01 20.8726 133.154 21.1074 133.256 21.3729L134.501 24.4668C134.552 24.5791 134.588 24.6812 134.609 24.7731C134.639 24.865 134.655 24.9416 134.655 25.0028C134.655 25.1356 134.588 25.2275 134.455 25.2785C134.322 25.3194 134.091 25.3398 133.763 25.3398H133.133C132.908 25.3398 132.713 25.3143 132.549 25.2632C132.396 25.202 132.278 25.0743 132.196 24.8803L131.043 22.0928C130.961 21.8783 130.859 21.7048 130.736 21.572C130.623 21.4393 130.469 21.3423 130.275 21.281C130.08 21.2095 129.814 21.1738 129.475 21.1738H128.891V24.8344C128.891 24.9977 128.82 25.1254 128.676 25.2173C128.533 25.299 128.297 25.3398 127.969 25.3398H127.431ZM128.891 19.3205H130.244C130.715 19.3205 131.053 19.2133 131.258 18.9989C131.473 18.7845 131.581 18.4373 131.581 17.9574C131.581 17.4775 131.473 17.1303 131.258 16.9159C131.053 16.7015 130.715 16.5943 130.244 16.5943H128.891V19.3205Z" fill="black"/>
<path d="M135.828 25.3398C135.511 25.3398 135.275 25.3092 135.121 25.2479C134.968 25.1866 134.891 25.1049 134.891 25.0028C134.891 24.962 134.896 24.9212 134.906 24.8803C134.927 24.8293 134.942 24.7782 134.952 24.7272L138.333 14.8789C138.374 14.7665 138.467 14.6849 138.61 14.6338C138.753 14.5828 138.953 14.5572 139.209 14.5572H140.009C140.275 14.5572 140.475 14.5828 140.608 14.6338C140.751 14.6849 140.844 14.7665 140.885 14.8789L144.266 24.7272C144.286 24.7782 144.297 24.8293 144.297 24.8803C144.307 24.9212 144.312 24.962 144.312 25.0028C144.312 25.1049 144.25 25.1866 144.127 25.2479C144.005 25.3092 143.81 25.3398 143.543 25.3398H142.867C142.642 25.3398 142.452 25.3194 142.299 25.2785C142.145 25.2275 142.048 25.1407 142.007 25.0182L139.855 18.4016C139.804 18.2382 139.758 18.0748 139.717 17.9115C139.686 17.7481 139.655 17.5847 139.624 17.4213H139.563C139.532 17.5847 139.496 17.7481 139.455 17.9115C139.425 18.0748 139.384 18.2382 139.332 18.4016L137.15 25.0182C137.109 25.1305 137.027 25.2122 136.904 25.2632C136.781 25.3143 136.627 25.3398 136.443 25.3398H135.828ZM136.981 23.0577V21.2044H142.237V23.0577H136.981Z" fill="black"/>
<path d="M150.064 25.4317C148.343 25.4317 147.067 24.9875 146.237 24.0992C145.418 23.2006 145.008 21.8069 145.008 19.9179C145.008 18.0902 145.438 16.727 146.299 15.8285C147.159 14.9197 148.44 14.4653 150.141 14.4653C150.469 14.4653 150.807 14.4909 151.155 14.5419C151.514 14.5828 151.852 14.6491 152.17 14.741C152.487 14.8227 152.749 14.9248 152.954 15.0473C153.077 15.1188 153.174 15.1954 153.246 15.2771C153.317 15.3588 153.353 15.4456 153.353 15.5375C153.353 15.6396 153.328 15.7723 153.276 15.9357C153.235 16.0888 153.179 16.242 153.107 16.3952C153.036 16.5483 152.954 16.676 152.861 16.7781C152.769 16.8802 152.677 16.9312 152.585 16.9312C152.462 16.9312 152.288 16.8955 152.062 16.824C151.837 16.7423 151.56 16.6658 151.232 16.5943C150.915 16.5228 150.536 16.4871 150.095 16.4871C149.49 16.4871 148.988 16.6147 148.589 16.87C148.199 17.1252 147.907 17.5081 147.713 18.0187C147.528 18.5292 147.436 19.1674 147.436 19.9332C147.436 20.699 147.533 21.3423 147.728 21.863C147.923 22.3736 148.215 22.7616 148.604 23.0271C148.994 23.2925 149.48 23.4253 150.064 23.4253C150.433 23.4253 150.766 23.3946 151.063 23.3334C151.36 23.2721 151.622 23.2006 151.847 23.119C152.072 23.0373 152.262 22.9658 152.416 22.9045C152.569 22.8433 152.682 22.8126 152.754 22.8126C152.877 22.8126 152.984 22.8688 153.077 22.9811C153.169 23.0934 153.246 23.2262 153.307 23.3793C153.369 23.5325 153.415 23.6857 153.445 23.8388C153.476 23.9818 153.491 24.0839 153.491 24.1451C153.491 24.3187 153.451 24.4464 153.369 24.528C153.287 24.6097 153.128 24.7169 152.892 24.8497C152.646 24.9824 152.354 25.0947 152.016 25.1866C151.688 25.2683 151.35 25.3296 151.002 25.3704C150.664 25.4113 150.351 25.4317 150.064 25.4317Z" fill="black"/>
<path d="M157.874 25.3398C157.556 25.3398 157.321 25.299 157.167 25.2173C157.023 25.1356 156.952 25.0131 156.952 24.8497V20.1629L153.893 15.2465C153.852 15.1648 153.822 15.0984 153.801 15.0473C153.77 14.9861 153.755 14.935 153.755 14.8942C153.755 14.7717 153.832 14.6849 153.985 14.6338C154.149 14.5828 154.395 14.5572 154.723 14.5572H155.384C155.681 14.5572 155.896 14.5879 156.03 14.6491C156.163 14.7002 156.275 14.8074 156.368 14.9708L158.627 18.8917H157.735L159.979 14.9708C160.072 14.8074 160.184 14.7002 160.317 14.6491C160.451 14.5879 160.666 14.5572 160.963 14.5572H161.532C161.859 14.5572 162.1 14.5828 162.254 14.6338C162.418 14.6849 162.5 14.7717 162.5 14.8942C162.5 14.935 162.49 14.9861 162.469 15.0473C162.449 15.0984 162.413 15.1648 162.362 15.2465L159.318 20.2089V24.8497C159.318 25.0131 159.247 25.1356 159.103 25.2173C158.96 25.299 158.724 25.3398 158.396 25.3398H157.874Z" fill="black"/>
</svg>
