<svg width="64" height="64" viewBox="0 0 64 64" fill="none" xmlns="http://www.w3.org/2000/svg">
<circle cx="32" cy="32" r="32" fill="url(#paint0_linear_579_3166)"/>
<path d="M45.3278 16.0001C45.1583 16.0037 44.9778 16.1048 44.8902 16.1771L41.8897 18.8428C41.7508 18.9687 41.6691 19.1553 41.6709 19.3427V22.3937L40.7124 23.3517C38.4063 21.2708 35.3489 20.0091 32.0024 20.0091C24.8293 20.0091 19 25.8352 19 33.0045C19 40.1738 24.8293 46 32.0024 46C39.1756 46 45.0048 40.1738 45.0048 33.0045C45.0048 29.6574 43.7348 26.6047 41.65 24.2993L42.6086 23.3413H45.6716C45.8606 23.3403 46.0477 23.2547 46.1717 23.1122L48.8389 20.1132C49.0052 19.9219 49.0477 19.6319 48.9431 19.401C48.8385 19.1701 48.5924 19.0106 48.3388 19.0094H46.005V16.6769C46.0107 16.321 45.6839 15.9945 45.3278 16.0001ZM44.6714 18.1556V19.6759C44.6715 20.0248 44.9891 20.3423 45.3382 20.3423H46.8489L45.3695 22.0084H43.0045V19.6342L44.6714 18.1556ZM32.0024 21.342C34.9895 21.342 37.7123 22.4488 39.7747 24.2888L38.3473 25.7154C36.6484 24.2362 34.4277 23.3413 32.0024 23.3413C26.6706 23.3413 22.334 27.6755 22.334 33.0045C22.334 38.3334 26.6706 42.6678 32.0024 42.6678C37.3343 42.6678 41.6709 38.3334 41.6709 33.0045C41.6709 30.5781 40.7677 28.3617 39.285 26.663L40.7124 25.2364C42.5508 27.2971 43.6713 30.0213 43.6713 33.0045C43.6713 39.4535 38.4548 44.6671 32.0024 44.6671C25.55 44.6671 20.3336 39.4535 20.3336 33.0045C20.3336 26.5556 25.55 21.342 32.0024 21.342ZM32.0024 24.6741C34.0679 24.6741 35.9552 25.4138 37.4097 26.6526L35.7427 28.3187C34.7159 27.4981 33.4148 27.0066 32.0024 27.0066C28.696 27.0066 26.0013 29.6999 26.0013 33.0045C26.0013 36.3092 28.696 39.0024 32.0024 39.0024C35.3089 39.0024 38.0035 36.3092 38.0035 33.0045C38.0035 31.5911 37.5034 30.2931 36.6804 29.2663L38.3473 27.6002C39.5885 29.0543 40.3373 30.9385 40.3373 33.0045C40.3373 37.6131 36.6135 41.335 32.0024 41.335C27.3913 41.335 23.6675 37.6131 23.6675 33.0045C23.6675 28.3959 27.3913 24.6741 32.0024 24.6741ZM32.0024 28.3395C33.0529 28.3395 34.0163 28.6852 34.7946 29.2663L32.8567 31.2031C32.5957 31.0773 32.3092 31.0052 32.0024 31.0052C30.9055 31.0052 30.002 31.9083 30.002 33.0045C30.002 34.1008 30.9055 35.0038 32.0024 35.0038C33.0993 35.0038 34.0028 34.1009 34.0028 33.0045C34.0028 32.6962 33.932 32.4022 33.8048 32.1403L35.7427 30.2034C36.3271 30.9825 36.67 31.9517 36.67 33.0045C36.67 35.5888 34.5881 37.6696 32.0024 37.6696C29.4167 37.6696 27.3349 35.5888 27.3349 33.0045C27.3349 30.4202 29.4167 28.3395 32.0024 28.3395ZM32.3775 33.546C32.3632 33.556 32.3511 33.5687 32.3358 33.5773C32.3501 33.5673 32.3642 33.557 32.3775 33.546Z" fill="black"/>
<defs>
<linearGradient id="paint0_linear_579_3166" x1="32" y1="0" x2="32" y2="64" gradientUnits="userSpaceOnUse">
<stop stop-color="#F8C70C"/>
<stop offset="1" stop-color="#F8C70C"/>
</linearGradient>
</defs>
</svg>
