<svg width="160" height="40" viewBox="0 0 160 40" fill="none" xmlns="http://www.w3.org/2000/svg">
<path d="M9.52847 2.1817L13.6749 19.6853V0.441475C14.0037 0.354691 14.336 0.278263 14.6716 0.21251V19.6871L19.3352 0C19.6713 0.0344154 20.0047 0.0794465 20.3351 0.134795L15.6339 19.9805L24.9787 1.67256C25.2832 1.82748 25.5831 1.99183 25.8781 2.1653L16.4983 20.5416L29.8891 5.3951C30.1305 5.65334 30.3655 5.91917 30.5938 6.19227L17.2011 21.341L33.4492 10.7302C33.6025 11.0639 33.7478 11.4031 33.8847 11.7475L17.7029 22.315L35.2434 16.9988C35.2924 17.3725 35.3322 17.7496 35.3626 18.1297L17.9576 23.4048L35.1744 23.4048C35.1163 23.7844 35.0487 24.1602 34.9719 24.5321L17.955 24.5321L33.4327 29.2231C33.2738 29.5674 33.1062 29.9058 32.9304 30.238L17.7014 25.6224L30.4211 33.929C30.1803 34.2091 29.9324 34.4812 29.6776 34.7451L17.2042 26.5994L26.6426 37.2752C26.344 37.4725 26.0399 37.6602 25.7306 37.838L16.4984 27.3954L22.5474 39.2462C22.2163 39.3521 21.8811 39.4474 21.5424 39.5317L15.6345 27.9573L18.4829 39.9816C18.229 39.9938 17.9737 40 17.7172 40C17.6296 40 17.5422 39.9993 17.4549 39.9978L14.6715 28.2481V39.705C14.336 39.6393 14.0037 39.5629 13.6749 39.4761V28.25L11.2207 38.61C10.9077 38.4704 10.599 38.321 10.295 38.1622L12.7118 27.9598L8.17494 36.8482C7.89407 36.6448 7.6186 36.4326 7.34885 36.2121L11.8501 27.3935L5.54641 34.5237C5.30497 34.2654 5.06995 33.9996 4.84164 33.7266L11.1433 26.5987L3.3492 31.6886C3.15418 31.3835 2.96656 31.0719 2.78665 30.7542L10.6485 25.6201L1.62427 28.3551C1.4838 28.0113 1.3517 27.6621 1.22826 27.3081L10.3874 24.5321L0.462441 24.5321C0.385697 24.1602 0.318109 23.7844 0.259959 23.4048L10.3847 23.4048L0.000954439 20.2577C-0.000331409 20.1582 -0.000976562 20.0586 -0.000976562 19.9588C-0.000976562 19.6694 0.0044472 19.3814 0.015186 19.0949L10.6471 22.3173L0.41268 15.6337C0.487201 15.2505 0.571417 14.8714 0.665023 14.4968L11.1465 21.3417L1.91044 10.8947C2.06758 10.5448 2.23352 10.2008 2.40795 9.86317L11.8502 20.5434L4.64583 6.42902C4.87911 6.14083 5.11974 5.86037 5.36739 5.58804L12.7124 19.978L8.63123 2.74972C8.9249 2.55092 9.22409 2.36146 9.52847 2.1817Z" fill="black"/>
<path d="M46.5879 28.9853H50.444V21.4097H58.1337V17.5581H50.444V14.3187H58.6298V10.4927H46.5879V28.9853Z" fill="black"/>
<path d="M65.1837 18.1193C66.6495 18.1193 67.8221 19.1396 67.8221 22.0729C67.8221 24.9552 66.6946 26.052 65.1837 26.052C63.6728 26.052 62.5453 24.9552 62.5453 22.0729C62.5453 19.1396 63.7179 18.1193 65.1837 18.1193ZM65.1837 14.8544C61.8237 14.8544 58.7568 17.099 58.7568 22.0729C58.7568 27.0467 61.8237 29.3169 65.1837 29.3169C68.5437 29.3169 71.6105 27.0467 71.6105 22.0729C71.6105 17.099 68.5437 14.8544 65.1837 14.8544Z" fill="black"/>
<path d="M78.7553 14.8544C75.0796 14.8544 72.554 17.6857 72.554 22.0474C72.554 26.4091 74.7639 29.3169 78.7553 29.3169C81.1908 29.3169 84.0998 28.016 84.9341 23.9349H81.4614C81.1908 25.2357 80.3564 26.052 78.9808 26.052C77.6504 26.052 76.3424 25.0572 76.3424 22.0729C76.3424 19.1396 77.6504 18.1193 78.9808 18.1193C80.0858 18.1193 80.9653 18.6804 81.3035 20.2874H84.7763C84.0547 16.1552 81.281 14.8544 78.7553 14.8544Z" fill="black"/>
<path d="M93.677 20.4149C88.964 20.823 85.6039 21.9198 85.6039 25.2867C85.6039 27.7864 87.4982 29.3169 89.7983 29.3169C91.5347 29.3169 92.9779 28.7812 93.8799 27.3273L93.925 28.9853H97.5782C97.3978 28.118 97.3076 26.5111 97.3076 25.0062V23.5778L97.3527 20.5935C97.4204 16.4358 95.4359 14.8289 91.9406 14.8289C88.3325 14.8289 86.1677 17.1245 85.9873 19.7007H89.4601C89.6179 18.3743 90.4297 17.6857 91.6249 17.6857C92.9779 17.6857 93.677 18.2468 93.677 19.8793V20.4149ZM93.7672 23.2207C93.7672 25.7459 92.6397 26.4601 91.1513 26.4601C90.1817 26.4601 89.4375 25.8734 89.4375 24.9807C89.4375 23.5013 91.1739 23.1697 93.7672 22.8891V23.2207Z" fill="black"/>
<path d="M102.983 10.4927H99.2623V28.9853H102.983V10.4927Z" fill="black"/>
<path d="M105.355 10.4927V28.9853H109.212V22.583H111.647C115.886 22.583 119.066 21.3842 119.066 16.5123C119.066 11.666 115.886 10.4927 111.647 10.4927H105.355ZM111.76 14.1657C113.564 14.1657 114.984 14.5738 114.984 16.5123C114.984 18.4509 113.564 18.91 111.76 18.91H109.212V14.1657H111.76Z" fill="black"/>
<path d="M125.603 18.1193C127.069 18.1193 128.241 19.1396 128.241 22.0729C128.241 24.9552 127.114 26.052 125.603 26.052C124.092 26.052 122.964 24.9552 122.964 22.0729C122.964 19.1396 124.137 18.1193 125.603 18.1193ZM125.603 14.8544C122.243 14.8544 119.176 17.099 119.176 22.0729C119.176 27.0467 122.243 29.3169 125.603 29.3169C128.963 29.3169 132.03 27.0467 132.03 22.0729C132.03 17.099 128.963 14.8544 125.603 14.8544Z" fill="black"/>
<path d="M133.519 15.2625V28.9853H137.262V15.2625H133.519ZM133.519 10.4927V13.8596H137.239V10.4927H133.519Z" fill="black"/>
<path d="M143.197 15.2625H139.476V28.9853H143.197V21.9453C143.197 19.3946 143.851 18.2213 145.452 18.2213C147.256 18.2213 147.323 19.8282 147.323 21.7923V28.9853H151.044V20.7465C151.044 17.0225 150.075 14.9564 146.963 14.9564C145.046 14.9564 143.738 16.0532 143.197 17.0735V15.2625Z" fill="black"/>
<path d="M153.617 15.2625H151.7V18.2468H153.617V25.1337C153.617 28.3221 154.632 28.9853 157.631 28.9853H159.999V25.9499H158.939C157.699 25.9499 157.338 25.6949 157.338 24.394V18.2468H159.999V15.2625H157.338V11.513H153.617V15.2625Z" fill="black"/>
</svg>
