<svg width="161" height="40" viewBox="0 0 161 40" fill="none" xmlns="http://www.w3.org/2000/svg">
<path d="M39.204 18.1543H31.1322C31.1325 18.157 31.1325 18.1598 31.1322 18.1626C30.0886 18.1626 29.0899 18.1563 28.3835 18.1407C28.3835 18.1407 28.6631 18.5937 28.3355 18.5864C27.389 18.5635 27.4349 18.5426 27.3524 18.529C27.0289 18.4779 26.5844 18.29 26.1607 17.3212C25.3645 15.5016 25.2883 14.9712 24.6069 14.5161C24.1819 14.2602 23.8521 13.8723 23.6677 13.4116C23.4736 12.9439 23.3369 12.282 23.291 11.2893C23.2847 11.1347 23.1324 10.6566 22.9497 10.6169C22.5021 10.5219 21.7163 10.665 21.3573 11.8133C21.2801 12.0586 21.1486 12.9523 21.4001 13.6402C21.6205 14.2455 21.8936 14.8302 22.2161 15.3878C22.7609 16.2094 22.1118 16.4119 22.021 16.4119H18.6618C18.4133 16.3943 18.1659 16.4596 17.9585 16.5977C17.6454 16.819 17.3751 17.3066 17.3835 17.6709C17.4002 18.4111 18.018 18.67 18.018 18.9132C18.018 19.0364 17.3647 19.4874 17.3835 20.0396C17.4012 20.5752 18.2037 20.9677 18.092 21.2099C17.9804 21.4521 17.6204 21.8843 17.7738 22.352C17.9512 22.8938 18.5241 22.9648 18.5241 23.2289C18.5241 23.3604 18.4437 23.8813 18.5324 24.0912C18.7244 24.5463 19.4111 24.9764 20.2157 25.0537C21.3636 25.1644 23.2273 25.3669 27.4672 24.5996C27.4985 24.5996 27.6206 24.6079 28.0099 24.6152C28.253 24.6152 27.8784 25.6143 27.8784 25.6143C28.5984 25.6268 29.6128 25.6331 30.6344 25.6341C31.1089 24.9312 31.5047 24.1781 31.8146 23.3886H34.9453C33.8433 29.241 28.4659 33.7915 21.4836 33.7915C13.6674 33.7915 7.36547 27.5874 7.36547 19.9352C7.36285 18.1142 7.71962 16.3106 8.4153 14.6278C9.11099 12.945 10.1319 11.4161 11.4195 10.1289C12.7071 8.84168 14.2361 7.82141 15.9187 7.1266C17.6013 6.43179 19.4044 6.0761 21.2248 6.07995C25.8737 6.07995 29.9436 8.38812 32.2707 11.8874C32.7225 12.4794 33.4603 12.7727 34.3922 12.7727C36.1506 12.7727 37.5666 11.2767 37.5666 9.52707C37.5666 8.50087 36.9624 7.69703 36.3384 6.99445C32.925 2.73932 27.4265 0 21.2248 0C9.65604 0 0.5 9.12514 0.5 19.9979C0.5 31.0052 9.78753 39.9968 21.1622 39.9968C32.7674 39.9968 41.7199 31.1326 41.8316 20.453C41.8233 19.0687 40.9175 18.1543 39.204 18.1543Z" fill="black"/>
<path d="M99.1628 0.00305048C96.2475 -0.00687236 93.3625 0.594654 90.6939 1.76882C88.0252 2.94299 85.6323 4.66372 83.6694 6.82003C83.0421 7.49702 82.4669 8.22044 81.9486 8.98413C79.7055 12.2212 78.504 16.0663 78.5049 20.0051C78.4995 23.3624 77.2684 26.6021 75.0431 29.1151C72.8177 31.6282 69.7514 33.2415 66.4206 33.6517C63.0897 34.0619 59.7238 33.2408 56.9556 31.3428C54.1874 29.4447 52.2076 26.6005 51.3885 23.3448C50.5693 20.089 50.9671 16.6461 52.5072 13.6632C54.0473 10.6803 56.6235 8.36289 59.7516 7.14672C62.8796 5.93055 66.3441 5.89935 69.4935 7.05898C72.6429 8.21862 75.2604 10.4892 76.854 13.4439C77.599 11.0626 78.7388 8.82345 80.2257 6.82003C78.2605 4.66426 75.866 2.94398 73.1961 1.76991C70.5262 0.595828 67.6402 -0.00603382 64.7238 0.00305048C53.3544 0.00305048 44.0669 8.99249 44.0669 20.0051C44.0669 31.0177 53.3544 39.9998 64.7238 39.9998C67.6403 40.0087 70.5263 39.4067 73.1962 38.2324C75.866 37.0581 78.2606 35.3377 80.2257 33.1818C83.528 29.5859 85.3674 24.885 85.3829 20.002C85.3841 16.6417 86.6126 13.3977 88.8373 10.8802C91.062 8.36264 94.1296 6.74503 97.463 6.33165C100.796 5.91826 104.166 6.73758 106.938 8.63549C109.71 10.5334 111.693 13.3791 112.514 16.6373C113.336 19.8956 112.939 23.3417 111.398 26.3277C109.857 29.3136 107.279 31.6335 104.148 32.8509C101.018 34.0684 97.5502 34.0995 94.3981 32.9385C91.2461 31.7774 88.6267 29.5042 87.0327 26.5465C86.3713 28.6714 85.3921 30.684 84.1285 32.5158C83.9793 32.7371 83.829 32.949 83.661 33.1693C85.6249 35.3274 88.0189 37.0499 90.6889 38.2259C93.3589 39.4018 96.2456 40.005 99.1628 39.9967C110.537 39.9967 119.825 31.0062 119.825 20.002C119.825 8.99771 110.533 0.00305048 99.1628 0.00305048Z" fill="black"/>
<path d="M140.419 0.712891H126.484C124.543 0.712891 123.13 2.1264 123.13 4.06814V35.9367C123.13 37.8785 124.543 39.2909 126.484 39.2909H140.419C151.442 39.3254 160.5 30.5969 160.5 20.0019C160.5 9.40689 151.442 0.712891 140.419 0.712891ZM140.419 33.0815H130.004V6.95257H140.419C147.689 6.95257 153.626 12.7924 153.626 20.0019C153.626 27.2114 147.689 33.0815 140.419 33.0815Z" fill="black"/>
</svg>
