<svg width="144" height="40" viewBox="0 0 144 40" fill="none" xmlns="http://www.w3.org/2000/svg">
<path d="M52.9121 15.7702V0.867188H56.0472V7.09515H61.868V0.867188H64.9831V15.7702H61.868V9.4018H56.0472V15.7702H52.9121Z" fill="black"/>
<path d="M71.0632 15.9306C70.3576 15.9306 69.7386 15.7869 69.2061 15.4994C68.6736 15.2119 68.2576 14.8107 67.9581 14.2959C67.6652 13.7811 67.5188 13.1827 67.5188 12.5007C67.5188 11.8188 67.7018 11.2338 68.0679 10.7457C68.4406 10.2576 68.9432 9.8765 69.5755 9.60238C70.0082 9.42186 70.4808 9.28146 70.9933 9.18117C71.5125 9.08088 72.0283 9.01067 72.5409 8.97056C73.06 8.93044 73.5426 8.91039 73.9886 8.91039L74.4978 9.54221L73.9886 10.525C73.7489 10.525 73.4794 10.5418 73.1798 10.5752C72.8803 10.6086 72.5908 10.6588 72.3112 10.7256C72.0383 10.7858 71.8087 10.856 71.6223 10.9362C71.3627 11.0566 71.1297 11.217 70.9234 11.4176C70.7237 11.6182 70.6239 11.9257 70.6239 12.3403C70.6239 12.8818 70.7736 13.283 71.0732 13.5437C71.3727 13.7978 71.7588 13.9248 72.2313 13.9248C72.4776 13.9248 72.7206 13.8914 72.9602 13.8246C73.2065 13.7577 73.4228 13.6808 73.6092 13.5939C73.7955 13.5003 73.922 13.4134 73.9886 13.3331L74.5177 13.965L74.1483 14.8275C73.8488 15.0949 73.4361 15.3456 72.9103 15.5796C72.3911 15.8136 71.7754 15.9306 71.0632 15.9306ZM77.0338 15.7702H74.1483V14.1054H73.9886V8.08801C73.9886 7.51971 73.8388 7.14864 73.5393 6.9748C73.2397 6.79428 72.8104 6.70402 72.2513 6.70402C71.832 6.70402 71.3927 6.74079 70.9334 6.81434C70.4808 6.88789 70.0514 6.98483 69.6454 7.10518C69.2394 7.22553 68.8999 7.3559 68.627 7.49631L67.9681 5.57075C68.1944 5.43703 68.5471 5.27991 69.0264 5.09939C69.5056 4.91887 70.0548 4.76175 70.6738 4.62803C71.2928 4.48763 71.9152 4.41743 72.5409 4.41743C73.5659 4.41743 74.4079 4.53777 75.0669 4.77847C75.7325 5.01916 76.225 5.42701 76.5445 6.002C76.8707 6.57699 77.0338 7.37262 77.0338 8.38888V15.7702Z" fill="black"/>
<path d="M82.7607 8.48917L82.6209 6.34298C82.7407 6.02206 82.9604 5.71784 83.2799 5.43035C83.5994 5.13617 83.9788 4.89882 84.4181 4.7183C84.8574 4.53109 85.32 4.43749 85.8059 4.43749C86.0056 4.43749 86.1886 4.44751 86.355 4.46757C86.5281 4.48763 86.6545 4.52106 86.7344 4.56786V7.54645C86.6412 7.48628 86.4981 7.4261 86.3051 7.36593C86.1121 7.30576 85.8192 7.27567 85.4265 7.27567C84.9472 7.27567 84.5345 7.34587 84.1884 7.48628C83.8423 7.62 83.5494 7.7838 83.3098 7.9777C83.0768 8.1649 82.8938 8.33539 82.7607 8.48917ZM79.8952 15.7702V4.60798H82.531L82.7008 6.35301L82.9404 6.88454V15.7702H79.8952Z" fill="black"/>
<path d="M88.7807 15.7702V4.60798H91.5464L91.5963 5.80142C91.8559 5.60084 92.182 5.39692 92.5747 5.18965C92.9741 4.98239 93.4068 4.80856 93.8727 4.66815C94.3386 4.52106 94.8145 4.44417 95.3004 4.43749C96.0659 4.41743 96.6949 4.54112 97.1875 4.80856C97.68 5.07599 98.0461 5.53064 98.2857 6.17249C98.5254 6.80765 98.6452 7.66346 98.6452 8.73989V15.7702H95.61V9.1912C95.61 8.6162 95.5634 8.16156 95.4702 7.82726C95.377 7.48628 95.2106 7.24224 94.971 7.09515C94.738 6.94806 94.4052 6.8812 93.9725 6.89457C93.6797 6.89457 93.3302 6.96477 92.9242 7.10518C92.5182 7.24558 92.1487 7.45285 91.8159 7.72697V15.7702H88.7807ZM98.5154 7.77712L97.9563 5.88165C98.1693 5.69444 98.4721 5.49052 98.8648 5.26989C99.2642 5.04256 99.7235 4.84867 100.243 4.68821C100.762 4.52106 101.311 4.43749 101.89 4.43749C102.656 4.4308 103.298 4.55783 103.817 4.81858C104.336 5.07934 104.729 5.52729 104.995 6.16246C105.261 6.79763 105.395 7.66011 105.395 8.74992V15.7702H102.339V9.18117C102.339 8.60617 102.293 8.15153 102.2 7.81723C102.113 7.47625 101.95 7.23555 101.71 7.09515C101.477 6.94806 101.141 6.8812 100.702 6.89457C100.323 6.89457 99.9298 6.98817 99.5238 7.17538C99.1244 7.3559 98.7883 7.55648 98.5154 7.77712Z" fill="black"/>
<path d="M112.852 15.9306C111.88 15.9306 111.055 15.7735 110.376 15.4593C109.697 15.1383 109.148 14.7004 108.728 14.1455C108.315 13.5906 108.016 12.9554 107.83 12.24C107.643 11.5179 107.553 10.7557 107.56 9.95339C107.58 8.76329 107.826 7.7604 108.299 6.94472C108.778 6.12903 109.427 5.51058 110.246 5.08937C111.071 4.66815 112.006 4.45754 113.051 4.45754C114.356 4.45754 115.398 4.73167 116.176 5.27991C116.955 5.82816 117.514 6.55693 117.854 7.46622C118.193 8.36882 118.353 9.35166 118.333 10.4147C118.32 11.6115 118.077 12.6211 117.604 13.4435C117.132 14.2591 116.486 14.8776 115.667 15.2988C114.849 15.72 113.91 15.9306 112.852 15.9306ZM112.932 13.7945C113.724 13.8012 114.299 13.5036 114.659 12.9019C115.018 12.3002 115.198 11.4276 115.198 10.2843C115.198 9.60907 115.125 8.99396 114.978 8.43903C114.832 7.88409 114.596 7.43948 114.269 7.10518C113.95 6.77088 113.524 6.60039 112.991 6.5937C112.193 6.58702 111.614 6.8812 111.254 7.47625C110.895 8.06461 110.715 8.91707 110.715 10.0336C110.715 10.7156 110.788 11.3441 110.935 11.9191C111.081 12.4874 111.314 12.942 111.634 13.283C111.96 13.624 112.392 13.7945 112.932 13.7945Z" fill="black"/>
<path d="M120.645 15.7702V4.60798H123.41L123.46 5.86159C123.713 5.64764 124.036 5.43369 124.429 5.21974C124.821 4.9991 125.254 4.81524 125.727 4.66815C126.206 4.52106 126.688 4.44417 127.174 4.43749C128.332 4.41074 129.184 4.72164 129.73 5.37017C130.276 6.01203 130.549 7.14195 130.549 8.75995V15.7702H127.494V9.1912C127.494 8.32202 127.381 7.7136 127.154 7.36593C126.928 7.01826 126.485 6.8578 125.826 6.88454C125.627 6.89123 125.4 6.928 125.147 6.99486C124.901 7.05503 124.648 7.14864 124.389 7.27567C124.136 7.39602 123.899 7.54645 123.68 7.72697V15.7702H120.645Z" fill="black"/>
<path d="M133.245 20.564V18.1571C133.358 18.1972 133.534 18.2373 133.774 18.2774C134.02 18.3175 134.213 18.3376 134.353 18.3376C134.673 18.3376 135.022 18.2774 135.401 18.1571C135.787 18.0434 136.147 17.7826 136.48 17.3748C136.813 16.9736 137.065 16.3452 137.239 15.4894L137.378 15.7702H136.06L132.167 4.59795H135.411L137.318 11.0666L138.217 14.4965H137.798L138.606 11.0666L140.164 4.59795H143.389L139.814 16.061C139.388 17.3982 138.866 18.4111 138.247 19.0998C137.635 19.7884 136.972 20.2498 136.26 20.4838C136.06 20.564 135.804 20.6275 135.491 20.6743C135.185 20.7211 134.916 20.7445 134.683 20.7445C134.583 20.7445 134.426 20.7345 134.213 20.7144C134 20.6944 133.794 20.671 133.594 20.6442C133.401 20.6175 133.285 20.5907 133.245 20.564Z" fill="black"/>
<path d="M52.9121 39.8396V24.9366H56.0472V31.1646H61.868V24.9366H64.9831V39.8396H61.868V33.4712H56.0472V39.8396H52.9121Z" fill="black"/>
<path d="M68.2676 39.8396V28.6774H71.3128V39.8396H68.2676ZM69.6354 27.0627C69.1429 27.0627 68.7269 26.909 68.3874 26.6014C68.0479 26.2939 67.8782 25.8927 67.8782 25.3979C67.8782 25.0636 67.9681 24.7594 68.1478 24.4853C68.3342 24.2045 68.5738 23.9805 68.8666 23.8134C69.1662 23.6462 69.4857 23.5626 69.8251 23.5626C70.3709 23.5626 70.7969 23.7198 71.1031 24.034C71.416 24.3416 71.5724 24.7394 71.5724 25.2274C71.5724 25.7356 71.3794 26.1702 70.9933 26.5312C70.6139 26.8856 70.1613 27.0627 69.6354 27.0627Z" fill="black"/>
<path d="M74.4669 39.8396V23.5426H77.5221V39.8396H74.4669Z" fill="black"/>
<path d="M80.59 39.8396V23.5426H83.6452V39.8396H80.59Z" fill="black"/>
<path d="M86.1141 39.1275L86.4536 36.9713C86.5601 37.0582 86.7764 37.1719 87.1026 37.3123C87.4287 37.4527 87.8181 37.5831 88.2707 37.7034C88.7234 37.8171 89.1893 37.8739 89.6685 37.8739C90.2742 37.8806 90.7202 37.8004 91.0064 37.6332C91.2926 37.4594 91.4357 37.202 91.4357 36.861C91.4357 36.627 91.3392 36.4231 91.1462 36.2492C90.9598 36.0754 90.7036 35.9149 90.3774 35.7678C90.0513 35.6141 89.6885 35.4569 89.2891 35.2965C88.5703 35.009 87.9745 34.6947 87.502 34.3538C87.036 34.0128 86.6866 33.625 86.4536 33.1904C86.2273 32.7491 86.1175 32.2343 86.1241 31.646C86.1308 30.9506 86.3305 30.3723 86.7232 29.911C87.1226 29.4496 87.6517 29.1053 88.3107 28.878C88.9763 28.644 89.7118 28.527 90.5172 28.527C91.3359 28.527 92.0315 28.6038 92.6039 28.7576C93.183 28.9047 93.579 29.0418 93.792 29.1688L93.4626 31.3651C93.3361 31.2582 93.1364 31.1445 92.8635 31.0242C92.5906 30.9038 92.2811 30.8069 91.935 30.7333C91.5955 30.6531 91.2494 30.613 90.8966 30.613C90.251 30.613 89.7784 30.6932 89.4788 30.8537C89.186 31.0074 89.0395 31.2314 89.0395 31.5256C89.0329 31.9067 89.1793 32.1909 89.4788 32.3781C89.785 32.5586 90.2077 32.7625 90.7468 32.9898C91.5456 33.3174 92.2145 33.6451 92.7537 33.9727C93.2995 34.2936 93.7088 34.6647 93.9817 35.0859C94.2613 35.5004 94.4011 36.0085 94.4011 36.6103C94.4011 37.7201 94.005 38.5626 93.2129 39.1376C92.4209 39.7126 91.3525 40 90.008 40C89.4422 40 88.8964 39.9532 88.3706 39.8596C87.8514 39.7727 87.3921 39.6624 86.9928 39.5287C86.6 39.395 86.3072 39.2613 86.1141 39.1275Z" fill="black"/>
<path d="M0.610352 39.5608V21.0681L18.974 39.5608H0.610352Z" fill="black"/>
<path d="M0.610352 18.4921V0L18.974 18.4921H0.610352Z" fill="black"/>
<path d="M22.5488 39.6389V21.1101L40.9125 39.6389H22.5488Z" fill="black"/>
<path d="M22.5488 18.5292V0L40.9125 18.5292H22.5488Z" fill="black"/>
</svg>
