<svg width="157" height="40" viewBox="0 0 157 40" fill="none" xmlns="http://www.w3.org/2000/svg">
<path d="M5.18858 0V18.0666H30.0994V40H25.4108V22.786H0.5V0H5.18858Z" fill="black"/>
<path d="M5.18858 27.436V40.0002H0.5V27.436H5.18858Z" fill="black"/>
<path d="M44.1378 31.7585V15.517H48.669V31.7585H44.1378ZM46.4034 13.2528C45.5708 13.2528 44.893 13.0013 44.3702 12.4981C43.8474 11.995 43.5859 11.3711 43.5859 10.6264C43.5859 9.88176 43.8474 9.25786 44.3702 8.75472C44.893 8.25157 45.5708 8 46.4034 8C47.2361 8 47.9138 8.24151 48.4367 8.72453C48.9595 9.18742 49.2209 9.7912 49.2209 10.5359C49.2209 11.3208 48.9595 11.9748 48.4367 12.4981C47.9332 13.0013 47.2555 13.2528 46.4034 13.2528Z" fill="black"/>
<path d="M62.3726 15.2755C63.6119 15.2755 64.7156 15.5371 65.6839 16.0604C66.6714 16.5635 67.446 17.3484 68.0076 18.4151C68.5691 19.4616 68.8499 20.8101 68.8499 22.4604V31.7585H64.3187V23.1849C64.3187 21.8767 64.0379 20.9107 63.4763 20.2868C62.9341 19.6629 62.1596 19.3509 61.1526 19.3509C60.4361 19.3509 59.7874 19.512 59.2065 19.834C58.645 20.1358 58.1996 20.6088 57.8704 21.2528C57.5606 21.8969 57.4056 22.722 57.4056 23.7283V31.7585H52.8744V15.517H57.2023V20.0151L56.389 18.6566C56.9506 17.5698 57.7542 16.7346 58.7999 16.1509C59.8455 15.5673 61.0364 15.2755 62.3726 15.2755Z" fill="black"/>
<path d="M79.3474 32C77.5078 32 76.0749 31.517 75.0486 30.5509C74.0223 29.5648 73.5091 28.1057 73.5091 26.1736V11.9245H78.0404V26.1132C78.0404 26.7975 78.2146 27.3308 78.5632 27.7132C78.9117 28.0755 79.3862 28.2566 79.9865 28.2566C80.7029 28.2566 81.3129 28.0553 81.8164 27.6528L83.0363 30.9736C82.5716 31.3157 82.01 31.5774 81.3516 31.7585C80.7126 31.9195 80.0446 32 79.3474 32ZM71.0983 19.5019V15.8792H81.9326V19.5019H71.0983Z" fill="black"/>
<path d="M91.8074 32C90.3357 32 89.0093 31.6579 87.8281 30.9736C86.6468 30.2692 85.7077 29.2931 85.0106 28.0453C84.3328 26.7975 83.9939 25.3283 83.9939 23.6377C83.9939 21.927 84.3328 20.4478 85.0106 19.2C85.7077 17.9522 86.6468 16.9862 87.8281 16.3019C89.0093 15.6176 90.3357 15.2755 91.8074 15.2755C93.1242 15.2755 94.2764 15.5774 95.2639 16.1811C96.2515 16.7849 97.0164 17.7006 97.5586 18.9283C98.1008 20.156 98.3719 21.7258 98.3719 23.6377C98.3719 25.5296 98.1105 27.0994 97.5876 28.3472C97.0648 29.5748 96.3096 30.4906 95.322 31.0943C94.3538 31.6981 93.1823 32 91.8074 32ZM92.5917 28.1359C93.3275 28.1359 93.9956 27.9547 94.5959 27.5925C95.1962 27.2302 95.6706 26.717 96.0191 26.0528C96.3871 25.3686 96.571 24.5635 96.571 23.6377C96.571 22.6918 96.3871 21.8868 96.0191 21.2226C95.6706 20.5585 95.1962 20.0453 94.5959 19.683C93.9956 19.3208 93.3275 19.1396 92.5917 19.1396C91.8365 19.1396 91.1587 19.3208 90.5584 19.683C89.9581 20.0453 89.474 20.5585 89.1061 21.2226C88.7575 21.8868 88.5833 22.6918 88.5833 23.6377C88.5833 24.5635 88.7575 25.3686 89.1061 26.0528C89.474 26.717 89.9581 27.2302 90.5584 27.5925C91.1587 27.9547 91.8365 28.1359 92.5917 28.1359ZM96.6872 31.7585V28.4377L96.7743 23.6075L96.4839 18.8075V9.35849H101.015V31.7585H96.6872Z" fill="black"/>
<path d="M112.964 32C111.183 32 109.614 31.6377 108.259 30.9132C106.923 30.1887 105.887 29.2025 105.151 27.9547C104.415 26.6868 104.047 25.2478 104.047 23.6377C104.047 22.0075 104.405 20.5686 105.122 19.3208C105.858 18.0528 106.855 17.0667 108.114 16.3623C109.372 15.6377 110.795 15.2755 112.383 15.2755C113.913 15.2755 115.288 15.6176 116.508 16.3019C117.747 16.966 118.725 17.9321 119.442 19.2C120.158 20.4478 120.516 21.9472 120.516 23.6981C120.516 23.8792 120.507 24.0906 120.487 24.3321C120.468 24.5535 120.449 24.7648 120.429 24.966H107.736V22.2189H118.047L116.305 23.034C116.305 22.1887 116.14 21.4541 115.811 20.8302C115.482 20.2063 115.027 19.7233 114.446 19.3811C113.865 19.0189 113.187 18.8377 112.412 18.8377C111.638 18.8377 110.95 19.0189 110.35 19.3811C109.769 19.7233 109.314 20.2164 108.985 20.8604C108.656 21.4843 108.491 22.2289 108.491 23.0943V23.8189C108.491 24.7044 108.675 25.4893 109.043 26.1736C109.43 26.8377 109.963 27.3509 110.641 27.7132C111.338 28.0553 112.151 28.2264 113.08 28.2264C113.913 28.2264 114.639 28.0956 115.259 27.834C115.898 27.5723 116.479 27.1799 117.002 26.6566L119.413 29.3736C118.696 30.2189 117.796 30.873 116.711 31.3358C115.627 31.7786 114.378 32 112.964 32Z" fill="black"/>
<path d="M131.085 32C129.4 32 127.9 31.6478 126.583 30.9434C125.266 30.2189 124.23 29.2226 123.475 27.9547C122.739 26.6868 122.371 25.2478 122.371 23.6377C122.371 22.0075 122.739 20.5686 123.475 19.3208C124.23 18.0528 125.266 17.0667 126.583 16.3623C127.9 15.6377 129.4 15.2755 131.085 15.2755C132.731 15.2755 134.164 15.6377 135.384 16.3623C136.604 17.0667 137.504 18.083 138.085 19.4113L134.571 21.3736C134.164 20.6088 133.651 20.0453 133.031 19.683C132.431 19.3208 131.773 19.1396 131.056 19.1396C130.281 19.1396 129.584 19.3208 128.965 19.683C128.345 20.0453 127.851 20.5585 127.483 21.2226C127.135 21.8868 126.961 22.6918 126.961 23.6377C126.961 24.5836 127.135 25.3887 127.483 26.0528C127.851 26.717 128.345 27.2302 128.965 27.5925C129.584 27.9547 130.281 28.1359 131.056 28.1359C131.773 28.1359 132.431 27.9648 133.031 27.6226C133.651 27.2604 134.164 26.6868 134.571 25.9019L138.085 27.8943C137.504 29.2025 136.604 30.2189 135.384 30.9434C134.164 31.6478 132.731 32 131.085 32Z" fill="black"/>
<path d="M147.932 32C146.266 32 144.785 31.6377 143.487 30.9132C142.209 30.1887 141.193 29.2025 140.438 27.9547C139.702 26.6868 139.334 25.2478 139.334 23.6377C139.334 22.0075 139.702 20.5686 140.438 19.3208C141.193 18.0528 142.209 17.0667 143.487 16.3623C144.785 15.6377 146.266 15.2755 147.932 15.2755C149.577 15.2755 151.049 15.6377 152.347 16.3623C153.644 17.0667 154.661 18.0428 155.396 19.2906C156.132 20.5384 156.5 21.9874 156.5 23.6377C156.5 25.2478 156.132 26.6868 155.396 27.9547C154.661 29.2025 153.644 30.1887 152.347 30.9132C151.049 31.6377 149.577 32 147.932 32ZM147.932 28.1359C148.687 28.1359 149.364 27.9547 149.965 27.5925C150.565 27.2302 151.039 26.717 151.388 26.0528C151.737 25.3686 151.911 24.5635 151.911 23.6377C151.911 22.6918 151.737 21.8868 151.388 21.2226C151.039 20.5585 150.565 20.0453 149.965 19.683C149.364 19.3208 148.687 19.1396 147.932 19.1396C147.176 19.1396 146.499 19.3208 145.898 19.683C145.298 20.0453 144.814 20.5585 144.446 21.2226C144.097 21.8868 143.923 22.6918 143.923 23.6377C143.923 24.5635 144.097 25.3686 144.446 26.0528C144.814 26.717 145.298 27.2302 145.898 27.5925C146.499 27.9547 147.176 28.1359 147.932 28.1359Z" fill="black"/>
</svg>
