<svg width="68" height="68" viewBox="0 0 68 68" fill="none" xmlns="http://www.w3.org/2000/svg">
<g filter="url(#filter0_d_579_3156)">
<rect x="6" y="6" width="56" height="56" rx="28" fill="white"/>
<path d="M28.0793 44C27.7339 43.9994 27.3946 43.9119 27.0948 43.7462C26.4197 43.3766 26 42.6592 26 41.8804V26.1197C26 25.3387 26.4197 24.6235 27.0948 24.2539C27.4017 24.0835 27.7504 23.9958 28.1044 24.0002C28.4584 24.0045 28.8047 24.1005 29.1071 24.2784L43.0506 32.3414C43.3412 32.5174 43.5808 32.7618 43.7468 33.0518C43.9129 33.3417 44 33.6676 44 33.999C44 34.3303 43.9129 34.6562 43.7468 34.9462C43.5808 35.2361 43.3412 35.4805 43.0506 35.6566L29.1049 43.7217C28.7954 43.9025 28.4409 43.9987 28.0793 44Z" fill="#22631B"/>
</g>
<defs>
<filter id="filter0_d_579_3156" x="0" y="0" width="68" height="68" filterUnits="userSpaceOnUse" color-interpolation-filters="sRGB">
<feFlood flood-opacity="0" result="BackgroundImageFix"/>
<feColorMatrix in="SourceAlpha" type="matrix" values="0 0 0 0 0 0 0 0 0 0 0 0 0 0 0 0 0 0 127 0" result="hardAlpha"/>
<feMorphology radius="6" operator="dilate" in="SourceAlpha" result="effect1_dropShadow_579_3156"/>
<feOffset/>
<feComposite in2="hardAlpha" operator="out"/>
<feColorMatrix type="matrix" values="0 0 0 0 1 0 0 0 0 1 0 0 0 0 1 0 0 0 0.4 0"/>
<feBlend mode="normal" in2="BackgroundImageFix" result="effect1_dropShadow_579_3156"/>
<feBlend mode="normal" in="SourceGraphic" in2="effect1_dropShadow_579_3156" result="shape"/>
</filter>
</defs>
</svg>
