<svg width="160" height="40" viewBox="0 0 160 40" fill="none" xmlns="http://www.w3.org/2000/svg">
<path d="M18.0088 3.75C25.5238 3.75022 32.2676 10.646 32.2676 20C32.2676 29.354 25.5238 36.2498 18.0088 36.25C10.4937 36.25 3.74902 29.3541 3.74902 20C3.74902 10.6459 10.4937 3.75 18.0088 3.75Z" stroke="black" stroke-width="7.5"/>
<path d="M59.5962 16.412C59.5962 17.4573 59.3693 18.4373 58.9154 19.352C58.4784 20.2667 57.7808 21.004 56.8227 21.564C55.8815 22.124 54.688 22.404 53.2425 22.404H50.2925V29.908H46.7627V10.364H53.2425C54.604 10.364 55.7638 10.6253 56.7219 11.148C57.68 11.6707 58.3944 12.3893 58.865 13.304C59.3525 14.2187 59.5962 15.2547 59.5962 16.412ZM53.0912 19.24C54.0661 19.24 54.7889 18.9973 55.2595 18.512C55.7302 18.008 55.9655 17.308 55.9655 16.412C55.9655 14.508 55.0074 13.556 53.0912 13.556H50.2925V19.24H53.0912Z" fill="black"/>
<path d="M67.2962 30.16C65.9515 30.16 64.7413 29.8333 63.6656 29.18C62.5898 28.508 61.7409 27.5653 61.119 26.352C60.5139 25.1387 60.2114 23.7387 60.2114 22.152C60.2114 20.5653 60.5223 19.1653 61.1442 17.952C61.783 16.7387 62.6486 15.8053 63.7412 15.152C64.8338 14.48 66.0524 14.144 67.3971 14.144C68.7418 14.144 69.9604 14.48 71.053 15.152C72.1456 15.8053 73.0028 16.7387 73.6247 17.952C74.2635 19.1653 74.5828 20.5653 74.5828 22.152C74.5828 23.7387 74.2551 25.1387 73.5995 26.352C72.9608 27.5653 72.0867 28.508 70.9774 29.18C69.8848 29.8333 68.6578 30.16 67.2962 30.16ZM67.2962 26.744C67.935 26.744 68.5317 26.576 69.0864 26.24C69.6579 25.8853 70.1117 25.3627 70.4479 24.672C70.7841 23.9813 70.9522 23.1413 70.9522 22.152C70.9522 20.6773 70.5992 19.548 69.8932 18.764C69.204 17.9613 68.3552 17.56 67.3467 17.56C66.3381 17.56 65.4893 17.9613 64.8001 18.764C64.1278 19.548 63.7916 20.6773 63.7916 22.152C63.7916 23.6267 64.1194 24.7653 64.7749 25.568C65.4473 26.352 66.2877 26.744 67.2962 26.744Z" fill="black"/>
<path d="M79.6934 9.18799V29.908H76.1636V9.18799H79.6934Z" fill="black"/>
<path d="M95.5354 14.396L86.8873 37.244H83.1305L86.1561 29.516L80.5588 14.396H84.5172L88.1227 25.232L91.7786 14.396H95.5354Z" fill="black"/>
<path d="M113.776 14.172C115.491 14.172 116.869 14.76 117.911 15.936C118.97 17.0933 119.5 18.7173 119.5 20.808V29.908H115.97V21.34C115.97 20.1267 115.692 19.2027 115.138 18.568C114.583 17.9147 113.827 17.588 112.869 17.588C111.911 17.588 111.146 17.9147 110.574 18.568C110.02 19.2027 109.742 20.1267 109.742 21.34V29.908H106.212V21.34C106.212 20.1267 105.935 19.2027 105.38 18.568C104.826 17.9147 104.069 17.588 103.111 17.588C102.136 17.588 101.363 17.9147 100.792 18.568C100.237 19.2027 99.9595 20.1267 99.9595 21.34V29.908H96.4296V14.396H99.9595V16.272C100.413 15.6187 100.993 15.1053 101.699 14.732C102.422 14.3587 103.212 14.172 104.069 14.172C105.162 14.172 106.137 14.4333 106.994 14.956C107.851 15.46 108.515 16.188 108.986 17.14C109.44 16.244 110.095 15.5253 110.952 14.984C111.826 14.4427 112.768 14.172 113.776 14.172Z" fill="black"/>
<path d="M120.933 22.096C120.933 20.528 121.21 19.1373 121.765 17.924C122.337 16.7107 123.101 15.7773 124.06 15.124C125.034 14.4707 126.119 14.144 127.312 14.144C128.354 14.144 129.262 14.3773 130.035 14.844C130.825 15.3107 131.455 15.8987 131.926 16.608V14.396H135.481V29.908H131.926V27.64C131.472 28.368 130.842 28.9747 130.035 29.46C129.245 29.9267 128.329 30.16 127.287 30.16C126.11 30.16 125.034 29.824 124.06 29.152C123.101 28.48 122.337 27.5373 121.765 26.324C121.21 25.092 120.933 23.6827 120.933 22.096ZM131.926 22.152C131.926 21.2 131.758 20.388 131.422 19.716C131.086 19.0253 130.632 18.5027 130.06 18.148C129.489 17.7747 128.875 17.588 128.22 17.588C127.564 17.588 126.959 17.7653 126.404 18.12C125.85 18.4747 125.396 18.9973 125.043 19.688C124.707 20.36 124.539 21.1627 124.539 22.096C124.539 23.0293 124.707 23.8507 125.043 24.56C125.396 25.2507 125.85 25.7827 126.404 26.156C126.976 26.5293 127.581 26.716 128.22 26.716C128.875 26.716 129.489 26.5387 130.06 26.184C130.632 25.8107 131.086 25.288 131.422 24.616C131.758 23.9253 131.926 23.104 131.926 22.152Z" fill="black"/>
<path d="M142.03 17.616V25.12C142.03 25.6427 142.139 26.0253 142.358 26.268C142.593 26.492 142.979 26.604 143.517 26.604H145.156V29.908H142.937C139.962 29.908 138.475 28.3027 138.475 25.092V17.616H136.811V14.396H138.475V10.56H142.03V14.396H145.156V17.616H142.03Z" fill="black"/>
<path d="M154.553 14.172C155.612 14.172 156.553 14.4333 157.377 14.956C158.201 15.46 158.839 16.216 159.293 17.224C159.764 18.2133 159.999 19.408 159.999 20.808V29.908H156.469V21.34C156.469 20.108 156.192 19.1653 155.637 18.512C155.083 17.84 154.326 17.504 153.368 17.504C152.393 17.504 151.62 17.84 151.048 18.512C150.494 19.1653 150.216 20.108 150.216 21.34V29.908H146.687V9.18799H150.216V16.328C150.67 15.656 151.275 15.1333 152.032 14.76C152.788 14.368 153.629 14.172 154.553 14.172Z" fill="black"/>
</svg>
