<svg width="65" height="64" viewBox="0 0 65 64" fill="none" xmlns="http://www.w3.org/2000/svg">
<circle cx="32.667" cy="32" r="32" fill="url(#paint0_linear_579_3199)"/>
<path d="M47.6567 31.3682C47.6567 31.1437 47.6043 30.9148 47.4995 30.7022L43.6835 23.1055C43.4302 22.6001 42.9264 22.3102 42.4081 22.3102C42.1882 22.3102 41.9655 22.3637 41.7558 22.4708L39.4307 23.6883C38.9939 23.9173 38.7216 24.3394 38.6619 24.8003C37.5932 24.6398 35.7922 24.4301 34.0524 24.4272C33.2167 24.4272 32.3941 24.4762 31.6632 24.61C30.9323 24.7498 30.2844 24.9594 29.785 25.3741C29.4865 25.6254 29.3075 25.8885 29.1662 26.0862C28.9274 25.9673 28.6887 25.8469 28.447 25.7086C28.1325 25.5347 27.8355 25.3518 27.5486 25.1645C27.4059 25.0738 27.2691 24.9787 27.1337 24.8836C27.1904 24.723 27.2239 24.5565 27.2239 24.393C27.2239 23.9083 26.9895 23.4371 26.56 23.1591L24.3572 21.7289C24.1184 21.5758 23.8505 21.5 23.5899 21.5C23.1167 21.5 22.6537 21.7393 22.3814 22.1779L17.8912 29.3776C17.7412 29.6169 17.667 29.892 17.667 30.1625C17.667 30.6457 17.9014 31.1169 18.3309 31.3949L20.5338 32.8265C20.7682 32.9782 21.0361 33.054 21.3011 33.054C21.6097 33.054 21.9125 32.9514 22.1659 32.7567C22.3042 32.9217 22.4483 33.0926 22.6012 33.2785C22.211 33.6516 22.0057 34.166 22.0057 34.6789C22.0057 35.0788 22.128 35.4861 22.3814 35.828L22.4192 35.8786C22.7585 36.3379 23.2622 36.5981 23.7835 36.6353C23.7835 36.6843 23.7762 36.7304 23.7762 36.7795C23.7762 37.1868 23.9028 37.6016 24.1605 37.9524C24.5333 38.4578 25.1098 38.7329 25.6878 38.7329C25.7213 38.7329 25.7548 38.7254 25.7883 38.7254C25.8029 39.0897 25.9193 39.4554 26.1508 39.7676L26.2513 39.9043C26.608 40.3919 27.1569 40.6506 27.7116 40.6462C27.764 40.6462 27.8165 40.6387 27.8689 40.6358C27.8834 41.0163 28.0057 41.3969 28.2445 41.7195C28.6172 42.2294 29.1953 42.5 29.7733 42.5C30.1722 42.5 30.5784 42.3707 30.9177 42.1076L31.6252 41.5679C31.9164 41.6318 32.1843 41.7121 32.4784 41.7924C32.822 41.8831 33.2064 41.9633 33.6723 41.9633C33.8354 41.9633 34.0072 41.9559 34.1935 41.9336C34.4687 41.9024 34.7235 41.8117 34.9317 41.666C35.0875 41.556 35.2113 41.4192 35.3044 41.278C35.4457 41.061 35.517 40.8365 35.5651 40.6284C35.584 40.5481 35.5956 40.4753 35.6058 40.3994C35.7966 40.4634 35.9946 40.5065 36.2028 40.5065C36.3848 40.5065 36.5755 40.4723 36.7546 40.395C36.9337 40.3192 37.0938 40.2047 37.2351 40.0679C37.3836 39.9237 37.5481 39.7215 37.6675 39.4599C37.768 39.2428 37.832 38.9842 37.8539 38.6913C37.9063 38.6987 37.9587 38.7062 38.0097 38.7062C38.3125 38.7062 38.592 38.614 38.8381 38.4817C39.2065 38.2751 39.505 37.9718 39.7291 37.6135C39.8966 37.343 40.0189 37.0427 40.0713 36.7186C40.2358 36.7617 40.4076 36.7884 40.5896 36.7884C40.7949 36.7884 41.0176 36.7528 41.2346 36.6546L41.2797 36.6323C41.619 36.4421 41.8388 36.1596 41.983 35.8935C42.1213 35.6304 42.1955 35.3791 42.2188 35.1517C42.2188 35.1517 42.2334 35.0402 42.2334 34.9004C42.2334 34.7548 42.2217 34.5615 42.1693 34.34C42.446 34.1928 42.6687 33.9862 42.8595 33.7691C42.89 33.7349 42.9148 33.6978 42.9454 33.6591C43.2103 33.9074 43.5568 34.0471 43.9106 34.0471C44.1305 34.0471 44.3547 33.9936 44.5629 33.888L46.8881 32.6705C47.3845 32.4118 47.667 31.8975 47.667 31.3682L47.6567 31.3682ZM30.5039 26.2529C30.7413 26.0448 31.2334 25.8471 31.8638 25.7326C32.4971 25.6136 33.2615 25.5646 34.0521 25.5646C36.0016 25.5646 38.1114 25.8545 38.9832 25.9987L42.3043 32.6127C42.1732 32.8104 42.0247 33.0081 41.8748 33.1464C41.786 33.2326 41.6957 33.2935 41.6258 33.3322C41.5923 33.347 41.5661 33.3589 41.5428 33.3664C41.2487 33.1374 40.0039 32.1756 38.628 31.1052C37.1633 29.968 35.5501 28.7043 34.7856 28.0874C34.7405 28.0532 34.6924 28.0264 34.6444 28.0086C34.6065 27.9744 34.5701 27.9402 34.525 27.9164H34.5177C34.4769 27.8897 34.3532 27.8094 34.2047 27.7306C34.0518 27.6503 33.8756 27.5671 33.6456 27.524C33.4432 27.4898 33.2656 27.4645 33.0632 27.4645C32.9103 27.4645 32.7429 27.4823 32.5827 27.5403C32.4182 27.5938 32.2697 27.6801 32.1285 27.7871C31.6436 28.1483 31.0292 28.6583 30.4323 29.07C30.1338 29.2752 29.8397 29.4536 29.5864 29.5755C29.333 29.6974 29.1161 29.7509 29.0054 29.7509C28.9486 29.7509 28.9224 29.7435 28.9035 29.736C28.87 29.7212 28.7929 29.6751 28.7099 29.6097C28.5876 29.5145 28.4493 29.3822 28.3604 29.2678C28.3153 29.2113 28.2775 29.1607 28.2629 29.131V29.1161C28.2629 29.0046 28.3007 28.8649 28.4012 28.6895C28.5497 28.4263 28.8292 28.1186 29.135 27.8094C29.4408 27.4987 29.7727 27.1895 30.0304 26.8356C30.2051 26.5963 30.3245 26.4134 30.5138 26.2529L30.5039 26.2529ZM21.1333 31.8633L18.926 30.4317C18.8329 30.3708 18.7804 30.2682 18.7804 30.1626C18.7804 30.1047 18.7965 30.0482 18.8299 29.9947L23.3246 22.7904C23.3843 22.6952 23.4848 22.6417 23.5896 22.6417C23.6449 22.6417 23.7017 22.6566 23.7527 22.6908L25.9556 24.1224C26.0487 24.1833 26.1012 24.2859 26.1012 24.393C26.1012 24.4494 26.0866 24.5059 26.0531 24.5595L22.9665 29.3775V29.385L21.5615 31.7606C21.5018 31.8557 21.4014 31.9092 21.2965 31.9092C21.2412 31.9092 21.1859 31.8929 21.1335 31.8587L21.1333 31.8633ZM23.3099 35.1963L23.2721 35.1473C23.1687 35.006 23.1192 34.847 23.1192 34.6834C23.1192 34.4471 23.224 34.2151 23.422 34.0635L24.2374 33.4347C24.3757 33.3276 24.5329 33.2786 24.6931 33.2786C24.9231 33.2786 25.1503 33.3856 25.3002 33.5878L25.3366 33.6369C25.4414 33.7781 25.4895 33.9372 25.4895 34.1007C25.4895 34.3326 25.389 34.5571 25.1954 34.7132L24.5329 35.2231C24.5329 35.2231 24.5169 35.235 24.5096 35.2424L24.3684 35.3495C24.2301 35.4565 24.0743 35.5056 23.9141 35.5056C23.6826 35.5056 23.4555 35.3985 23.3056 35.1963L23.3099 35.1963ZM25.0498 37.2672C24.942 37.1185 24.8896 36.952 24.8896 36.784C24.8896 36.5402 24.9945 36.3083 25.1954 36.1448L25.8593 35.6349C25.8593 35.6349 25.8709 35.623 25.8782 35.62L26.7576 34.9451L27.5729 34.3178C27.7185 34.2078 27.8831 34.1543 28.0476 34.1543C28.2893 34.1543 28.5237 34.2643 28.6809 34.4783C28.7886 34.6255 28.8411 34.7935 28.8411 34.9615C28.8411 35.2083 28.7333 35.4476 28.5237 35.6081L26.1577 37.4233C26.0121 37.5333 25.8476 37.5868 25.6845 37.5868C25.4414 37.5868 25.207 37.4768 25.0498 37.2642L25.0498 37.2672ZM27.1449 39.2191L27.0444 39.0823C26.9469 38.95 26.9032 38.8014 26.9032 38.6483C26.9032 38.4282 26.9993 38.2157 27.1857 38.07L29.1323 36.5789C29.2619 36.4793 29.4075 36.4332 29.556 36.4332C29.7729 36.4332 29.9811 36.5328 30.1238 36.7231L30.2242 36.8599C30.3203 36.9937 30.3655 37.1423 30.3655 37.2939C30.3655 37.514 30.2679 37.728 30.0816 37.8722L28.1364 39.3648C28.0054 39.4629 27.8612 39.509 27.7113 39.509C27.4958 39.509 27.2861 39.4094 27.1449 39.2191ZM30.2417 41.1948C30.0976 41.3048 29.9331 41.3554 29.7686 41.3584C29.5269 41.3584 29.2925 41.2483 29.1352 41.0343C29.0275 40.8871 28.9794 40.7191 28.9751 40.5511C28.9751 40.3044 29.0828 40.065 29.2925 39.9045L30.268 39.1552C30.4135 39.0452 30.5781 38.9946 30.7411 38.9917C30.9843 38.9917 31.2187 39.1017 31.3759 39.3143C31.4837 39.4629 31.5317 39.6309 31.5361 39.7974C31.5361 40.0457 31.4283 40.285 31.2187 40.4456L30.2417 41.1948ZM41.1003 35.0253C41.1003 35.0759 41.0625 35.2231 40.9911 35.345C40.9285 35.4639 40.8426 35.559 40.7494 35.6155C40.7043 35.6304 40.6533 35.6423 40.582 35.6423C40.4408 35.6423 40.2457 35.5962 40.0593 35.5204C39.873 35.4446 39.6953 35.345 39.5788 35.2662C37.5886 33.9713 35.8895 32.6928 35.259 32.2171C35.01 32.0313 34.6591 32.0833 34.4771 32.339C34.2936 32.5932 34.3461 32.9515 34.5965 33.1373C35.2255 33.6131 36.9289 34.8931 38.938 36.2057C38.9569 36.2592 38.9715 36.3232 38.9715 36.396C38.9758 36.6205 38.8448 36.952 38.6322 37.1943C38.5274 37.3163 38.408 37.4159 38.2974 37.4768C38.1852 37.5378 38.0848 37.5645 38.0062 37.5645C37.9538 37.5645 37.9086 37.5571 37.8606 37.5333C36.9069 37.1081 35.5572 36.1329 33.8392 34.9109C33.5859 34.7325 33.2394 34.7935 33.0603 35.0521C32.8813 35.3108 32.9439 35.6646 33.1986 35.8475C34.5847 36.8301 35.7247 37.6626 36.7162 38.2186C36.7308 38.3212 36.7352 38.4134 36.7352 38.4922C36.7352 38.7137 36.6944 38.8579 36.642 38.9723C36.5896 39.0868 36.527 39.1671 36.4556 39.2355C36.3959 39.292 36.3508 39.3187 36.3144 39.3336C36.2765 39.3485 36.243 39.3574 36.1906 39.3574C36.1207 39.3574 36.0043 39.3381 35.8485 39.2726C35.617 39.182 35.304 39.0021 34.9268 38.7672C34.5512 38.5308 34.1115 38.2409 33.5932 37.9377C33.3253 37.7771 32.9861 37.8722 32.8288 38.1428C32.673 38.4134 32.7662 38.7627 33.0297 38.9233C33.6048 39.2622 34.0926 39.5848 34.5367 39.8554C34.5323 39.8747 34.525 39.897 34.525 39.9163C34.4988 40.2018 34.4508 40.4605 34.3838 40.5898C34.3503 40.6537 34.3197 40.6894 34.279 40.7147C34.2382 40.7414 34.1814 40.7726 34.0591 40.7875C33.9135 40.8024 33.7796 40.8098 33.6602 40.8098C33.3137 40.8098 33.0487 40.7578 32.7473 40.6775C32.657 40.6537 32.5682 40.6284 32.4707 40.6017C32.5828 40.346 32.6468 40.0724 32.6468 39.7944C32.6468 39.3871 32.5202 38.9723 32.2625 38.626C32.0237 38.3019 31.7034 38.0744 31.3496 37.9525C31.4282 37.7399 31.4719 37.514 31.4719 37.2865C31.4719 36.8985 31.3525 36.5031 31.1065 36.1671L31.006 36.0303C30.7308 35.6542 30.3392 35.4178 29.9213 35.3257C29.9446 35.2052 29.9592 35.0789 29.9592 34.957C29.9592 34.5497 29.8325 34.1349 29.5748 33.7855C29.2021 33.2786 28.6241 33.005 28.0475 33.005C27.6486 33.005 27.2423 33.1344 26.8988 33.3975L26.5522 33.6636C26.4969 33.4079 26.3921 33.1611 26.2276 32.9441L26.1912 32.895C25.8213 32.3926 25.255 32.1294 24.6886 32.1294C24.297 32.1294 23.898 32.2558 23.5632 32.5145L23.4817 32.5754C23.2502 32.2929 23.0332 32.0387 22.8323 31.8054L23.9097 29.9798L26.5479 25.8574C26.676 25.9451 26.8056 26.0328 26.9395 26.1205C27.2424 26.3182 27.5627 26.516 27.9048 26.7033C28.0621 26.7895 28.2149 26.8698 28.3678 26.95C28.1436 27.1745 27.9048 27.4213 27.6966 27.6919C27.5481 27.8866 27.4098 28.0918 27.305 28.3237C27.2001 28.5556 27.1302 28.8187 27.1302 29.0997C27.1302 29.1532 27.1302 29.2112 27.1375 29.2632C27.1492 29.3851 27.1827 29.4773 27.2161 29.5576C27.2787 29.6973 27.3574 29.8163 27.4433 29.9293C27.5729 30.1017 27.7301 30.2608 27.8975 30.402C28.065 30.5432 28.2368 30.6681 28.4304 30.7588C28.6139 30.8435 28.8032 30.8733 28.9866 30.8733C29.3593 30.8733 29.6986 30.7514 30.0378 30.5953C30.5445 30.3559 31.0468 30.0065 31.5243 29.6527C31.9975 29.2974 32.4372 28.9406 32.7736 28.6924C32.8435 28.6404 32.8886 28.621 32.9221 28.6091C32.9556 28.5972 32.989 28.5898 33.0531 28.5898C33.1346 28.5898 33.2657 28.6062 33.4549 28.6359C33.4855 28.6359 33.6005 28.682 33.7054 28.7385C33.7578 28.7697 33.8087 28.7994 33.8539 28.8262C33.9019 28.8559 33.9354 28.8797 33.9878 28.9065C34.0068 28.9169 34.0286 28.9258 34.0475 28.9332C34.0592 28.9436 34.0708 28.96 34.0854 28.9704C34.8905 29.6215 36.594 30.9535 38.1022 32.1265C38.8564 32.7122 39.5597 33.2593 40.0751 33.6592C40.3313 33.8614 40.5439 34.0249 40.6895 34.1393C40.7637 34.1958 40.8205 34.2419 40.8613 34.2717L40.9064 34.3059H40.9093V34.3148L40.9326 34.3371C40.9806 34.3861 41.0258 34.4694 41.0549 34.5764C41.084 34.6835 41.0928 34.8009 41.0928 34.8886V34.9763V35.015L41.1003 35.0253ZM46.3665 31.6537L44.0414 32.8712C43.9919 32.895 43.9482 32.9054 43.8987 32.9054C43.7837 32.9054 43.6759 32.8444 43.6191 32.7315L39.8032 25.1302C39.7799 25.0812 39.7697 25.0351 39.7697 24.986C39.7697 24.8686 39.8294 24.7571 39.9415 24.7006L42.2667 23.4831C42.3147 23.4593 42.3598 23.4489 42.4079 23.4489C42.5244 23.4489 42.6321 23.5128 42.6874 23.6228L46.5049 31.224C46.5267 31.2731 46.5384 31.3192 46.5384 31.3682C46.5384 31.4857 46.4786 31.5972 46.3665 31.6537Z" fill="black"/>
<defs>
<linearGradient id="paint0_linear_579_3199" x1="32.667" y1="0" x2="32.667" y2="64" gradientUnits="userSpaceOnUse">
<stop stop-color="#F8C70C"/>
<stop offset="1" stop-color="#F8C70C"/>
</linearGradient>
</defs>
</svg>
