<svg width="65" height="64" viewBox="0 0 65 64" fill="none" xmlns="http://www.w3.org/2000/svg">
<circle cx="32.333" cy="32" r="32" fill="url(#paint0_linear_579_3207)"/>
<mask id="path-2-outside-1_579_3207" maskUnits="userSpaceOnUse" x="16.333" y="16" width="32" height="32" fill="black">
<rect fill="white" x="16.333" y="16" width="32" height="32"/>
<path fill-rule="evenodd" clip-rule="evenodd" d="M42.294 37.5049C41.8635 37.7042 41.3775 37.9099 40.8507 38.0842C40.2869 38.2705 39.6695 38.4235 39.0131 38.4985V38.5152C39.0464 39.8102 39.0871 41.373 39.3121 42.0413L39.3195 42.0673C39.5315 42.7226 39.9305 43.3196 40.4508 43.808C40.9766 44.3021 41.6247 44.6821 42.3283 44.8972C43.0272 44.6738 43.6521 44.2993 44.1585 43.8155C44.6742 43.3233 45.0667 42.718 45.2898 42.0441C45.5546 41.2451 45.5712 39.9714 45.587 38.7636L45.5907 38.5004C44.9287 38.4262 44.3085 38.2733 43.7419 38.0861C43.2133 37.9118 42.7254 37.7051 42.2931 37.5058L42.294 37.5049ZM40.3147 41.7688C40.1768 41.6344 40.174 41.4138 40.3082 41.2757C40.4425 41.1375 40.6628 41.1348 40.8007 41.2692L41.7719 42.2128L44.1641 39.4551C44.29 39.3096 44.5103 39.2939 44.6556 39.4199C44.801 39.546 44.8167 39.7666 44.6908 39.9121L42.0607 42.9441C42.0552 42.9506 42.0487 42.958 42.0431 42.9645C41.9089 43.1026 41.6886 43.1054 41.5506 42.971L40.3147 41.7706V41.7688ZM42.2922 36.3416C41.721 36.6048 41.0785 36.8755 40.3832 37.1054C39.6435 37.3501 38.8363 37.5512 37.9753 37.655C38.0197 39.3754 38.0762 41.4314 38.3706 42.3083C38.3752 42.3212 38.3789 42.3333 38.3817 42.3463C38.6622 43.2102 39.189 43.9971 39.8759 44.6423C40.5665 45.2902 41.4155 45.7908 42.3384 46.0772C43.254 45.7806 44.0733 45.2884 44.738 44.6525C45.4203 44.0009 45.9388 43.2018 46.2341 42.312C46.5859 41.2525 46.6072 39.5534 46.6275 37.9405L46.6312 37.6569C45.7638 37.554 44.9519 37.3528 44.2085 37.1072C43.5105 36.8764 42.8652 36.6057 42.2922 36.3416ZM42.282 35.5759C41.0507 36.1608 39.4269 36.8282 37.6068 36.9932C37.4124 37.0108 37.2662 37.1665 37.2708 37.351C37.3189 39.1771 37.3624 41.4972 37.7096 42.5298C38.1308 43.8535 39.0492 45.0094 40.2305 45.8204C40.1314 45.8288 40.0277 45.838 39.9194 45.8482C39.5297 45.8835 39.1307 45.9215 38.7242 45.9623C36.7783 46.1347 34.8314 46.2413 32.8845 46.283C33.0733 45.2939 33.3613 44.0092 33.6677 42.6447C34.3055 39.8037 35.0202 36.6224 35.0758 35.0689C35.085 34.7964 34.8379 33.9899 34.5962 33.2039C34.4713 32.797 34.2065 32.4642 34.0611 32.2454L34.0648 32.2371C34.0982 32.1685 34.1259 32.0971 34.1472 32.0239C34.2611 32.0897 34.4379 32.2028 34.7083 32.2946C35.3961 32.5272 36.2247 32.8164 36.4107 32.8906C36.9551 33.1065 37.6439 33.3207 38.3299 33.5135C39.0112 33.7044 39.6982 33.8778 40.2369 34.0094C40.2369 34.0085 40.4573 34.0631 40.4776 34.0678C41.3312 34.2763 41.7385 34.3755 41.9941 34.5674C42.1292 34.6684 42.2727 34.826 42.419 35.0781C42.5255 35.2617 42.6319 35.4906 42.7356 35.7761C42.5856 35.7085 42.4403 35.6408 42.3005 35.575H42.2801L42.282 35.5759ZM41.1831 46.372C41.5191 46.5332 41.8691 46.6686 42.2292 46.7742C42.306 46.7965 42.3783 46.7965 42.4551 46.7724C44.5668 46.1226 46.2304 44.5357 46.8951 42.5317C47.3274 41.2284 47.3033 39.1817 47.333 37.3501C47.3357 37.1665 47.1904 37.0127 46.9969 36.9951C45.7425 36.882 44.5797 36.5316 43.5753 36.133C43.5734 36.1098 43.5697 36.0867 43.5623 36.0635C43.3938 35.4795 43.2114 35.0494 43.0254 34.7296C42.8254 34.3848 42.6171 34.1595 42.4153 34.0085C42.0496 33.735 41.596 33.6238 40.6452 33.3911L40.4073 33.3327C39.8778 33.2029 39.201 33.0324 38.5215 32.8414C37.8475 32.6523 37.1791 32.4456 36.67 32.2436C36.47 32.1639 35.6238 31.8672 34.9314 31.6336C34.6638 31.5437 34.4083 31.464 34.1991 31.4103V30.2479C34.3565 30.0569 34.4814 29.853 34.574 29.6333C34.6842 29.3728 34.749 29.0938 34.7684 28.7926L34.8101 28.1428C35.5813 27.8582 35.7183 27.2872 35.8942 26.555L35.909 26.4956C35.9775 26.2111 36.0867 25.7439 36.0895 25.2971C36.0923 24.7669 35.946 24.2747 35.4526 24.0735C35.4905 23.7473 35.5192 23.4024 35.5331 23.0567C35.5498 22.6396 35.5461 22.2289 35.5146 21.8572V21.8563C35.4803 21.4605 35.4359 21.0805 35.3572 20.7088C35.2758 20.3287 35.1582 19.9644 34.9767 19.6122C34.8082 19.2841 34.5907 18.9726 34.337 18.6927C34.0834 18.4127 33.7964 18.1662 33.4862 17.9659C33.0928 17.712 32.6651 17.4867 32.217 17.3162C31.8134 17.1632 31.3922 17.0557 30.9626 17.0149C30.5497 16.975 30.1359 17.0177 29.7341 17.1122C29.3416 17.204 28.9592 17.344 28.6019 17.5034C28.3825 17.6007 28.1723 17.7574 27.9853 17.9289C27.9788 17.9354 27.9724 17.9409 27.9668 17.9474C27.7159 18.181 27.5076 18.4396 27.3873 18.6028C27.2586 18.7789 27.1993 18.9541 27.1855 19.12L27.1836 19.1534L27.1688 19.1561C26.9623 19.1988 26.7402 19.2859 26.6189 19.399C26.2773 19.716 26.0495 20.1813 25.9135 20.6847C25.7588 21.2594 25.7218 21.8952 25.7727 22.4078L25.8903 24.0633C25.7774 24.1106 25.6829 24.1848 25.6052 24.2812C25.3867 24.5509 25.3173 25.0033 25.3432 25.4992C25.3663 25.946 25.4645 26.4456 25.5931 26.8655C25.7376 27.3364 25.9357 27.7312 26.1347 27.8934C26.2162 27.9602 26.3078 28.0149 26.4106 28.0612C26.4356 28.0723 26.4615 28.0835 26.4865 28.0946L26.4911 28.191C26.5291 28.9668 26.5624 29.6305 27.1577 30.3044L27.2641 31.2647C26.6837 31.3991 25.7079 31.8459 25.1645 32.0943C25.0034 32.1685 24.8821 32.2241 24.8377 32.2417C24.3285 32.4438 23.6611 32.6514 22.9871 32.8405C22.2992 33.0333 21.6271 33.2029 21.1032 33.3318L20.868 33.3893C19.9145 33.6229 19.4608 33.7332 19.0933 34.0075L19.0785 34.0187C18.8711 34.1772 18.7082 34.3774 18.5536 34.6953C18.4138 34.9827 18.2786 35.3766 18.1129 35.9504C18.0083 36.3128 17.9028 37.8108 17.7898 39.4171C17.6658 41.182 17.5325 43.0795 17.4001 43.6125C17.3242 43.9174 17.3131 44.2196 17.3649 44.5125C17.4177 44.8054 17.5334 45.0844 17.7111 45.3431C17.8898 45.6035 18.1074 45.813 18.361 45.9669C18.6147 46.1217 18.9008 46.2199 19.2127 46.2589C22.4677 46.6649 25.7301 46.9087 29.0009 46.9791C29.0333 46.98 29.0666 46.981 29.099 46.981C30.2136 47.0041 31.3283 47.006 32.4429 46.9874C32.4623 46.9884 32.4818 46.9884 32.5012 46.9865C34.5972 46.9504 36.694 46.841 38.7909 46.6547H38.7946C39.2464 46.6093 39.6417 46.5712 39.9814 46.5407C40.3045 46.5119 40.636 46.485 40.9748 46.46C41.0563 46.4545 41.1294 46.4211 41.1849 46.3701L41.1831 46.372ZM33.9297 33.4097C33.8528 33.1585 33.776 32.91 33.7112 32.6755L33.6871 32.695C33.677 32.7033 33.6658 32.7107 33.6547 32.7172L31.5523 33.9918L32.192 34.3663L32.1939 34.3672C32.6623 34.6462 32.4651 35.0364 32.2198 35.5231C32.0615 35.8364 31.868 36.2201 31.9791 36.4889C31.9865 36.5056 31.993 36.5232 31.9976 36.5418L32.5142 38.4327C32.5234 38.4633 32.529 38.4948 32.5308 38.5282L32.7114 43.7302C32.8002 43.3297 32.8937 42.9154 32.9882 42.4927C33.6196 39.6813 34.3268 36.5325 34.3796 35.0457C34.3852 34.8918 34.1546 34.141 33.9306 33.4106L33.9297 33.4097ZM32.1031 46.2969L31.8356 38.5903L31.332 36.7457C31.1042 36.1868 31.3764 35.6482 31.5977 35.2088C31.6801 35.0466 31.9282 35.0244 31.8402 34.9697L30.8497 34.3904L29.5573 34.9743C29.511 35.0244 29.7739 35.1847 29.9044 35.4332C30.1266 35.8549 30.3544 36.2869 30.222 36.6354L29.6693 38.594L29.4545 46.2913C30.3377 46.3061 31.2209 46.308 32.1041 46.2969H32.1031ZM30.8626 33.595L33.2724 32.1342C33.3465 32.0749 33.4029 32.0063 33.44 31.9303C33.4788 31.8515 33.4983 31.7606 33.4983 31.6605V30.119C33.4983 30.0217 33.5381 29.9327 33.6029 29.8697C33.7445 29.7112 33.8538 29.5425 33.9306 29.3608C34.0093 29.1745 34.0565 28.9715 34.0704 28.7499L34.1278 27.8592C34.138 27.6997 34.2537 27.5718 34.4018 27.5394L34.4398 27.5292L34.4611 27.5245L34.4814 27.519C34.9832 27.3669 35.0841 26.9443 35.2165 26.3946C35.2174 26.389 35.2322 26.3325 35.2313 26.3325C35.2924 26.0776 35.3905 25.6614 35.3924 25.2952C35.3933 25.0218 35.3452 24.7799 35.1785 24.7168C35.1591 24.7094 35.1369 24.7029 35.1128 24.6974C35.0887 24.6918 35.0656 24.6881 35.0434 24.6872C34.8508 24.6751 34.7055 24.5092 34.7175 24.3164C34.7184 24.3071 34.7194 24.2979 34.7203 24.2895C34.7768 23.8919 34.8184 23.4571 34.836 23.0298C34.8518 22.6498 34.848 22.2688 34.8175 21.9166C34.7842 21.5411 34.7444 21.1852 34.6731 20.8543C34.6036 20.5308 34.5055 20.224 34.3555 19.9329C34.213 19.6558 34.0306 19.3944 33.8195 19.1617C33.6094 18.93 33.3687 18.7242 33.1076 18.5555C32.7512 18.3256 32.367 18.1226 31.9689 17.9715C31.618 17.839 31.257 17.7463 30.895 17.712C30.5664 17.6804 30.2266 17.7166 29.8906 17.7954C29.5452 17.876 29.2036 18.0021 28.8805 18.1458C28.7389 18.2088 28.5917 18.32 28.4547 18.4461L28.4362 18.4619C28.2297 18.6547 28.0511 18.8771 27.9464 19.0189C27.902 19.0792 27.8826 19.1339 27.8779 19.1812C27.8733 19.2386 27.89 19.2915 27.9131 19.3341C28.0048 19.5028 27.9427 19.7151 27.7742 19.8068C27.6446 19.8773 27.491 19.8569 27.3845 19.7679C27.353 19.7447 27.3799 19.8282 27.3077 19.843C27.2068 19.8643 27.1142 19.8912 27.0901 19.9134C26.8531 20.1331 26.6883 20.4807 26.5846 20.8682C26.4504 21.365 26.4189 21.9138 26.4643 22.3522L26.4652 22.3615H26.4661L26.593 24.1449C26.6096 24.1718 26.6235 24.2052 26.6346 24.2497C26.6883 24.4619 26.6291 24.6204 26.3652 24.6872C26.3486 24.6918 26.3319 24.6946 26.3162 24.6964C26.2801 24.702 26.2504 24.702 26.218 24.702C26.2032 24.702 26.1847 24.702 26.1634 24.7085L26.1588 24.7094C26.1542 24.7122 26.1486 24.7168 26.143 24.7242C26.0458 24.8448 26.019 25.1275 26.0366 25.4667C26.0569 25.856 26.143 26.2936 26.2569 26.6634C26.3643 27.0119 26.4809 27.2807 26.5717 27.3549C26.6059 27.3827 26.6476 27.4068 26.6976 27.43C26.7522 27.455 26.8226 27.4791 26.9059 27.5041C26.9142 27.5069 26.9235 27.5097 26.9318 27.5125C27.0651 27.5579 27.1586 27.6803 27.1669 27.8202H27.1679C27.1743 27.9166 27.1799 28.0399 27.1864 28.1595C27.2197 28.8278 27.2475 29.3951 27.7428 29.9142C27.7974 29.9716 27.8289 30.043 27.8363 30.1162L27.9909 31.5076C28.002 31.5521 28.0075 31.6031 28.0057 31.6596H28.0066C28.0066 31.7606 28.027 31.8515 28.0649 31.9293C28.101 32.0035 28.1547 32.0702 28.2251 32.1277L30.8645 33.5941L30.8626 33.595ZM27.8687 32.7293C27.8511 32.72 27.8344 32.7098 27.8178 32.6968C27.7215 33.0361 27.6011 33.3633 27.4854 33.6757C27.2901 34.2059 27.1114 34.6898 27.1244 35.0457C27.1771 36.5205 27.914 39.7277 28.5658 42.5622C28.6556 42.9543 28.7445 43.339 28.8287 43.7116L28.9731 38.5495C28.9722 38.5152 28.9759 38.4791 28.9861 38.4439L29.5508 36.4407C29.5554 36.4204 29.5619 36.4009 29.5702 36.3805C29.5906 36.3341 29.4369 36.0422 29.286 35.7576C28.9963 35.2079 28.7148 34.674 29.1934 34.3755C29.2083 34.3653 29.224 34.357 29.2416 34.3496L30.0933 33.9649L27.8687 32.7284V32.7293ZM28.6732 46.2756C28.4862 45.3301 28.1955 44.0657 27.8863 42.7189C27.228 39.8556 26.4837 36.6169 26.4282 35.0707C26.4106 34.5739 26.6106 34.0307 26.83 33.4356C27.0012 32.9703 27.1855 32.4707 27.2679 31.9757C26.7994 32.1138 25.9366 32.5096 25.4506 32.7321C25.283 32.809 25.1571 32.8665 25.0914 32.8924C24.547 33.1084 23.8592 33.3225 23.1722 33.5153C22.4992 33.7044 21.8077 33.8778 21.2633 34.0112L21.0282 34.0687C20.1691 34.2791 19.7608 34.3792 19.5044 34.5693L19.496 34.5748C19.3775 34.6666 19.2794 34.7917 19.1776 35.0003C19.0544 35.2533 18.9322 35.613 18.7776 36.146C18.6952 36.4305 18.5925 37.8951 18.4823 39.4644C18.3564 41.2599 18.2203 43.1898 18.0731 43.7812V43.7821C18.0203 43.9934 18.012 44.1964 18.0463 44.3902C18.0805 44.583 18.1601 44.7711 18.2833 44.95C18.4055 45.128 18.5517 45.2689 18.7193 45.3718C18.8859 45.4738 19.0785 45.5386 19.2924 45.5646C22.4261 45.9558 25.5524 46.1958 28.6704 46.2737L28.6732 46.2756ZM42.2866 36.996C41.3673 37.4326 40.1536 37.9313 38.7946 38.0545C38.6493 38.0675 38.54 38.1843 38.5437 38.3224C38.5798 39.686 38.6122 41.4193 38.8714 42.1905C39.3473 43.6875 40.6758 44.8972 42.2468 45.3597C42.3042 45.3764 42.3588 45.3764 42.4153 45.3588C43.9928 44.874 45.2352 43.6885 45.7314 42.1915C46.0545 41.2182 46.036 39.6887 46.0582 38.3215C46.06 38.1843 45.9517 38.0694 45.8073 38.0564C44.4427 37.9331 43.2244 37.4344 42.3014 36.996H42.2866Z"/>
</mask>
<path fill-rule="evenodd" clip-rule="evenodd" d="M42.294 37.5049C41.8635 37.7042 41.3775 37.9099 40.8507 38.0842C40.2869 38.2705 39.6695 38.4235 39.0131 38.4985V38.5152C39.0464 39.8102 39.0871 41.373 39.3121 42.0413L39.3195 42.0673C39.5315 42.7226 39.9305 43.3196 40.4508 43.808C40.9766 44.3021 41.6247 44.6821 42.3283 44.8972C43.0272 44.6738 43.6521 44.2993 44.1585 43.8155C44.6742 43.3233 45.0667 42.718 45.2898 42.0441C45.5546 41.2451 45.5712 39.9714 45.587 38.7636L45.5907 38.5004C44.9287 38.4262 44.3085 38.2733 43.7419 38.0861C43.2133 37.9118 42.7254 37.7051 42.2931 37.5058L42.294 37.5049ZM40.3147 41.7688C40.1768 41.6344 40.174 41.4138 40.3082 41.2757C40.4425 41.1375 40.6628 41.1348 40.8007 41.2692L41.7719 42.2128L44.1641 39.4551C44.29 39.3096 44.5103 39.2939 44.6556 39.4199C44.801 39.546 44.8167 39.7666 44.6908 39.9121L42.0607 42.9441C42.0552 42.9506 42.0487 42.958 42.0431 42.9645C41.9089 43.1026 41.6886 43.1054 41.5506 42.971L40.3147 41.7706V41.7688ZM42.2922 36.3416C41.721 36.6048 41.0785 36.8755 40.3832 37.1054C39.6435 37.3501 38.8363 37.5512 37.9753 37.655C38.0197 39.3754 38.0762 41.4314 38.3706 42.3083C38.3752 42.3212 38.3789 42.3333 38.3817 42.3463C38.6622 43.2102 39.189 43.9971 39.8759 44.6423C40.5665 45.2902 41.4155 45.7908 42.3384 46.0772C43.254 45.7806 44.0733 45.2884 44.738 44.6525C45.4203 44.0009 45.9388 43.2018 46.2341 42.312C46.5859 41.2525 46.6072 39.5534 46.6275 37.9405L46.6312 37.6569C45.7638 37.554 44.9519 37.3528 44.2085 37.1072C43.5105 36.8764 42.8652 36.6057 42.2922 36.3416ZM42.282 35.5759C41.0507 36.1608 39.4269 36.8282 37.6068 36.9932C37.4124 37.0108 37.2662 37.1665 37.2708 37.351C37.3189 39.1771 37.3624 41.4972 37.7096 42.5298C38.1308 43.8535 39.0492 45.0094 40.2305 45.8204C40.1314 45.8288 40.0277 45.838 39.9194 45.8482C39.5297 45.8835 39.1307 45.9215 38.7242 45.9623C36.7783 46.1347 34.8314 46.2413 32.8845 46.283C33.0733 45.2939 33.3613 44.0092 33.6677 42.6447C34.3055 39.8037 35.0202 36.6224 35.0758 35.0689C35.085 34.7964 34.8379 33.9899 34.5962 33.2039C34.4713 32.797 34.2065 32.4642 34.0611 32.2454L34.0648 32.2371C34.0982 32.1685 34.1259 32.0971 34.1472 32.0239C34.2611 32.0897 34.4379 32.2028 34.7083 32.2946C35.3961 32.5272 36.2247 32.8164 36.4107 32.8906C36.9551 33.1065 37.6439 33.3207 38.3299 33.5135C39.0112 33.7044 39.6982 33.8778 40.2369 34.0094C40.2369 34.0085 40.4573 34.0631 40.4776 34.0678C41.3312 34.2763 41.7385 34.3755 41.9941 34.5674C42.1292 34.6684 42.2727 34.826 42.419 35.0781C42.5255 35.2617 42.6319 35.4906 42.7356 35.7761C42.5856 35.7085 42.4403 35.6408 42.3005 35.575H42.2801L42.282 35.5759ZM41.1831 46.372C41.5191 46.5332 41.8691 46.6686 42.2292 46.7742C42.306 46.7965 42.3783 46.7965 42.4551 46.7724C44.5668 46.1226 46.2304 44.5357 46.8951 42.5317C47.3274 41.2284 47.3033 39.1817 47.333 37.3501C47.3357 37.1665 47.1904 37.0127 46.9969 36.9951C45.7425 36.882 44.5797 36.5316 43.5753 36.133C43.5734 36.1098 43.5697 36.0867 43.5623 36.0635C43.3938 35.4795 43.2114 35.0494 43.0254 34.7296C42.8254 34.3848 42.6171 34.1595 42.4153 34.0085C42.0496 33.735 41.596 33.6238 40.6452 33.3911L40.4073 33.3327C39.8778 33.2029 39.201 33.0324 38.5215 32.8414C37.8475 32.6523 37.1791 32.4456 36.67 32.2436C36.47 32.1639 35.6238 31.8672 34.9314 31.6336C34.6638 31.5437 34.4083 31.464 34.1991 31.4103V30.2479C34.3565 30.0569 34.4814 29.853 34.574 29.6333C34.6842 29.3728 34.749 29.0938 34.7684 28.7926L34.8101 28.1428C35.5813 27.8582 35.7183 27.2872 35.8942 26.555L35.909 26.4956C35.9775 26.2111 36.0867 25.7439 36.0895 25.2971C36.0923 24.7669 35.946 24.2747 35.4526 24.0735C35.4905 23.7473 35.5192 23.4024 35.5331 23.0567C35.5498 22.6396 35.5461 22.2289 35.5146 21.8572V21.8563C35.4803 21.4605 35.4359 21.0805 35.3572 20.7088C35.2758 20.3287 35.1582 19.9644 34.9767 19.6122C34.8082 19.2841 34.5907 18.9726 34.337 18.6927C34.0834 18.4127 33.7964 18.1662 33.4862 17.9659C33.0928 17.712 32.6651 17.4867 32.217 17.3162C31.8134 17.1632 31.3922 17.0557 30.9626 17.0149C30.5497 16.975 30.1359 17.0177 29.7341 17.1122C29.3416 17.204 28.9592 17.344 28.6019 17.5034C28.3825 17.6007 28.1723 17.7574 27.9853 17.9289C27.9788 17.9354 27.9724 17.9409 27.9668 17.9474C27.7159 18.181 27.5076 18.4396 27.3873 18.6028C27.2586 18.7789 27.1993 18.9541 27.1855 19.12L27.1836 19.1534L27.1688 19.1561C26.9623 19.1988 26.7402 19.2859 26.6189 19.399C26.2773 19.716 26.0495 20.1813 25.9135 20.6847C25.7588 21.2594 25.7218 21.8952 25.7727 22.4078L25.8903 24.0633C25.7774 24.1106 25.6829 24.1848 25.6052 24.2812C25.3867 24.5509 25.3173 25.0033 25.3432 25.4992C25.3663 25.946 25.4645 26.4456 25.5931 26.8655C25.7376 27.3364 25.9357 27.7312 26.1347 27.8934C26.2162 27.9602 26.3078 28.0149 26.4106 28.0612C26.4356 28.0723 26.4615 28.0835 26.4865 28.0946L26.4911 28.191C26.5291 28.9668 26.5624 29.6305 27.1577 30.3044L27.2641 31.2647C26.6837 31.3991 25.7079 31.8459 25.1645 32.0943C25.0034 32.1685 24.8821 32.2241 24.8377 32.2417C24.3285 32.4438 23.6611 32.6514 22.9871 32.8405C22.2992 33.0333 21.6271 33.2029 21.1032 33.3318L20.868 33.3893C19.9145 33.6229 19.4608 33.7332 19.0933 34.0075L19.0785 34.0187C18.8711 34.1772 18.7082 34.3774 18.5536 34.6953C18.4138 34.9827 18.2786 35.3766 18.1129 35.9504C18.0083 36.3128 17.9028 37.8108 17.7898 39.4171C17.6658 41.182 17.5325 43.0795 17.4001 43.6125C17.3242 43.9174 17.3131 44.2196 17.3649 44.5125C17.4177 44.8054 17.5334 45.0844 17.7111 45.3431C17.8898 45.6035 18.1074 45.813 18.361 45.9669C18.6147 46.1217 18.9008 46.2199 19.2127 46.2589C22.4677 46.6649 25.7301 46.9087 29.0009 46.9791C29.0333 46.98 29.0666 46.981 29.099 46.981C30.2136 47.0041 31.3283 47.006 32.4429 46.9874C32.4623 46.9884 32.4818 46.9884 32.5012 46.9865C34.5972 46.9504 36.694 46.841 38.7909 46.6547H38.7946C39.2464 46.6093 39.6417 46.5712 39.9814 46.5407C40.3045 46.5119 40.636 46.485 40.9748 46.46C41.0563 46.4545 41.1294 46.4211 41.1849 46.3701L41.1831 46.372ZM33.9297 33.4097C33.8528 33.1585 33.776 32.91 33.7112 32.6755L33.6871 32.695C33.677 32.7033 33.6658 32.7107 33.6547 32.7172L31.5523 33.9918L32.192 34.3663L32.1939 34.3672C32.6623 34.6462 32.4651 35.0364 32.2198 35.5231C32.0615 35.8364 31.868 36.2201 31.9791 36.4889C31.9865 36.5056 31.993 36.5232 31.9976 36.5418L32.5142 38.4327C32.5234 38.4633 32.529 38.4948 32.5308 38.5282L32.7114 43.7302C32.8002 43.3297 32.8937 42.9154 32.9882 42.4927C33.6196 39.6813 34.3268 36.5325 34.3796 35.0457C34.3852 34.8918 34.1546 34.141 33.9306 33.4106L33.9297 33.4097ZM32.1031 46.2969L31.8356 38.5903L31.332 36.7457C31.1042 36.1868 31.3764 35.6482 31.5977 35.2088C31.6801 35.0466 31.9282 35.0244 31.8402 34.9697L30.8497 34.3904L29.5573 34.9743C29.511 35.0244 29.7739 35.1847 29.9044 35.4332C30.1266 35.8549 30.3544 36.2869 30.222 36.6354L29.6693 38.594L29.4545 46.2913C30.3377 46.3061 31.2209 46.308 32.1041 46.2969H32.1031ZM30.8626 33.595L33.2724 32.1342C33.3465 32.0749 33.4029 32.0063 33.44 31.9303C33.4788 31.8515 33.4983 31.7606 33.4983 31.6605V30.119C33.4983 30.0217 33.5381 29.9327 33.6029 29.8697C33.7445 29.7112 33.8538 29.5425 33.9306 29.3608C34.0093 29.1745 34.0565 28.9715 34.0704 28.7499L34.1278 27.8592C34.138 27.6997 34.2537 27.5718 34.4018 27.5394L34.4398 27.5292L34.4611 27.5245L34.4814 27.519C34.9832 27.3669 35.0841 26.9443 35.2165 26.3946C35.2174 26.389 35.2322 26.3325 35.2313 26.3325C35.2924 26.0776 35.3905 25.6614 35.3924 25.2952C35.3933 25.0218 35.3452 24.7799 35.1785 24.7168C35.1591 24.7094 35.1369 24.7029 35.1128 24.6974C35.0887 24.6918 35.0656 24.6881 35.0434 24.6872C34.8508 24.6751 34.7055 24.5092 34.7175 24.3164C34.7184 24.3071 34.7194 24.2979 34.7203 24.2895C34.7768 23.8919 34.8184 23.4571 34.836 23.0298C34.8518 22.6498 34.848 22.2688 34.8175 21.9166C34.7842 21.5411 34.7444 21.1852 34.6731 20.8543C34.6036 20.5308 34.5055 20.224 34.3555 19.9329C34.213 19.6558 34.0306 19.3944 33.8195 19.1617C33.6094 18.93 33.3687 18.7242 33.1076 18.5555C32.7512 18.3256 32.367 18.1226 31.9689 17.9715C31.618 17.839 31.257 17.7463 30.895 17.712C30.5664 17.6804 30.2266 17.7166 29.8906 17.7954C29.5452 17.876 29.2036 18.0021 28.8805 18.1458C28.7389 18.2088 28.5917 18.32 28.4547 18.4461L28.4362 18.4619C28.2297 18.6547 28.0511 18.8771 27.9464 19.0189C27.902 19.0792 27.8826 19.1339 27.8779 19.1812C27.8733 19.2386 27.89 19.2915 27.9131 19.3341C28.0048 19.5028 27.9427 19.7151 27.7742 19.8068C27.6446 19.8773 27.491 19.8569 27.3845 19.7679C27.353 19.7447 27.3799 19.8282 27.3077 19.843C27.2068 19.8643 27.1142 19.8912 27.0901 19.9134C26.8531 20.1331 26.6883 20.4807 26.5846 20.8682C26.4504 21.365 26.4189 21.9138 26.4643 22.3522L26.4652 22.3615H26.4661L26.593 24.1449C26.6096 24.1718 26.6235 24.2052 26.6346 24.2497C26.6883 24.4619 26.6291 24.6204 26.3652 24.6872C26.3486 24.6918 26.3319 24.6946 26.3162 24.6964C26.2801 24.702 26.2504 24.702 26.218 24.702C26.2032 24.702 26.1847 24.702 26.1634 24.7085L26.1588 24.7094C26.1542 24.7122 26.1486 24.7168 26.143 24.7242C26.0458 24.8448 26.019 25.1275 26.0366 25.4667C26.0569 25.856 26.143 26.2936 26.2569 26.6634C26.3643 27.0119 26.4809 27.2807 26.5717 27.3549C26.6059 27.3827 26.6476 27.4068 26.6976 27.43C26.7522 27.455 26.8226 27.4791 26.9059 27.5041C26.9142 27.5069 26.9235 27.5097 26.9318 27.5125C27.0651 27.5579 27.1586 27.6803 27.1669 27.8202H27.1679C27.1743 27.9166 27.1799 28.0399 27.1864 28.1595C27.2197 28.8278 27.2475 29.3951 27.7428 29.9142C27.7974 29.9716 27.8289 30.043 27.8363 30.1162L27.9909 31.5076C28.002 31.5521 28.0075 31.6031 28.0057 31.6596H28.0066C28.0066 31.7606 28.027 31.8515 28.0649 31.9293C28.101 32.0035 28.1547 32.0702 28.2251 32.1277L30.8645 33.5941L30.8626 33.595ZM27.8687 32.7293C27.8511 32.72 27.8344 32.7098 27.8178 32.6968C27.7215 33.0361 27.6011 33.3633 27.4854 33.6757C27.2901 34.2059 27.1114 34.6898 27.1244 35.0457C27.1771 36.5205 27.914 39.7277 28.5658 42.5622C28.6556 42.9543 28.7445 43.339 28.8287 43.7116L28.9731 38.5495C28.9722 38.5152 28.9759 38.4791 28.9861 38.4439L29.5508 36.4407C29.5554 36.4204 29.5619 36.4009 29.5702 36.3805C29.5906 36.3341 29.4369 36.0422 29.286 35.7576C28.9963 35.2079 28.7148 34.674 29.1934 34.3755C29.2083 34.3653 29.224 34.357 29.2416 34.3496L30.0933 33.9649L27.8687 32.7284V32.7293ZM28.6732 46.2756C28.4862 45.3301 28.1955 44.0657 27.8863 42.7189C27.228 39.8556 26.4837 36.6169 26.4282 35.0707C26.4106 34.5739 26.6106 34.0307 26.83 33.4356C27.0012 32.9703 27.1855 32.4707 27.2679 31.9757C26.7994 32.1138 25.9366 32.5096 25.4506 32.7321C25.283 32.809 25.1571 32.8665 25.0914 32.8924C24.547 33.1084 23.8592 33.3225 23.1722 33.5153C22.4992 33.7044 21.8077 33.8778 21.2633 34.0112L21.0282 34.0687C20.1691 34.2791 19.7608 34.3792 19.5044 34.5693L19.496 34.5748C19.3775 34.6666 19.2794 34.7917 19.1776 35.0003C19.0544 35.2533 18.9322 35.613 18.7776 36.146C18.6952 36.4305 18.5925 37.8951 18.4823 39.4644C18.3564 41.2599 18.2203 43.1898 18.0731 43.7812V43.7821C18.0203 43.9934 18.012 44.1964 18.0463 44.3902C18.0805 44.583 18.1601 44.7711 18.2833 44.95C18.4055 45.128 18.5517 45.2689 18.7193 45.3718C18.8859 45.4738 19.0785 45.5386 19.2924 45.5646C22.4261 45.9558 25.5524 46.1958 28.6704 46.2737L28.6732 46.2756ZM42.2866 36.996C41.3673 37.4326 40.1536 37.9313 38.7946 38.0545C38.6493 38.0675 38.54 38.1843 38.5437 38.3224C38.5798 39.686 38.6122 41.4193 38.8714 42.1905C39.3473 43.6875 40.6758 44.8972 42.2468 45.3597C42.3042 45.3764 42.3588 45.3764 42.4153 45.3588C43.9928 44.874 45.2352 43.6885 45.7314 42.1915C46.0545 41.2182 46.036 39.6887 46.0582 38.3215C46.06 38.1843 45.9517 38.0694 45.8073 38.0564C44.4427 37.9331 43.2244 37.4344 42.3014 36.996H42.2866Z" fill="black"/>
<path fill-rule="evenodd" clip-rule="evenodd" d="M42.294 37.5049C41.8635 37.7042 41.3775 37.9099 40.8507 38.0842C40.2869 38.2705 39.6695 38.4235 39.0131 38.4985V38.5152C39.0464 39.8102 39.0871 41.373 39.3121 42.0413L39.3195 42.0673C39.5315 42.7226 39.9305 43.3196 40.4508 43.808C40.9766 44.3021 41.6247 44.6821 42.3283 44.8972C43.0272 44.6738 43.6521 44.2993 44.1585 43.8155C44.6742 43.3233 45.0667 42.718 45.2898 42.0441C45.5546 41.2451 45.5712 39.9714 45.587 38.7636L45.5907 38.5004C44.9287 38.4262 44.3085 38.2733 43.7419 38.0861C43.2133 37.9118 42.7254 37.7051 42.2931 37.5058L42.294 37.5049ZM40.3147 41.7688C40.1768 41.6344 40.174 41.4138 40.3082 41.2757C40.4425 41.1375 40.6628 41.1348 40.8007 41.2692L41.7719 42.2128L44.1641 39.4551C44.29 39.3096 44.5103 39.2939 44.6556 39.4199C44.801 39.546 44.8167 39.7666 44.6908 39.9121L42.0607 42.9441C42.0552 42.9506 42.0487 42.958 42.0431 42.9645C41.9089 43.1026 41.6886 43.1054 41.5506 42.971L40.3147 41.7706V41.7688ZM42.2922 36.3416C41.721 36.6048 41.0785 36.8755 40.3832 37.1054C39.6435 37.3501 38.8363 37.5512 37.9753 37.655C38.0197 39.3754 38.0762 41.4314 38.3706 42.3083C38.3752 42.3212 38.3789 42.3333 38.3817 42.3463C38.6622 43.2102 39.189 43.9971 39.8759 44.6423C40.5665 45.2902 41.4155 45.7908 42.3384 46.0772C43.254 45.7806 44.0733 45.2884 44.738 44.6525C45.4203 44.0009 45.9388 43.2018 46.2341 42.312C46.5859 41.2525 46.6072 39.5534 46.6275 37.9405L46.6312 37.6569C45.7638 37.554 44.9519 37.3528 44.2085 37.1072C43.5105 36.8764 42.8652 36.6057 42.2922 36.3416ZM42.282 35.5759C41.0507 36.1608 39.4269 36.8282 37.6068 36.9932C37.4124 37.0108 37.2662 37.1665 37.2708 37.351C37.3189 39.1771 37.3624 41.4972 37.7096 42.5298C38.1308 43.8535 39.0492 45.0094 40.2305 45.8204C40.1314 45.8288 40.0277 45.838 39.9194 45.8482C39.5297 45.8835 39.1307 45.9215 38.7242 45.9623C36.7783 46.1347 34.8314 46.2413 32.8845 46.283C33.0733 45.2939 33.3613 44.0092 33.6677 42.6447C34.3055 39.8037 35.0202 36.6224 35.0758 35.0689C35.085 34.7964 34.8379 33.9899 34.5962 33.2039C34.4713 32.797 34.2065 32.4642 34.0611 32.2454L34.0648 32.2371C34.0982 32.1685 34.1259 32.0971 34.1472 32.0239C34.2611 32.0897 34.4379 32.2028 34.7083 32.2946C35.3961 32.5272 36.2247 32.8164 36.4107 32.8906C36.9551 33.1065 37.6439 33.3207 38.3299 33.5135C39.0112 33.7044 39.6982 33.8778 40.2369 34.0094C40.2369 34.0085 40.4573 34.0631 40.4776 34.0678C41.3312 34.2763 41.7385 34.3755 41.9941 34.5674C42.1292 34.6684 42.2727 34.826 42.419 35.0781C42.5255 35.2617 42.6319 35.4906 42.7356 35.7761C42.5856 35.7085 42.4403 35.6408 42.3005 35.575H42.2801L42.282 35.5759ZM41.1831 46.372C41.5191 46.5332 41.8691 46.6686 42.2292 46.7742C42.306 46.7965 42.3783 46.7965 42.4551 46.7724C44.5668 46.1226 46.2304 44.5357 46.8951 42.5317C47.3274 41.2284 47.3033 39.1817 47.333 37.3501C47.3357 37.1665 47.1904 37.0127 46.9969 36.9951C45.7425 36.882 44.5797 36.5316 43.5753 36.133C43.5734 36.1098 43.5697 36.0867 43.5623 36.0635C43.3938 35.4795 43.2114 35.0494 43.0254 34.7296C42.8254 34.3848 42.6171 34.1595 42.4153 34.0085C42.0496 33.735 41.596 33.6238 40.6452 33.3911L40.4073 33.3327C39.8778 33.2029 39.201 33.0324 38.5215 32.8414C37.8475 32.6523 37.1791 32.4456 36.67 32.2436C36.47 32.1639 35.6238 31.8672 34.9314 31.6336C34.6638 31.5437 34.4083 31.464 34.1991 31.4103V30.2479C34.3565 30.0569 34.4814 29.853 34.574 29.6333C34.6842 29.3728 34.749 29.0938 34.7684 28.7926L34.8101 28.1428C35.5813 27.8582 35.7183 27.2872 35.8942 26.555L35.909 26.4956C35.9775 26.2111 36.0867 25.7439 36.0895 25.2971C36.0923 24.7669 35.946 24.2747 35.4526 24.0735C35.4905 23.7473 35.5192 23.4024 35.5331 23.0567C35.5498 22.6396 35.5461 22.2289 35.5146 21.8572V21.8563C35.4803 21.4605 35.4359 21.0805 35.3572 20.7088C35.2758 20.3287 35.1582 19.9644 34.9767 19.6122C34.8082 19.2841 34.5907 18.9726 34.337 18.6927C34.0834 18.4127 33.7964 18.1662 33.4862 17.9659C33.0928 17.712 32.6651 17.4867 32.217 17.3162C31.8134 17.1632 31.3922 17.0557 30.9626 17.0149C30.5497 16.975 30.1359 17.0177 29.7341 17.1122C29.3416 17.204 28.9592 17.344 28.6019 17.5034C28.3825 17.6007 28.1723 17.7574 27.9853 17.9289C27.9788 17.9354 27.9724 17.9409 27.9668 17.9474C27.7159 18.181 27.5076 18.4396 27.3873 18.6028C27.2586 18.7789 27.1993 18.9541 27.1855 19.12L27.1836 19.1534L27.1688 19.1561C26.9623 19.1988 26.7402 19.2859 26.6189 19.399C26.2773 19.716 26.0495 20.1813 25.9135 20.6847C25.7588 21.2594 25.7218 21.8952 25.7727 22.4078L25.8903 24.0633C25.7774 24.1106 25.6829 24.1848 25.6052 24.2812C25.3867 24.5509 25.3173 25.0033 25.3432 25.4992C25.3663 25.946 25.4645 26.4456 25.5931 26.8655C25.7376 27.3364 25.9357 27.7312 26.1347 27.8934C26.2162 27.9602 26.3078 28.0149 26.4106 28.0612C26.4356 28.0723 26.4615 28.0835 26.4865 28.0946L26.4911 28.191C26.5291 28.9668 26.5624 29.6305 27.1577 30.3044L27.2641 31.2647C26.6837 31.3991 25.7079 31.8459 25.1645 32.0943C25.0034 32.1685 24.8821 32.2241 24.8377 32.2417C24.3285 32.4438 23.6611 32.6514 22.9871 32.8405C22.2992 33.0333 21.6271 33.2029 21.1032 33.3318L20.868 33.3893C19.9145 33.6229 19.4608 33.7332 19.0933 34.0075L19.0785 34.0187C18.8711 34.1772 18.7082 34.3774 18.5536 34.6953C18.4138 34.9827 18.2786 35.3766 18.1129 35.9504C18.0083 36.3128 17.9028 37.8108 17.7898 39.4171C17.6658 41.182 17.5325 43.0795 17.4001 43.6125C17.3242 43.9174 17.3131 44.2196 17.3649 44.5125C17.4177 44.8054 17.5334 45.0844 17.7111 45.3431C17.8898 45.6035 18.1074 45.813 18.361 45.9669C18.6147 46.1217 18.9008 46.2199 19.2127 46.2589C22.4677 46.6649 25.7301 46.9087 29.0009 46.9791C29.0333 46.98 29.0666 46.981 29.099 46.981C30.2136 47.0041 31.3283 47.006 32.4429 46.9874C32.4623 46.9884 32.4818 46.9884 32.5012 46.9865C34.5972 46.9504 36.694 46.841 38.7909 46.6547H38.7946C39.2464 46.6093 39.6417 46.5712 39.9814 46.5407C40.3045 46.5119 40.636 46.485 40.9748 46.46C41.0563 46.4545 41.1294 46.4211 41.1849 46.3701L41.1831 46.372ZM33.9297 33.4097C33.8528 33.1585 33.776 32.91 33.7112 32.6755L33.6871 32.695C33.677 32.7033 33.6658 32.7107 33.6547 32.7172L31.5523 33.9918L32.192 34.3663L32.1939 34.3672C32.6623 34.6462 32.4651 35.0364 32.2198 35.5231C32.0615 35.8364 31.868 36.2201 31.9791 36.4889C31.9865 36.5056 31.993 36.5232 31.9976 36.5418L32.5142 38.4327C32.5234 38.4633 32.529 38.4948 32.5308 38.5282L32.7114 43.7302C32.8002 43.3297 32.8937 42.9154 32.9882 42.4927C33.6196 39.6813 34.3268 36.5325 34.3796 35.0457C34.3852 34.8918 34.1546 34.141 33.9306 33.4106L33.9297 33.4097ZM32.1031 46.2969L31.8356 38.5903L31.332 36.7457C31.1042 36.1868 31.3764 35.6482 31.5977 35.2088C31.6801 35.0466 31.9282 35.0244 31.8402 34.9697L30.8497 34.3904L29.5573 34.9743C29.511 35.0244 29.7739 35.1847 29.9044 35.4332C30.1266 35.8549 30.3544 36.2869 30.222 36.6354L29.6693 38.594L29.4545 46.2913C30.3377 46.3061 31.2209 46.308 32.1041 46.2969H32.1031ZM30.8626 33.595L33.2724 32.1342C33.3465 32.0749 33.4029 32.0063 33.44 31.9303C33.4788 31.8515 33.4983 31.7606 33.4983 31.6605V30.119C33.4983 30.0217 33.5381 29.9327 33.6029 29.8697C33.7445 29.7112 33.8538 29.5425 33.9306 29.3608C34.0093 29.1745 34.0565 28.9715 34.0704 28.7499L34.1278 27.8592C34.138 27.6997 34.2537 27.5718 34.4018 27.5394L34.4398 27.5292L34.4611 27.5245L34.4814 27.519C34.9832 27.3669 35.0841 26.9443 35.2165 26.3946C35.2174 26.389 35.2322 26.3325 35.2313 26.3325C35.2924 26.0776 35.3905 25.6614 35.3924 25.2952C35.3933 25.0218 35.3452 24.7799 35.1785 24.7168C35.1591 24.7094 35.1369 24.7029 35.1128 24.6974C35.0887 24.6918 35.0656 24.6881 35.0434 24.6872C34.8508 24.6751 34.7055 24.5092 34.7175 24.3164C34.7184 24.3071 34.7194 24.2979 34.7203 24.2895C34.7768 23.8919 34.8184 23.4571 34.836 23.0298C34.8518 22.6498 34.848 22.2688 34.8175 21.9166C34.7842 21.5411 34.7444 21.1852 34.6731 20.8543C34.6036 20.5308 34.5055 20.224 34.3555 19.9329C34.213 19.6558 34.0306 19.3944 33.8195 19.1617C33.6094 18.93 33.3687 18.7242 33.1076 18.5555C32.7512 18.3256 32.367 18.1226 31.9689 17.9715C31.618 17.839 31.257 17.7463 30.895 17.712C30.5664 17.6804 30.2266 17.7166 29.8906 17.7954C29.5452 17.876 29.2036 18.0021 28.8805 18.1458C28.7389 18.2088 28.5917 18.32 28.4547 18.4461L28.4362 18.4619C28.2297 18.6547 28.0511 18.8771 27.9464 19.0189C27.902 19.0792 27.8826 19.1339 27.8779 19.1812C27.8733 19.2386 27.89 19.2915 27.9131 19.3341C28.0048 19.5028 27.9427 19.7151 27.7742 19.8068C27.6446 19.8773 27.491 19.8569 27.3845 19.7679C27.353 19.7447 27.3799 19.8282 27.3077 19.843C27.2068 19.8643 27.1142 19.8912 27.0901 19.9134C26.8531 20.1331 26.6883 20.4807 26.5846 20.8682C26.4504 21.365 26.4189 21.9138 26.4643 22.3522L26.4652 22.3615H26.4661L26.593 24.1449C26.6096 24.1718 26.6235 24.2052 26.6346 24.2497C26.6883 24.4619 26.6291 24.6204 26.3652 24.6872C26.3486 24.6918 26.3319 24.6946 26.3162 24.6964C26.2801 24.702 26.2504 24.702 26.218 24.702C26.2032 24.702 26.1847 24.702 26.1634 24.7085L26.1588 24.7094C26.1542 24.7122 26.1486 24.7168 26.143 24.7242C26.0458 24.8448 26.019 25.1275 26.0366 25.4667C26.0569 25.856 26.143 26.2936 26.2569 26.6634C26.3643 27.0119 26.4809 27.2807 26.5717 27.3549C26.6059 27.3827 26.6476 27.4068 26.6976 27.43C26.7522 27.455 26.8226 27.4791 26.9059 27.5041C26.9142 27.5069 26.9235 27.5097 26.9318 27.5125C27.0651 27.5579 27.1586 27.6803 27.1669 27.8202H27.1679C27.1743 27.9166 27.1799 28.0399 27.1864 28.1595C27.2197 28.8278 27.2475 29.3951 27.7428 29.9142C27.7974 29.9716 27.8289 30.043 27.8363 30.1162L27.9909 31.5076C28.002 31.5521 28.0075 31.6031 28.0057 31.6596H28.0066C28.0066 31.7606 28.027 31.8515 28.0649 31.9293C28.101 32.0035 28.1547 32.0702 28.2251 32.1277L30.8645 33.5941L30.8626 33.595ZM27.8687 32.7293C27.8511 32.72 27.8344 32.7098 27.8178 32.6968C27.7215 33.0361 27.6011 33.3633 27.4854 33.6757C27.2901 34.2059 27.1114 34.6898 27.1244 35.0457C27.1771 36.5205 27.914 39.7277 28.5658 42.5622C28.6556 42.9543 28.7445 43.339 28.8287 43.7116L28.9731 38.5495C28.9722 38.5152 28.9759 38.4791 28.9861 38.4439L29.5508 36.4407C29.5554 36.4204 29.5619 36.4009 29.5702 36.3805C29.5906 36.3341 29.4369 36.0422 29.286 35.7576C28.9963 35.2079 28.7148 34.674 29.1934 34.3755C29.2083 34.3653 29.224 34.357 29.2416 34.3496L30.0933 33.9649L27.8687 32.7284V32.7293ZM28.6732 46.2756C28.4862 45.3301 28.1955 44.0657 27.8863 42.7189C27.228 39.8556 26.4837 36.6169 26.4282 35.0707C26.4106 34.5739 26.6106 34.0307 26.83 33.4356C27.0012 32.9703 27.1855 32.4707 27.2679 31.9757C26.7994 32.1138 25.9366 32.5096 25.4506 32.7321C25.283 32.809 25.1571 32.8665 25.0914 32.8924C24.547 33.1084 23.8592 33.3225 23.1722 33.5153C22.4992 33.7044 21.8077 33.8778 21.2633 34.0112L21.0282 34.0687C20.1691 34.2791 19.7608 34.3792 19.5044 34.5693L19.496 34.5748C19.3775 34.6666 19.2794 34.7917 19.1776 35.0003C19.0544 35.2533 18.9322 35.613 18.7776 36.146C18.6952 36.4305 18.5925 37.8951 18.4823 39.4644C18.3564 41.2599 18.2203 43.1898 18.0731 43.7812V43.7821C18.0203 43.9934 18.012 44.1964 18.0463 44.3902C18.0805 44.583 18.1601 44.7711 18.2833 44.95C18.4055 45.128 18.5517 45.2689 18.7193 45.3718C18.8859 45.4738 19.0785 45.5386 19.2924 45.5646C22.4261 45.9558 25.5524 46.1958 28.6704 46.2737L28.6732 46.2756ZM42.2866 36.996C41.3673 37.4326 40.1536 37.9313 38.7946 38.0545C38.6493 38.0675 38.54 38.1843 38.5437 38.3224C38.5798 39.686 38.6122 41.4193 38.8714 42.1905C39.3473 43.6875 40.6758 44.8972 42.2468 45.3597C42.3042 45.3764 42.3588 45.3764 42.4153 45.3588C43.9928 44.874 45.2352 43.6885 45.7314 42.1915C46.0545 41.2182 46.036 39.6887 46.0582 38.3215C46.06 38.1843 45.9517 38.0694 45.8073 38.0564C44.4427 37.9331 43.2244 37.4344 42.3014 36.996H42.2866Z" stroke="black" stroke-width="0.2" mask="url(#path-2-outside-1_579_3207)"/>
<defs>
<linearGradient id="paint0_linear_579_3207" x1="32.333" y1="0" x2="32.333" y2="64" gradientUnits="userSpaceOnUse">
<stop stop-color="#F8C70C"/>
<stop offset="1" stop-color="#F8C70C"/>
</linearGradient>
</defs>
</svg>
