<svg width="160" height="40" viewBox="0 0 160 40" fill="none" xmlns="http://www.w3.org/2000/svg">
<path d="M12.3054 1.5224C14.7238 0.517372 17.316 0 19.9337 0V10C18.6248 10 17.3288 10.2586 16.1195 10.7613C14.9103 11.2638 13.8115 12.0004 12.8861 12.9289C11.9606 13.8575 11.2264 14.9599 10.7256 16.1732C10.2246 17.3864 9.96685 18.6868 9.96685 20H0C0 17.3736 0.515656 14.7728 1.51735 12.3463C2.51916 9.91979 3.98742 7.7151 5.83841 5.85784C7.68951 4.00069 9.88689 2.52755 12.3054 1.5224Z" fill="black"/>
<path d="M0 19.9998C0 22.6262 0.515656 25.227 1.51735 27.6535C2.51916 30.08 3.98742 32.2847 5.83841 34.1419C7.68951 35.9991 9.88688 37.4722 12.3054 38.4774C14.7238 39.4824 17.316 39.9998 19.9337 39.9998C22.5514 39.9998 25.1436 39.4824 27.562 38.4774C29.9805 37.4722 32.1779 35.9991 34.029 34.1419C35.88 32.2847 37.3482 30.08 38.35 27.6535C39.3517 25.227 39.8674 22.6262 39.8674 19.9998H29.9005C29.9005 21.313 29.6428 22.6134 29.1418 23.8266C28.641 25.0399 27.9068 26.1423 26.9813 27.0709C26.0558 27.9994 24.9571 28.736 23.7479 29.2385C22.5386 29.7411 21.2426 29.9998 19.9337 29.9998C18.6248 29.9998 17.3288 29.7411 16.1195 29.2385C14.9103 28.736 13.8115 27.9994 12.8861 27.0709C11.9606 26.1423 11.2264 25.0399 10.7256 23.8266C10.2246 22.6134 9.96685 21.313 9.96685 19.9998H0Z" fill="black"/>
<path d="M19.9334 13.6365C16.4305 13.6365 13.5908 16.4856 13.5908 20.0001H26.2759C26.2759 16.4856 23.4362 13.6365 19.9334 13.6365Z" fill="black"/>
<path d="M19.9334 26.3633C16.4305 26.3633 13.5908 23.5142 13.5908 19.9996H26.2759C26.2759 23.5142 23.4362 26.3633 19.9334 26.3633Z" fill="black"/>
<path d="M60.5424 15.8194C60.4703 15.0903 60.161 14.5238 59.6145 14.12C59.0679 13.7163 58.3261 13.5144 57.3892 13.5144C56.7525 13.5144 56.2149 13.6048 55.7765 13.7856C55.338 13.9603 55.0017 14.2044 54.7675 14.5178C54.5392 14.8311 54.4251 15.1867 54.4251 15.5844C54.4131 15.9158 54.4822 16.2051 54.6323 16.4522C54.7885 16.6992 55.0017 16.9132 55.272 17.094C55.5423 17.2687 55.8546 17.4224 56.2089 17.555C56.5633 17.6815 56.9417 17.79 57.3441 17.8804L59.0018 18.2781C59.8067 18.4589 60.5454 18.6999 61.2181 19.0012C61.8908 19.3026 62.4734 19.6732 62.9659 20.1131C63.4584 20.553 63.8398 21.0712 64.1101 21.6678C64.3864 22.2644 64.5275 22.9484 64.5335 23.7197C64.5275 24.8527 64.2392 25.8349 63.6686 26.6665C63.1041 27.4921 62.2872 28.1339 61.2181 28.5919C60.155 29.0439 58.8727 29.2699 57.3711 29.2699C55.8816 29.2699 54.5843 29.0409 53.4791 28.5829C52.38 28.1249 51.5211 27.4469 50.9025 26.549C50.2898 25.6451 49.9685 24.5273 49.9385 23.1955H53.7134C53.7554 23.8162 53.9326 24.3344 54.2449 24.7502C54.5632 25.16 54.9867 25.4704 55.5152 25.6813C56.0498 25.8862 56.6534 25.9886 57.3261 25.9886C57.9868 25.9886 58.5604 25.8922 59.0469 25.6993C59.5394 25.5065 59.9208 25.2383 60.191 24.8949C60.4613 24.5514 60.5965 24.1566 60.5965 23.7107C60.5965 23.2949 60.4733 22.9454 60.2271 22.6621C59.9868 22.3789 59.6325 22.1379 59.164 21.939C58.7015 21.7401 58.1339 21.5594 57.4612 21.3967L55.4522 20.8905C53.8966 20.5108 52.6683 19.9172 51.7674 19.1097C50.8664 18.3022 50.419 17.2145 50.425 15.8465C50.419 14.7257 50.7163 13.7464 51.3169 12.9088C51.9235 12.0711 52.7554 11.4173 53.8125 10.9473C54.8696 10.4772 56.0708 10.2422 57.4162 10.2422C58.7856 10.2422 59.9808 10.4772 61.0019 10.9473C62.0289 11.4173 62.8278 12.0711 63.3984 12.9088C63.9689 13.7464 64.2632 14.7166 64.2813 15.8194H60.5424Z" fill="black"/>
<path d="M73.3919 29.2789C71.9684 29.2789 70.7432 28.9896 69.7161 28.4111C68.6951 27.8266 67.9083 27.001 67.3557 25.9344C66.8031 24.8617 66.5268 23.5932 66.5268 22.1288C66.5268 20.7006 66.8031 19.4472 67.3557 18.3685C67.9083 17.2898 68.6861 16.4492 69.6891 15.8465C70.6981 15.2439 71.8814 14.9426 73.2388 14.9426C74.1517 14.9426 75.0016 15.0903 75.7884 15.3855C76.5812 15.6748 77.2719 16.1117 77.8605 16.6962C78.4551 17.2808 78.9176 18.016 79.248 18.9018C79.5783 19.7816 79.7435 20.8121 79.7435 21.9932V23.0508H68.0584V20.6645H76.1307C76.1307 20.1101 76.0106 19.6189 75.7704 19.1911C75.5301 18.7632 75.1968 18.4288 74.7703 18.1877C74.3499 17.9406 73.8604 17.8171 73.3018 17.8171C72.7192 17.8171 72.2027 17.9527 71.7522 18.2239C71.3078 18.489 70.9594 18.8476 70.7071 19.2995C70.4549 19.7455 70.3258 20.2426 70.3197 20.791V23.0599C70.3197 23.7469 70.4459 24.3404 70.6981 24.8406C70.9564 25.3408 71.3198 25.7265 71.7883 25.9976C72.2567 26.2688 72.8123 26.4044 73.455 26.4044C73.8814 26.4044 74.2718 26.3441 74.6262 26.2236C74.9806 26.1031 75.2839 25.9223 75.5361 25.6813C75.7884 25.4402 75.9806 25.1449 76.1127 24.7954L79.6624 25.0304C79.4822 25.8862 79.1128 26.6334 78.5542 27.2722C78.0017 27.9049 77.2869 28.3991 76.41 28.7546C75.5391 29.1041 74.5331 29.2789 73.3919 29.2789Z" fill="black"/>
<path d="M88.4825 34.5036C87.2392 34.5036 86.1731 34.3319 85.2842 33.9884C84.4013 33.6509 83.6985 33.1899 83.176 32.6054C82.6535 32.0208 82.3141 31.364 82.158 30.6348L85.7076 30.1557C85.8157 30.4329 85.9869 30.692 86.2211 30.9331C86.4554 31.1741 86.7647 31.367 87.1491 31.5116C87.5395 31.6623 88.014 31.7376 88.5726 31.7376C89.4074 31.7376 90.0951 31.5327 90.6357 31.1229C91.1823 30.7192 91.4555 30.0412 91.4555 29.0891V26.549H91.2934C91.1252 26.9347 90.8729 27.2993 90.5366 27.6428C90.2002 27.9863 89.7678 28.2665 89.2393 28.4834C88.7107 28.7004 88.0801 28.8089 87.3473 28.8089C86.3082 28.8089 85.3623 28.5678 84.5094 28.0857C83.6625 27.5976 82.9868 26.8534 82.4823 25.853C81.9838 24.8466 81.7345 23.5751 81.7345 22.0384C81.7345 20.4656 81.9898 19.1519 82.5003 18.0973C83.0108 17.0427 83.6895 16.2533 84.5364 15.729C85.3893 15.2047 86.3232 14.9426 87.3383 14.9426C88.1131 14.9426 88.7618 15.0752 89.2843 15.3403C89.8068 15.5995 90.2273 15.9249 90.5456 16.3166C90.8699 16.7023 91.1192 17.0819 91.2934 17.4555H91.4375V15.1234H95.2485V29.1433C95.2485 30.3244 94.9602 31.3127 94.3836 32.1082C93.807 32.9036 93.0081 33.5002 91.9871 33.898C90.972 34.3017 89.8038 34.5036 88.4825 34.5036ZM88.5636 25.9163C89.1822 25.9163 89.7047 25.7626 90.1312 25.4553C90.5636 25.1419 90.894 24.696 91.1222 24.1175C91.3564 23.5329 91.4736 22.8339 91.4736 22.0204C91.4736 21.2068 91.3594 20.5018 91.1312 19.9052C90.903 19.3026 90.5726 18.8355 90.1402 18.5041C89.7077 18.1726 89.1822 18.0069 88.5636 18.0069C87.9329 18.0069 87.4014 18.1787 86.9689 18.5222C86.5365 18.8596 86.2091 19.3297 85.9869 19.9323C85.7647 20.5349 85.6536 21.2309 85.6536 22.0204C85.6536 22.8218 85.7647 23.5149 85.9869 24.0994C86.2151 24.6779 86.5425 25.1269 86.9689 25.4462C87.4014 25.7596 87.9329 25.9163 88.5636 25.9163Z" fill="black"/>
<path d="M98.3026 29.0077V15.1234H101.96V17.573H102.123C102.411 16.7595 102.891 16.1177 103.564 15.6477C104.237 15.1776 105.042 14.9426 105.979 14.9426C106.927 14.9426 107.735 15.1806 108.402 15.6567C109.069 16.1268 109.513 16.7655 109.735 17.573H109.88C110.162 16.7776 110.672 16.1418 111.411 15.6658C112.156 15.1837 113.036 14.9426 114.051 14.9426C115.342 14.9426 116.39 15.3554 117.195 16.181C118.006 17.0006 118.411 18.1636 118.411 19.6701V29.0077H114.582V20.4294C114.582 19.6581 114.378 19.0796 113.97 18.6939C113.561 18.3082 113.051 18.1154 112.438 18.1154C111.741 18.1154 111.198 18.3384 110.807 18.7843C110.417 19.2242 110.222 19.8057 110.222 20.5289V29.0077H106.501V20.3481C106.501 19.6671 106.306 19.1248 105.915 18.721C105.531 18.3173 105.024 18.1154 104.393 18.1154C103.966 18.1154 103.582 18.2239 103.24 18.4408C102.903 18.6517 102.636 18.95 102.438 19.3357C102.24 19.7153 102.141 20.1613 102.141 20.6735V29.0077H98.3026Z" fill="black"/>
<path d="M127.749 29.2789C126.326 29.2789 125.101 28.9896 124.074 28.4111C123.053 27.8266 122.266 27.001 121.713 25.9344C121.161 24.8617 120.884 23.5932 120.884 22.1288C120.884 20.7006 121.161 19.4472 121.713 18.3685C122.266 17.2898 123.044 16.4492 124.047 15.8465C125.056 15.2439 126.239 14.9426 127.596 14.9426C128.509 14.9426 129.359 15.0903 130.146 15.3855C130.939 15.6748 131.629 16.1117 132.218 16.6962C132.813 17.2808 133.275 18.016 133.606 18.9018C133.936 19.7816 134.101 20.8121 134.101 21.9932V23.0508H122.416V20.6645H130.488C130.488 20.1101 130.368 19.6189 130.128 19.1911C129.888 18.7632 129.554 18.4288 129.128 18.1877C128.707 17.9406 128.218 17.8171 127.659 17.8171C127.077 17.8171 126.56 17.9527 126.11 18.2239C125.665 18.489 125.317 18.8476 125.065 19.2995C124.812 19.7455 124.683 20.2426 124.677 20.791V23.0599C124.677 23.7469 124.803 24.3404 125.056 24.8406C125.314 25.3408 125.677 25.7265 126.146 25.9976C126.614 26.2688 127.17 26.4044 127.813 26.4044C128.239 26.4044 128.629 26.3441 128.984 26.2236C129.338 26.1031 129.641 25.9223 129.894 25.6813C130.146 25.4402 130.338 25.1449 130.47 24.7954L134.02 25.0304C133.84 25.8862 133.47 26.6334 132.912 27.2722C132.359 27.9049 131.644 28.3991 130.768 28.7546C129.897 29.1041 128.891 29.2789 127.749 29.2789Z" fill="black"/>
<path d="M140.444 20.9808V29.0077H136.606V15.1234H140.263V17.573H140.426C140.732 16.7655 141.245 16.1268 141.966 15.6567C142.687 15.1806 143.561 14.9426 144.588 14.9426C145.549 14.9426 146.387 15.1535 147.101 15.5754C147.816 15.9972 148.372 16.5998 148.768 17.3832C149.165 18.1606 149.363 19.0886 149.363 20.1673V29.0077H145.525V20.8543C145.531 20.0046 145.315 19.3417 144.876 18.8657C144.438 18.3836 143.834 18.1425 143.065 18.1425C142.549 18.1425 142.092 18.254 141.696 18.477C141.305 18.6999 140.999 19.0253 140.777 19.4532C140.561 19.875 140.45 20.3843 140.444 20.9808Z" fill="black"/>
<path d="M159.748 15.1234V18.016H151.415V15.1234H159.748ZM153.307 11.7969H157.145V24.7412C157.145 25.0967 157.199 25.3739 157.307 25.5728C157.415 25.7656 157.565 25.9012 157.757 25.9796C157.955 26.0579 158.184 26.0971 158.442 26.0971C158.622 26.0971 158.802 26.082 158.982 26.0519C159.163 26.0157 159.301 25.9886 159.397 25.9705L160 28.836C159.808 28.8962 159.538 28.9655 159.19 29.0439C158.841 29.1282 158.418 29.1795 157.919 29.1975C156.994 29.2337 156.184 29.1102 155.487 28.8269C154.796 28.5437 154.259 28.1038 153.874 27.5072C153.49 26.9106 153.301 26.1573 153.307 25.2474V11.7969Z" fill="black"/>
</svg>
