<svg width="64" height="64" viewBox="0 0 64 64" fill="none" xmlns="http://www.w3.org/2000/svg">
<circle cx="32" cy="32" r="32" fill="url(#paint0_linear_579_3166)"/>
<path d="M46.7689 30.3236V33.6767C46.7689 34.5259 46.078 35.2167 45.2289 35.2167H42.9633C42.733 36.0017 42.4186 36.7596 42.0256 37.4771L43.6286 39.0801C44.229 39.6805 44.229 40.6576 43.6286 41.2581L41.2576 43.6291C41.2437 43.643 41.2297 43.6566 41.2154 43.6698C41.1301 43.749 41.018 43.793 40.9017 43.7928C40.8089 43.7929 40.7182 43.7649 40.6416 43.7127C40.5649 43.6604 40.5058 43.5862 40.4719 43.4998C40.438 43.4135 40.4309 43.3189 40.4516 43.2284C40.4723 43.138 40.5198 43.0558 40.5878 42.9928C40.5936 42.9874 40.5993 42.9819 40.6049 42.9763L42.9759 40.6053C43.2165 40.3648 43.2165 39.9733 42.9759 39.7328L41.1243 37.8812C41.0519 37.8088 41.0057 37.7145 40.9928 37.613C40.9799 37.5115 41.0011 37.4086 41.053 37.3205C41.5468 36.483 41.9211 35.5806 42.165 34.6394C42.1907 34.5404 42.2485 34.4527 42.3293 34.3901C42.4102 34.3275 42.5096 34.2936 42.6119 34.2936H45.2288C45.569 34.2936 45.8458 34.0168 45.8458 33.6766V30.3235C45.8458 29.9834 45.569 29.7066 45.2288 29.7066H42.6119C42.5096 29.7066 42.4102 29.6727 42.3294 29.6101C42.2485 29.5475 42.1907 29.4598 42.1651 29.3608C41.921 28.4197 41.5467 27.5172 41.053 26.6796C41.0011 26.5915 40.9799 26.4886 40.9928 26.3871C41.0057 26.2856 41.0519 26.1913 41.1243 26.119L42.976 24.2674C43.2165 24.0268 43.2165 23.6354 42.9759 23.3949L40.6049 21.0239C40.4892 20.9081 40.3343 20.8445 40.1686 20.8445C40.0029 20.8445 39.848 20.9081 39.7323 21.0239L37.8807 22.8755C37.8084 22.9478 37.7141 22.9941 37.6126 23.007C37.5111 23.0199 37.4082 22.9987 37.3201 22.9468C36.4826 22.453 35.5801 22.0787 34.639 21.8347C34.54 21.8091 34.4523 21.7513 34.3897 21.6704C34.3271 21.5896 34.2931 21.4902 34.2931 21.3879V18.771C34.2931 18.4308 34.0164 18.154 33.6762 18.154H30.3231C29.9829 18.154 29.7062 18.4308 29.7062 18.771V21.388C29.7062 21.4902 29.6722 21.5896 29.6097 21.6704C29.5471 21.7513 29.4594 21.8091 29.3604 21.8347C28.4193 22.0788 27.5168 22.4531 26.6793 22.9468C26.5911 22.9987 26.4882 23.0199 26.3868 23.007C26.2853 22.9941 26.191 22.9479 26.1186 22.8756L24.267 21.0239C24.1513 20.9082 23.9963 20.8445 23.8306 20.8445C23.6649 20.8445 23.5101 20.9082 23.3944 21.0239L21.0234 23.3949C20.7828 23.6354 20.7828 24.0269 21.0234 24.2675L22.875 26.119C22.9474 26.1914 22.9936 26.2857 23.0065 26.3871C23.0194 26.4886 22.9982 26.5915 22.9463 26.6796C22.4525 27.5172 22.0782 28.4196 21.8343 29.3608C21.8086 29.4598 21.7508 29.5475 21.6699 29.6101C21.5891 29.6727 21.4897 29.7067 21.3874 29.7067H18.7705C18.4304 29.7067 18.1535 29.9834 18.1535 30.3236V33.6767C18.1535 34.0168 18.4304 34.2936 18.7705 34.2936H21.3875C21.4897 34.2936 21.5891 34.3276 21.67 34.3902C21.7508 34.4528 21.8086 34.5404 21.8343 34.6394C22.0783 35.5806 22.4526 36.483 22.9463 37.3206C22.9983 37.4087 23.0195 37.5116 23.0066 37.6131C22.9937 37.7146 22.9474 37.8089 22.8751 37.8812L21.0234 39.7329C20.7829 39.9734 20.7829 40.3648 21.0234 40.6053L23.3945 42.9764C23.4007 42.9826 23.406 42.9878 23.4115 42.9928C23.4994 43.0765 23.5508 43.1914 23.5546 43.3127C23.5584 43.434 23.5143 43.552 23.4318 43.641C23.3493 43.73 23.2351 43.7829 23.1138 43.7883C22.9926 43.7937 22.8741 43.7512 22.784 43.6698C22.7693 43.6563 22.7549 43.6424 22.7408 43.6282L20.3707 41.2581C19.7703 40.6577 19.7703 39.6806 20.3707 39.0801L21.9738 37.4771C21.5808 36.7596 21.2664 36.0018 21.0361 35.2168H18.7705C17.9214 35.2168 17.2305 34.5259 17.2305 33.6767V30.3236C17.2305 29.4745 17.9214 28.7837 18.7705 28.7837H21.0361C21.2664 27.9986 21.5808 27.2408 21.9738 26.5233L20.3708 24.9203C19.7704 24.3198 19.7704 23.3427 20.3708 22.7422L22.7418 20.3713C23.0318 20.0813 23.4185 19.9215 23.8308 19.9215C24.243 19.9215 24.6297 20.0812 24.9198 20.3713L26.5228 21.9743C27.2403 21.5813 27.9982 21.2669 28.7832 21.0367V18.771C28.7831 17.9218 29.474 17.231 30.3231 17.231H33.6762C34.5254 17.231 35.2162 17.9218 35.2162 18.771V21.0366C36.0012 21.2669 36.7591 21.5813 37.4766 21.9743L39.0796 20.3713C39.3697 20.0812 39.7564 19.9215 40.1686 19.9215C40.5809 19.9215 40.9676 20.0813 41.2576 20.3713L43.6286 22.7422C44.229 23.3427 44.229 24.3198 43.6286 24.9202L42.0256 26.5232C42.4186 27.2408 42.7329 27.9986 42.9632 28.7837H45.2288C46.078 28.7836 46.7689 29.4745 46.7689 30.3236ZM37.6196 36.8132C37.6995 36.8737 37.7971 36.9064 37.8973 36.9063C37.9688 36.9064 38.0393 36.8899 38.1033 36.858C38.1673 36.8262 38.223 36.7799 38.2661 36.7228C39.2996 35.3534 39.8459 33.7203 39.8459 32.0002C39.8459 27.6738 36.3261 24.154 31.9997 24.154C27.6733 24.154 24.1535 27.6738 24.1535 32.0002C24.1535 33.7203 24.6998 35.3534 25.7333 36.7228C25.8071 36.8205 25.9166 36.8849 26.0378 36.9018C26.1591 36.9188 26.2821 36.8869 26.3798 36.8131C26.4775 36.7394 26.5419 36.6298 26.5588 36.5086C26.5758 36.3874 26.5439 36.2644 26.4701 36.1667C25.5584 34.9587 25.0766 33.518 25.0766 32.0001C25.0766 28.1827 28.1823 25.077 31.9997 25.077C35.8171 25.077 38.9228 28.1827 38.9228 32.0002C38.9228 33.518 38.4409 34.9588 37.5293 36.1667C37.4555 36.2644 37.4236 36.3874 37.4406 36.5087C37.4575 36.6299 37.5219 36.7394 37.6196 36.8132ZM38.5489 38.2977C39.389 39.2117 39.8517 40.3949 39.8517 41.6292V46.3079C39.8517 46.4303 39.8031 46.5477 39.7165 46.6342C39.6299 46.7208 39.5126 46.7694 39.3901 46.7694H24.6093C24.4868 46.7694 24.3695 46.7208 24.2829 46.6342C24.1963 46.5477 24.1477 46.4303 24.1477 46.3079V41.6292C24.1477 40.3948 24.6104 39.2117 25.4505 38.2977C26.2852 37.3896 27.4152 36.8286 28.6325 36.718C28.8389 36.6987 29.0335 36.8211 29.1065 37.0157L29.9462 39.2577L30.5711 40.8982L30.8982 39.1653L29.9298 37.3792C29.8916 37.3089 29.8724 37.2299 29.874 37.15C29.8756 37.07 29.898 36.9918 29.9389 36.9231C29.9798 36.8544 30.0379 36.7975 30.1074 36.758C30.1769 36.7185 30.2555 36.6977 30.3355 36.6977H33.6638C33.7438 36.6977 33.8224 36.7185 33.892 36.758C33.9615 36.7975 34.0196 36.8544 34.0605 36.9231C34.1014 36.9918 34.1237 37.07 34.1253 37.15C34.1269 37.2299 34.1077 37.3089 34.0696 37.3792L33.1012 39.1653L33.4283 40.8982L34.0541 39.2552L34.8928 37.0157C34.9283 36.921 34.9939 36.8406 35.0795 36.7868C35.1652 36.733 35.2661 36.7088 35.3668 36.7179C36.5842 36.8286 37.7142 37.3896 38.5489 38.2977ZM31.4679 45.8463L29.0827 39.5839L28.3711 37.684C26.4948 38.0238 25.0708 39.6935 25.0708 41.6292V45.8463H31.4679ZM31.9997 44.6492L32.8002 42.5474L32.1637 39.1753C32.144 39.0709 32.1609 38.963 32.2115 38.8697L32.8886 37.6209H31.1108L31.7879 38.8697C31.8385 38.963 31.8554 39.0709 31.8357 39.1753L31.1992 42.5474L31.9997 44.6492ZM38.9286 41.6292C38.9286 39.6935 37.5046 38.0238 35.6283 37.684L34.9177 39.5815L32.5315 45.8463H38.9286V41.6292ZM31.9997 27.8071C34.345 27.8071 36.2531 29.7152 36.2531 32.0606C36.2531 34.406 34.345 36.314 31.9997 36.314C29.6543 36.314 27.7462 34.406 27.7462 32.0605C27.7462 29.7151 29.6543 27.8071 31.9997 27.8071ZM31.9997 28.7302C30.1634 28.7302 28.6693 30.2242 28.6693 32.0606C28.6693 33.897 30.1634 35.3909 31.9997 35.3909C33.836 35.3909 35.33 33.8969 35.33 32.0605C35.33 30.2241 33.836 28.7302 31.9997 28.7302Z" fill="black"/>
<defs>
<linearGradient id="paint0_linear_579_3166" x1="32" y1="0" x2="32" y2="64" gradientUnits="userSpaceOnUse">
<stop stop-color="#F8C70C"/>
<stop offset="1" stop-color="#F8C70C"/>
</linearGradient>
</defs>
</svg>
