<svg width="65" height="64" viewBox="0 0 65 64" fill="none" xmlns="http://www.w3.org/2000/svg">
<circle cx="32.333" cy="32" r="32" fill="url(#paint0_linear_579_3182)"/>
<path fill-rule="evenodd" clip-rule="evenodd" d="M32.3332 20C32.7477 20 33.0832 20.3354 33.0832 20.75V24.4999C33.0832 24.9144 32.7477 25.2499 32.3332 25.2499C31.9187 25.2499 31.5832 24.9144 31.5832 24.4999V20.75C31.5832 20.3354 31.9187 20 32.3332 20ZM25.3228 21.226C25.6817 21.018 26.1401 21.1411 26.3467 21.5L28.2216 24.7474C28.4296 25.1063 28.3066 25.5648 27.9477 25.7714C27.5888 25.9794 27.1304 25.8563 26.9223 25.4974L25.0474 22.2499C24.8409 21.8911 24.9639 21.4326 25.3228 21.226ZM39.458 21.226C39.8169 21.4326 39.9399 21.891 39.7319 22.2499L37.857 25.4974C37.6504 25.8563 37.192 25.9794 36.833 25.7714C36.4742 25.5648 36.3511 25.1064 36.5591 24.7474L38.4341 21.5C38.6406 21.1411 39.0991 21.018 39.458 21.226ZM19.3623 24.5936C19.6143 24.2641 20.0845 24.2011 20.4141 24.453L23.3935 26.7293C23.723 26.9813 23.786 27.4515 23.5341 27.7811C23.2836 28.1092 22.8119 28.1722 22.4838 27.9217L19.503 25.6454C19.1734 25.3934 19.1104 24.9232 19.3623 24.5936ZM45.4181 24.5936C45.6685 24.9232 45.6055 25.3934 45.2774 25.6454L42.2966 27.9217C41.967 28.1722 41.4968 28.1092 41.2448 27.7811C40.9944 27.4515 41.0573 26.9813 41.3869 26.7293L44.3663 24.453C44.6959 24.2011 45.1661 24.2641 45.4181 24.5936ZM19.3533 32.5052C26.5149 24.831 38.1511 24.831 45.3127 32.5052L46.8595 34.1619C47.4908 34.8372 47.4908 35.9124 46.8595 36.5876L45.3127 38.2444C38.1511 45.9185 26.5149 45.9185 19.3533 38.2444L17.8065 36.5876C17.1752 35.9124 17.1752 34.8372 17.8065 34.1619L19.3533 32.5052ZM24.6107 30.2611C23.1122 31.0916 21.7074 32.1815 20.4491 33.5291L18.9022 35.1858C18.8099 35.2839 18.8099 35.4656 18.9022 35.5637L20.4491 37.2204C21.6487 38.5065 22.9846 39.5568 24.4056 40.3727C23.4901 38.9547 22.9583 37.2746 22.9583 35.4685C22.9583 33.5335 23.5692 31.7392 24.6107 30.2611ZM28.6036 28.6967C28.5889 28.7069 28.5728 28.7157 28.5567 28.7245C26.1076 30.0326 24.4581 32.5682 24.4581 35.4683C24.4581 38.1343 25.8496 40.4899 27.975 41.8709C27.9882 41.8783 27.9999 41.8871 28.0131 41.8958C30.8402 42.7 33.8254 42.7 36.6525 41.8958C36.6657 41.8871 36.6774 41.8783 36.6906 41.8709C38.816 40.4896 40.2076 38.1342 40.2076 35.4683C40.2076 32.568 38.5582 30.0325 36.1089 28.7245C36.0928 28.7157 36.0767 28.7069 36.0621 28.6967C33.61 28.1005 31.0552 28.1005 28.6032 28.6967H28.6036ZM40.0553 30.2611C41.0968 31.7391 41.7076 33.5335 41.7076 35.4686C41.7076 37.2747 41.1759 38.9549 40.2604 40.3727C41.6813 39.5568 43.0172 38.5066 44.2169 37.2205L45.7637 35.5638C45.856 35.4656 45.856 35.284 45.7637 35.1859L44.2169 33.5291C42.9586 32.1815 41.5539 31.0916 40.0553 30.2611ZM32.3328 32.7498C30.8827 32.7498 29.7079 33.9246 29.7079 35.3747C29.7079 36.8249 30.8827 37.9997 32.3328 37.9997C33.783 37.9997 34.9577 36.8249 34.9577 35.3747C34.9577 33.9246 33.783 32.7498 32.3328 32.7498ZM28.2079 35.3747C28.2079 33.097 30.0551 31.2498 32.3328 31.2498C34.6106 31.2498 36.4577 33.097 36.4577 35.3747C36.4577 37.6525 34.6106 39.4996 32.3328 39.4996C30.0551 39.4996 28.2079 37.6525 28.2079 35.3747Z" fill="black"/>
<defs>
<linearGradient id="paint0_linear_579_3182" x1="32.333" y1="0" x2="32.333" y2="64" gradientUnits="userSpaceOnUse">
<stop stop-color="#F8C70C"/>
<stop offset="1" stop-color="#F8C70C"/>
</linearGradient>
</defs>
</svg>
